{
.appVersion = "3192";
DisplayStrings = (

glyphs = (
{
glyphname = A;
lastChange = "2022-10-01 01:33:41 +0000";
layers = (
{
anchors = (
{
name = bottom;
position = "{309, 0}";
},
{
name = ogonek;
position = "{588, 0}";
},
{
name = top;
position = "{308, 699}";
}
);
layerId = m01;
paths = (
{
closed = 1;
nodes = (
"491 0 LINE",
"588 0 LINE",
"368 699 LINE",
"251 699 LINE",
"30 0 LINE",
"126 0 LINE",
"316 641 LINE",
"300 642 LINE"
);
},
{
closed = 1;
nodes = (
"435 287 LINE",
"171 287 LINE",
"148 209 LINE",
"462 209 LINE"
);
}
);
userData = {
assembly = "NPUSHB[ ]	/* 36 values pushed */
9 4 8 2 10 8 17 1 0 1 4 1 0 1 7 6 3 2 3 2 0 5 4 0 14 10 9 8 7 6 5 4 3 2 1 0 
MDAP[0]	/* MoveDirectAbsPt */
MDAP[0]	/* MoveDirectAbsPt */
MDAP[0]	/* MoveDirectAbsPt */
MDAP[0]	/* MoveDirectAbsPt */
MDAP[0]	/* MoveDirectAbsPt */
MDAP[0]	/* MoveDirectAbsPt */
MDAP[0]	/* MoveDirectAbsPt */
MDAP[0]	/* MoveDirectAbsPt */
MDAP[0]	/* MoveDirectAbsPt */
MDAP[0]	/* MoveDirectAbsPt */
MDAP[0]	/* MoveDirectAbsPt */
CALL[ ]	/* CallFunction */
RUTG[ ]	/* RoundUpToGrid */
MIAP[1]	/* MoveIndirectAbsPt */
ALIGNRP[ ]	/* AlignRelativePt */
RTG[ ]	/* RoundToGrid */
LOOPCALL[ ]	/* LoopAndCallFunction */
LOOPCALL[ ]	/* LoopAndCallFunction */
CALL[ ]	/* CallFunction */
IUP[1]	/* InterpolateUntPts */
IUP[0]	/* InterpolateUntPts */";
};
width = 618;
},
{
anchors = (
{
name = bottom;
position = "{253, 0}";
},
{
name = ogonek;
position = "{532, 0}";
},
{
name = top;
position = "{400, 699}";
}
);
layerId = "2BD620B1-1E84-4C86-A446-E2CCA0F180F7";
paths = (
{
closed = 1;
nodes = (
"441 0 LINE",
"532 0 LINE",
"460 699 LINE",
"343 699 LINE",
"-26 0 LINE",
"75 0 LINE",
"401 641 LINE",
"386 642 LINE"
);
},
{
closed = 1;
nodes = (
"440 287 LINE",
"176 287 LINE",
"136 209 LINE",
"450 209 LINE"
);
}
);
userData = {
assembly = "NPUSHB[ ]	/* 36 values pushed */
9 4 8 2 10 8 17 1 0 1 4 1 0 1 7 6 3 2 3 2 0 5 4 0 14 10 9 8 7 6 5 4 3 2 1 0 
MDAP[0]	/* MoveDirectAbsPt */
MDAP[0]	/* MoveDirectAbsPt */
MDAP[0]	/* MoveDirectAbsPt */
MDAP[0]	/* MoveDirectAbsPt */
MDAP[0]	/* MoveDirectAbsPt */
MDAP[0]	/* MoveDirectAbsPt */
MDAP[0]	/* MoveDirectAbsPt */
MDAP[0]	/* MoveDirectAbsPt */
MDAP[0]	/* MoveDirectAbsPt */
MDAP[0]	/* MoveDirectAbsPt */
MDAP[0]	/* MoveDirectAbsPt */
CALL[ ]	/* CallFunction */
RUTG[ ]	/* RoundUpToGrid */
MIAP[1]	/* MoveIndirectAbsPt */
ALIGNRP[ ]	/* AlignRelativePt */
RTG[ ]	/* RoundToGrid */
LOOPCALL[ ]	/* LoopAndCallFunction */
LOOPCALL[ ]	/* LoopAndCallFunction */
CALL[ ]	/* CallFunction */
IUP[1]	/* InterpolateUntPts */
IUP[0]	/* InterpolateUntPts */";
};
width = 618;
}
);
note = A;
unicode = 0041;
},
{
glyphname = AE;
lastChange = "2022-10-01 01:33:41 +0000";
layers = (
{
layerId = m01;
paths = (
{
closed = 1;
nodes = (
"322 284 LINE",
"164 284 LINE",
"134 206 LINE",
"322 206 LINE"
);
},
{
closed = 1;
nodes = (
"306 0 LINE",
"605 0 LINE",
"605 80 LINE",
"392 80 LINE",
"392 318 LINE",
"572 318 LINE",
"572 398 LINE",
"392 398 LINE",
"392 619 LINE",
"587 619 LINE",
"587 699 LINE",
"245 699 LINE",
"-1 0 LINE",
"90 0 LINE",
"302 619 LINE",
"306 619 LINE"
);
}
);
userData = {
assembly = "NPUSHB[ ]	/* 75 values pushed */
18 17 7 6 16 3 4 11 10 16 1 8 19 16 16 1 0 13 12 16 1 2 4 4 9 8 1 1 0 1 15 14 3 2 3 3 0 5 4 0 14 19 18 4 3 2 1 6 13 0 12 11 8 7 6 3 0 1 4 14 13 1 6 5 1 10 9 1 17 16 15 0 3 4 0 
LOOPCALL[ ]	/* LoopAndCallFunction */
LOOPCALL[ ]	/* LoopAndCallFunction */
SRP0[ ]	/* SetRefPoint0 */
LOOPCALL[ ]	/* LoopAndCallFunction */
CALL[ ]	/* CallFunction */
RUTG[ ]	/* RoundUpToGrid */
MIAP[1]	/* MoveIndirectAbsPt */
ALIGNRP[ ]	/* AlignRelativePt */
RTG[ ]	/* RoundToGrid */
LOOPCALL[ ]	/* LoopAndCallFunction */
LOOPCALL[ ]	/* LoopAndCallFunction */
IUP[1]	/* InterpolateUntPts */
IUP[0]	/* InterpolateUntPts */";
};
width = 618;
},
{
layerId = "2BD620B1-1E84-4C86-A446-E2CCA0F180F7";
paths = (
{
closed = 1;
nodes = (
"327 284 LINE",
"169 284 LINE",
"122 206 LINE",
"310 206 LINE"
);
},
{
closed = 1;
nodes = (
"250 0 LINE",
"549 0 LINE",
"566 80 LINE",
"353 80 LINE",
"404 318 LINE",
"584 318 LINE",
"601 398 LINE",
"421 398 LINE",
"468 619 LINE",
"663 619 LINE",
"680 699 LINE",
"333 699 LINE",
"-57 0 LINE",
"39 0 LINE",
"377 619 LINE",
"382 619 LINE"
);
}
);
userData = {
assembly = "NPUSHB[ ]	/* 75 values pushed */
18 17 7 6 16 3 4 11 10 16 1 8 19 16 16 1 0 13 12 16 1 2 4 4 9 8 1 1 0 1 15 14 3 2 3 3 0 5 4 0 14 19 18 4 3 2 1 6 13 0 12 11 8 7 6 3 0 1 4 14 13 1 6 5 1 10 9 1 17 16 15 0 3 4 0 
LOOPCALL[ ]	/* LoopAndCallFunction */
LOOPCALL[ ]	/* LoopAndCallFunction */
SRP0[ ]	/* SetRefPoint0 */
LOOPCALL[ ]	/* LoopAndCallFunction */
CALL[ ]	/* CallFunction */
RUTG[ ]	/* RoundUpToGrid */
MIAP[1]	/* MoveIndirectAbsPt */
ALIGNRP[ ]	/* AlignRelativePt */
RTG[ ]	/* RoundToGrid */
LOOPCALL[ ]	/* LoopAndCallFunction */
LOOPCALL[ ]	/* LoopAndCallFunction */
IUP[1]	/* InterpolateUntPts */
IUP[0]	/* InterpolateUntPts */";
};
width = 618;
}
);
note = AE;
unicode = 00C6;
},
{
glyphname = B;
lastChange = "2022-10-01 01:33:41 +0000";
layers = (
{
guideLines = (
{
angle = 90;
position = "{235, -181}";
showMeasurement = 1;
}
);
layerId = m01;
paths = (
{
closed = 1;
nodes = (
"502 0 OFFCURVE",
"575 94 OFFCURVE",
"575 199 CURVE SMOOTH",
"575 299 OFFCURVE",
"513 363 OFFCURVE",
"413 375 CURVE",
"412 358 LINE",
"503 355 OFFCURVE",
"552 439 OFFCURVE",
"552 521 CURVE SMOOTH",
"552 631 OFFCURVE",
"466 699 OFFCURVE",
"341 699 CURVE SMOOTH",
"92 699 LINE",
"92 0 LINE",
"364 0 LINE SMOOTH"
);
},
{
closed = 1;
nodes = (
"327 620 LINE SMOOTH",
"402 620 OFFCURVE",
"457 594 OFFCURVE",
"457 508 CURVE SMOOTH",
"457 423 OFFCURVE",
"402 399 OFFCURVE",
"327 399 CURVE SMOOTH",
"183 399 LINE",
"183 620 LINE"
);
},
{
closed = 1;
nodes = (
"353 320 LINE SMOOTH",
"441 320 OFFCURVE",
"480 270 OFFCURVE",
"480 200 CURVE SMOOTH",
"480 129 OFFCURVE",
"441 79 OFFCURVE",
"353 79 CURVE SMOOTH",
"183 79 LINE",
"183 320 LINE"
);
}
);
userData = {
assembly = "NPUSHB[ ]	/* 64 values pushed */
8 17 39 2 30 29 16 1 1 40 39 16 1 17 32 31 16 1 0 3 4 18 17 1 16 0 1 2 0 2 1 0 14 36 31 12 23 31 6 39 32 29 18 16 8 2 7 13 12 6 17 40 31 30 17 6 3 0 1 4 1 0 1 0 
CALL[ ]	/* CallFunction */
LOOPCALL[ ]	/* LoopAndCallFunction */
SRP0[ ]	/* SetRefPoint0 */
MDRP[00100]	/* MoveDirectRelPt */
MDRP[00100]	/* MoveDirectRelPt */
LOOPCALL[ ]	/* LoopAndCallFunction */
SRP0[ ]	/* SetRefPoint0 */
MIRP[01101]	/* MoveIndirectRelPt */
SRP0[ ]	/* SetRefPoint0 */
MIRP[01101]	/* MoveIndirectRelPt */
CALL[ ]	/* CallFunction */
RUTG[ ]	/* RoundUpToGrid */
MIAP[1]	/* MoveIndirectAbsPt */
ALIGNRP[ ]	/* AlignRelativePt */
RTG[ ]	/* RoundToGrid */
LOOPCALL[ ]	/* LoopAndCallFunction */
LOOPCALL[ ]	/* LoopAndCallFunction */
CALL[ ]	/* CallFunction */
IUP[1]	/* InterpolateUntPts */
IUP[0]	/* InterpolateUntPts */";
};
width = 618;
},
{
guideLines = (
{
angle = 90;
position = "{235, -181}";
showMeasurement = 1;
}
);
layerId = "2BD620B1-1E84-4C86-A446-E2CCA0F180F7";
paths = (
{
closed = 1;
nodes = (
"469 0 OFFCURVE",
"563 91 OFFCURVE",
"563 215 CURVE SMOOTH",
"563 291 OFFCURVE",
"522 359 OFFCURVE",
"415 367 CURVE",
"429 346 LINE",
"536 351 OFFCURVE",
"608 430 OFFCURVE",
"608 536 CURVE SMOOTH",
"608 633 OFFCURVE",
"529 699 OFFCURVE",
"417 699 CURVE SMOOTH",
"185 699 LINE",
"36 0 LINE",
"341 0 LINE SMOOTH"
);
},
{
closed = 1;
nodes = (
"394 620 LINE SMOOTH",
"476 620 OFFCURVE",
"515 586 OFFCURVE",
"515 527 CURVE SMOOTH",
"515 445 OFFCURVE",
"463 399 OFFCURVE",
"371 399 CURVE SMOOTH",
"170 399 LINE",
"203 359 LINE",
"267 658 LINE",
"216 620 LINE"
);
},
{
closed = 1;
nodes = (
"362 320 LINE SMOOTH",
"431 320 OFFCURVE",
"470 287 OFFCURVE",
"470 220 CURVE SMOOTH",
"470 137 OFFCURVE",
"417 79 OFFCURVE",
"322 79 CURVE SMOOTH",
"103 79 LINE",
"136 41 LINE",
"204 359 LINE",
"153 320 LINE"
);
}
);
userData = {
assembly = "NPUSHB[ ]	/* 64 values pushed */
8 17 39 2 30 29 16 1 1 40 39 16 1 17 32 31 16 1 0 3 4 18 17 1 16 0 1 2 0 2 1 0 14 36 31 12 23 31 6 39 32 29 18 16 8 2 7 13 12 6 17 40 31 30 17 6 3 0 1 4 1 0 1 0 
CALL[ ]	/* CallFunction */
LOOPCALL[ ]	/* LoopAndCallFunction */
SRP0[ ]	/* SetRefPoint0 */
MDRP[00100]	/* MoveDirectRelPt */
MDRP[00100]	/* MoveDirectRelPt */
LOOPCALL[ ]	/* LoopAndCallFunction */
SRP0[ ]	/* SetRefPoint0 */
MIRP[01101]	/* MoveIndirectRelPt */
SRP0[ ]	/* SetRefPoint0 */
MIRP[01101]	/* MoveIndirectRelPt */
CALL[ ]	/* CallFunction */
RUTG[ ]	/* RoundUpToGrid */
MIAP[1]	/* MoveIndirectAbsPt */
ALIGNRP[ ]	/* AlignRelativePt */
RTG[ ]	/* RoundToGrid */
LOOPCALL[ ]	/* LoopAndCallFunction */
LOOPCALL[ ]	/* LoopAndCallFunction */
CALL[ ]	/* CallFunction */
IUP[1]	/* InterpolateUntPts */
IUP[0]	/* InterpolateUntPts */";
};
width = 618;
}
);
note = B;
unicode = 0042;
},
{
glyphname = C;
lastChange = "2022-10-01 01:33:41 +0000";
layers = (
{
anchors = (
{
name = bottom;
position = "{333, 0}";
},
{
name = top;
position = "{338, 699}";
}
);
layerId = m01;
paths = (
{
closed = 1;
nodes = (
"554 624 OFFCURVE",
"476 715 OFFCURVE",
"337 715 CURVE SMOOTH",
"130 715 OFFCURVE",
"54 548 OFFCURVE",
"54 347 CURVE SMOOTH",
"54 123 OFFCURVE",
"151 -18 OFFCURVE",
"333 -18 CURVE SMOOTH",
"470 -18 OFFCURVE",
"563 68 OFFCURVE",
"582 237 CURVE",
"487 237 LINE",
"467 124 OFFCURVE",
"427 64 OFFCURVE",
"334 64 CURVE SMOOTH",
"215 64 OFFCURVE",
"151 159 OFFCURVE",
"151 348 CURVE SMOOTH",
"151 516 OFFCURVE",
"201 633 OFFCURVE",
"334 633 CURVE SMOOTH",
"423 633 OFFCURVE",
"460 580 OFFCURVE",
"480 504 CURVE",
"575 504 LINE"
);
}
);
userData = {
assembly = "NPUSHB[ ]	/* 26 values pushed */
15 34 23 5 31 31 0 23 2 1 0 1 21 20 1 2 0 14 9 31 27 27 21 20 1 0 
MDAP[0]	/* MoveDirectAbsPt */
MDAP[0]	/* MoveDirectAbsPt */
MDAP[0]	/* MoveDirectAbsPt */
MDAP[0]	/* MoveDirectAbsPt */
MDAP[1]	/* MoveDirectAbsPt */
SRP0[ ]	/* SetRefPoint0 */
MIRP[01101]	/* MoveIndirectRelPt */
CALL[ ]	/* CallFunction */
LOOPCALL[ ]	/* LoopAndCallFunction */
MIAP[1]	/* MoveIndirectAbsPt */
RUTG[ ]	/* RoundUpToGrid */
MIAP[1]	/* MoveIndirectAbsPt */
RTG[ ]	/* RoundToGrid */
SRP0[ ]	/* SetRefPoint0 */
MDRP[01101]	/* MoveDirectRelPt */
SRP0[ ]	/* SetRefPoint0 */
MIRP[01101]	/* MoveIndirectRelPt */
IUP[1]	/* InterpolateUntPts */
IUP[0]	/* InterpolateUntPts */";
};
width = 618;
},
{
anchors = (
{
name = bottom;
position = "{294, 0}";
},
{
name = top;
position = "{425, 699}";
}
);
layerId = "2BD620B1-1E84-4C86-A446-E2CCA0F180F7";
paths = (
{
closed = 1;
nodes = (
"629 492 LINE",
"620 630 OFFCURVE",
"551 715 OFFCURVE",
"405 715 CURVE SMOOTH",
"201 715 OFFCURVE",
"68 517 OFFCURVE",
"68 247 CURVE SMOOTH",
"68 75 OFFCURVE",
"160 -18 OFFCURVE",
"301 -18 CURVE SMOOTH",
"436 -18 OFFCURVE",
"539 68 OFFCURVE",
"584 232 CURVE",
"487 232 LINE",
"454 130 OFFCURVE",
"395 64 OFFCURVE",
"313 64 CURVE SMOOTH",
"219 64 OFFCURVE",
"163 125 OFFCURVE",
"163 250 CURVE SMOOTH",
"163 464 OFFCURVE",
"261 633 OFFCURVE",
"405 633 CURVE SMOOTH",
"492 633 OFFCURVE",
"529 581 OFFCURVE",
"537 492 CURVE"
);
}
);
userData = {
assembly = "NPUSHB[ ]	/* 26 values pushed */
15 34 23 5 31 31 0 23 2 1 0 1 21 20 1 2 0 14 9 31 27 27 21 20 1 0 
MDAP[0]	/* MoveDirectAbsPt */
MDAP[0]	/* MoveDirectAbsPt */
MDAP[0]	/* MoveDirectAbsPt */
MDAP[0]	/* MoveDirectAbsPt */
MDAP[1]	/* MoveDirectAbsPt */
SRP0[ ]	/* SetRefPoint0 */
MIRP[01101]	/* MoveIndirectRelPt */
CALL[ ]	/* CallFunction */
LOOPCALL[ ]	/* LoopAndCallFunction */
MIAP[1]	/* MoveIndirectAbsPt */
RUTG[ ]	/* RoundUpToGrid */
MIAP[1]	/* MoveIndirectAbsPt */
RTG[ ]	/* RoundToGrid */
SRP0[ ]	/* SetRefPoint0 */
MDRP[01101]	/* MoveDirectRelPt */
SRP0[ ]	/* SetRefPoint0 */
MIRP[01101]	/* MoveIndirectRelPt */
IUP[1]	/* InterpolateUntPts */
IUP[0]	/* InterpolateUntPts */";
};
width = 618;
}
);
note = C;
unicode = 0043;
},
{
glyphname = D;
lastChange = "2022-10-01 01:33:41 +0000";
layers = (
{
anchors = (
{
name = bottom;
position = "{309, 0}";
},
{
name = center;
position = "{309, 350}";
},
{
name = top;
position = "{289, 699}";
}
);
layerId = m01;
paths = (
{
closed = 1;
nodes = (
"479 0 OFFCURVE",
"568 146 OFFCURVE",
"568 350 CURVE SMOOTH",
"568 553 OFFCURVE",
"479 699 OFFCURVE",
"302 699 CURVE SMOOTH",
"76 699 LINE",
"76 0 LINE",
"302 0 LINE SMOOTH"
);
},
{
closed = 1;
nodes = (
"286 617 LINE SMOOTH",
"417 617 OFFCURVE",
"471 516 OFFCURVE",
"471 349 CURVE SMOOTH",
"471 183 OFFCURVE",
"417 82 OFFCURVE",
"286 82 CURVE SMOOTH",
"169 82 LINE",
"169 617 LINE"
);
}
);
userData = {
assembly = "NPUSHB[ ]	/* 42 values pushed */
24 23 16 1 1 12 11 16 1 0 2 4 10 0 1 0 2 1 0 14 18 31 6 23 12 10 2 4 13 6 11 24 11 6 1 0 1 4 1 0 1 0 
CALL[ ]	/* CallFunction */
LOOPCALL[ ]	/* LoopAndCallFunction */
SRP0[ ]	/* SetRefPoint0 */
MDRP[00100]	/* MoveDirectRelPt */
LOOPCALL[ ]	/* LoopAndCallFunction */
SRP0[ ]	/* SetRefPoint0 */
MIRP[01101]	/* MoveIndirectRelPt */
CALL[ ]	/* CallFunction */
RUTG[ ]	/* RoundUpToGrid */
MIAP[1]	/* MoveIndirectAbsPt */
ALIGNRP[ ]	/* AlignRelativePt */
RTG[ ]	/* RoundToGrid */
CALL[ ]	/* CallFunction */
LOOPCALL[ ]	/* LoopAndCallFunction */
IUP[1]	/* InterpolateUntPts */
IUP[0]	/* InterpolateUntPts */";
};
width = 618;
},
{
anchors = (
{
name = bottom;
position = "{253, 0}";
},
{
name = center;
position = "{328, 350}";
},
{
name = top;
position = "{362, 699}";
}
);
layerId = "2BD620B1-1E84-4C86-A446-E2CCA0F180F7";
paths = (
{
closed = 1;
nodes = (
"131 82 LINE",
"244 617 LINE",
"336 617 LINE SMOOTH",
"445 617 OFFCURVE",
"499 549 OFFCURVE",
"499 417 CURVE SMOOTH",
"499 233 OFFCURVE",
"399 82 OFFCURVE",
"264 82 CURVE SMOOTH"
);
},
{
closed = 1;
nodes = (
"453 0 OFFCURVE",
"594 177 OFFCURVE",
"594 420 CURVE SMOOTH",
"594 602 OFFCURVE",
"498 699 OFFCURVE",
"348 699 CURVE SMOOTH",
"169 699 LINE",
"20 0 LINE",
"262 0 LINE SMOOTH"
);
}
);
userData = {
assembly = "NPUSHB[ ]	/* 42 values pushed */
24 23 16 1 1 12 11 16 1 0 2 4 10 0 1 0 2 1 0 14 18 31 6 23 12 10 2 4 13 6 11 24 11 6 1 0 1 4 1 0 1 0 
CALL[ ]	/* CallFunction */
LOOPCALL[ ]	/* LoopAndCallFunction */
SRP0[ ]	/* SetRefPoint0 */
MDRP[00100]	/* MoveDirectRelPt */
LOOPCALL[ ]	/* LoopAndCallFunction */
SRP0[ ]	/* SetRefPoint0 */
MIRP[01101]	/* MoveIndirectRelPt */
CALL[ ]	/* CallFunction */
RUTG[ ]	/* RoundUpToGrid */
MIAP[1]	/* MoveIndirectAbsPt */
ALIGNRP[ ]	/* AlignRelativePt */
RTG[ ]	/* RoundToGrid */
CALL[ ]	/* CallFunction */
LOOPCALL[ ]	/* LoopAndCallFunction */
IUP[1]	/* InterpolateUntPts */
IUP[0]	/* InterpolateUntPts */";
};
width = 618;
}
);
note = D;
unicode = 0044;
},
{
glyphname = Eth;
lastChange = "2022-10-01 01:33:41 +0000";
layers = (
{
components = (
{
alignment = -1;
name = D;
transform = "{1, 0, 0, 1, 12, 0}";
}
);
layerId = m01;
paths = (
{
closed = 1;
nodes = (
"11 317 LINE",
"312 317 LINE",
"312 399 LINE",
"11 399 LINE"
);
}
);
userData = {
assembly = "NPUSHB[ ]	/* 66 values pushed */
29 28 16 1 4 32 15 1 0 9 3 2 17 16 16 1 13 3 4 31 30 3 2 3 14 13 1 2 0 5 4 0 14 23 31 9 28 17 13 5 4 13 9 31 30 29 16 15 6 3 0 1 4 32 31 1 14 4 3 0 3 2 1 1 3 0 
LOOPCALL[ ]	/* LoopAndCallFunction */
LOOPCALL[ ]	/* LoopAndCallFunction */
SRP0[ ]	/* SetRefPoint0 */
MDRP[00100]	/* MoveDirectRelPt */
LOOPCALL[ ]	/* LoopAndCallFunction */
SRP0[ ]	/* SetRefPoint0 */
MIRP[01101]	/* MoveIndirectRelPt */
CALL[ ]	/* CallFunction */
RUTG[ ]	/* RoundUpToGrid */
MIAP[1]	/* MoveIndirectAbsPt */
ALIGNRP[ ]	/* AlignRelativePt */
RTG[ ]	/* RoundToGrid */
LOOPCALL[ ]	/* LoopAndCallFunction */
LOOPCALL[ ]	/* LoopAndCallFunction */
IUP[1]	/* InterpolateUntPts */
IUP[0]	/* InterpolateUntPts */";
};
width = 618;
},
{
components = (
{
alignment = -1;
name = D;
transform = "{1, 0, 0, 1, 12, 0}";
}
);
layerId = "2BD620B1-1E84-4C86-A446-E2CCA0F180F7";
paths = (
{
closed = 1;
nodes = (
"23 317 LINE",
"324 317 LINE",
"341 399 LINE",
"40 399 LINE"
);
}
);
userData = {
assembly = "NPUSHB[ ]	/* 66 values pushed */
29 28 16 1 4 32 15 1 0 9 3 2 17 16 16 1 13 3 4 31 30 3 2 3 14 13 1 2 0 5 4 0 14 23 31 9 28 17 13 5 4 13 9 31 30 29 16 15 6 3 0 1 4 32 31 1 14 4 3 0 3 2 1 1 3 0 
LOOPCALL[ ]	/* LoopAndCallFunction */
LOOPCALL[ ]	/* LoopAndCallFunction */
SRP0[ ]	/* SetRefPoint0 */
MDRP[00100]	/* MoveDirectRelPt */
LOOPCALL[ ]	/* LoopAndCallFunction */
SRP0[ ]	/* SetRefPoint0 */
MIRP[01101]	/* MoveIndirectRelPt */
CALL[ ]	/* CallFunction */
RUTG[ ]	/* RoundUpToGrid */
MIAP[1]	/* MoveIndirectAbsPt */
ALIGNRP[ ]	/* AlignRelativePt */
RTG[ ]	/* RoundToGrid */
LOOPCALL[ ]	/* LoopAndCallFunction */
LOOPCALL[ ]	/* LoopAndCallFunction */
IUP[1]	/* InterpolateUntPts */
IUP[0]	/* InterpolateUntPts */";
};
width = 618;
}
);
note = Eth;
unicode = 00D0;
},
{
glyphname = E;
lastChange = "2022-10-01 01:33:41 +0000";
layers = (
{
anchors = (
{
name = bottom;
position = "{326, 0}";
},
{
name = ogonek;
position = "{539, 0}";
},
{
name = top;
position = "{317, 699}";
},
{
name = topleft;
position = "{20, 699}";
}
);
layerId = m01;
paths = (
{
closed = 1;
nodes = (
"506 399 LINE",
"206 399 LINE",
"206 617 LINE",
"521 617 LINE",
"521 699 LINE",
"113 699 LINE",
"113 0 LINE",
"539 0 LINE",
"539 82 LINE",
"206 82 LINE",
"206 317 LINE",
"506 317 LINE"
);
}
);
userData = {
assembly = "NPUSHB[ ]	/* 52 values pushed */
8 7 16 1 5 11 0 16 1 9 2 1 16 1 3 3 4 10 9 1 4 3 1 2 0 6 5 0 14 9 8 1 0 6 3 4 1 4 3 2 1 7 6 1 11 10 1 5 4 1 4 0 
LOOPCALL[ ]	/* LoopAndCallFunction */
LOOPCALL[ ]	/* LoopAndCallFunction */
CALL[ ]	/* CallFunction */
RUTG[ ]	/* RoundUpToGrid */
MIAP[1]	/* MoveIndirectAbsPt */
ALIGNRP[ ]	/* AlignRelativePt */
RTG[ ]	/* RoundToGrid */
LOOPCALL[ ]	/* LoopAndCallFunction */
LOOPCALL[ ]	/* LoopAndCallFunction */
IUP[1]	/* InterpolateUntPts */
IUP[0]	/* InterpolateUntPts */";
};
width = 618;
},
{
anchors = (
{
name = bottom;
position = "{270, 0}";
},
{
name = ogonek;
position = "{483, 0}";
},
{
name = top;
position = "{410, 699}";
},
{
name = topleft;
position = "{113, 699}";
}
);
layerId = "2BD620B1-1E84-4C86-A446-E2CCA0F180F7";
paths = (
{
closed = 1;
nodes = (
"535 399 LINE",
"235 399 LINE",
"281 617 LINE",
"596 617 LINE",
"614 699 LINE",
"206 699 LINE",
"57 0 LINE",
"483 0 LINE",
"501 82 LINE",
"168 82 LINE",
"218 317 LINE",
"518 317 LINE"
);
}
);
userData = {
assembly = "NPUSHB[ ]	/* 52 values pushed */
8 7 16 1 5 11 0 16 1 9 2 1 16 1 3 3 4 10 9 1 4 3 1 2 0 6 5 0 14 9 8 1 0 6 3 4 1 4 3 2 1 7 6 1 11 10 1 5 4 1 4 0 
LOOPCALL[ ]	/* LoopAndCallFunction */
LOOPCALL[ ]	/* LoopAndCallFunction */
CALL[ ]	/* CallFunction */
RUTG[ ]	/* RoundUpToGrid */
MIAP[1]	/* MoveIndirectAbsPt */
ALIGNRP[ ]	/* AlignRelativePt */
RTG[ ]	/* RoundToGrid */
LOOPCALL[ ]	/* LoopAndCallFunction */
LOOPCALL[ ]	/* LoopAndCallFunction */
IUP[1]	/* InterpolateUntPts */
IUP[0]	/* InterpolateUntPts */";
};
width = 618;
}
);
note = E;
unicode = 0045;
},
{
glyphname = F;
lastChange = "2022-10-01 01:33:41 +0000";
layers = (
{
layerId = m01;
paths = (
{
closed = 1;
nodes = (
"504 399 LINE",
"214 399 LINE",
"214 617 LINE",
"552 617 LINE",
"552 699 LINE",
"121 699 LINE",
"121 0 LINE",
"214 0 LINE",
"214 317 LINE",
"504 317 LINE"
);
}
);
userData = {
assembly = "NPUSHB[ ]	/* 44 values pushed */
6 5 16 1 3 9 0 16 1 7 2 4 8 7 1 2 1 1 2 0 4 3 0 14 7 6 1 0 6 3 2 1 4 5 4 1 9 8 1 3 2 1 3 0 
LOOPCALL[ ]	/* LoopAndCallFunction */
LOOPCALL[ ]	/* LoopAndCallFunction */
CALL[ ]	/* CallFunction */
RUTG[ ]	/* RoundUpToGrid */
MIAP[1]	/* MoveIndirectAbsPt */
ALIGNRP[ ]	/* AlignRelativePt */
RTG[ ]	/* RoundToGrid */
LOOPCALL[ ]	/* LoopAndCallFunction */
LOOPCALL[ ]	/* LoopAndCallFunction */
IUP[1]	/* InterpolateUntPts */
IUP[0]	/* InterpolateUntPts */";
};
width = 618;
},
{
layerId = "2BD620B1-1E84-4C86-A446-E2CCA0F180F7";
paths = (
{
closed = 1;
nodes = (
"533 399 LINE",
"243 399 LINE",
"289 617 LINE",
"627 617 LINE",
"645 699 LINE",
"214 699 LINE",
"65 0 LINE",
"158 0 LINE",
"226 317 LINE",
"516 317 LINE"
);
}
);
userData = {
assembly = "NPUSHB[ ]	/* 44 values pushed */
6 5 16 1 3 9 0 16 1 7 2 4 8 7 1 2 1 1 2 0 4 3 0 14 7 6 1 0 6 3 2 1 4 5 4 1 9 8 1 3 2 1 3 0 
LOOPCALL[ ]	/* LoopAndCallFunction */
LOOPCALL[ ]	/* LoopAndCallFunction */
CALL[ ]	/* CallFunction */
RUTG[ ]	/* RoundUpToGrid */
MIAP[1]	/* MoveIndirectAbsPt */
ALIGNRP[ ]	/* AlignRelativePt */
RTG[ ]	/* RoundToGrid */
LOOPCALL[ ]	/* LoopAndCallFunction */
LOOPCALL[ ]	/* LoopAndCallFunction */
IUP[1]	/* InterpolateUntPts */
IUP[0]	/* InterpolateUntPts */";
};
width = 618;
}
);
note = F;
unicode = 0046;
},
{
glyphname = G;
lastChange = "2022-10-01 01:33:41 +0000";
layers = (
{
anchors = (
{
name = bottom;
position = "{315, 0}";
},
{
name = top;
position = "{325, 699}";
}
);
layerId = m01;
paths = (
{
closed = 1;
nodes = (
"325 288 LINE",
"484 288 LINE",
"484 268 LINE SMOOTH",
"484 153 OFFCURVE",
"433 64 OFFCURVE",
"317 64 CURVE SMOOTH",
"210 64 OFFCURVE",
"139 155 OFFCURVE",
"139 350 CURVE SMOOTH",
"139 523 OFFCURVE",
"202 633 OFFCURVE",
"325 633 CURVE SMOOTH",
"398 633 OFFCURVE",
"454 602 OFFCURVE",
"473 506 CURVE",
"568 506 LINE",
"538 654 OFFCURVE",
"447 715 OFFCURVE",
"325 715 CURVE SMOOTH",
"155 715 OFFCURVE",
"42 583 OFFCURVE",
"42 345 CURVE SMOOTH",
"42 115 OFFCURVE",
"148 -18 OFFCURVE",
"315 -18 CURVE SMOOTH",
"393 -18 OFFCURVE",
"456 17 OFFCURVE",
"490 96 CURVE",
"498 0 LINE",
"566 0 LINE",
"566 370 LINE",
"325 370 LINE"
);
}
);
userData = {
assembly = "NPUSHB[ ]	/* 60 values pushed */
36 34 5 24 34 15 15 0 5 2 1 40 3 2 41 2 3 0 42 41 16 1 0 1 4 20 19 1 43 0 1 2 1 1 3 0 14 30 31 11 41 40 20 19 3 2 6 0 42 3 11 42 1 0 1 43 42 1 2 0 
LOOPCALL[ ]	/* LoopAndCallFunction */
SRP0[ ]	/* SetRefPoint0 */
MDRP[00100]	/* MoveDirectRelPt */
CALL[ ]	/* CallFunction */
SRP0[ ]	/* SetRefPoint0 */
MIRP[01101]	/* MoveIndirectRelPt */
CALL[ ]	/* CallFunction */
LOOPCALL[ ]	/* LoopAndCallFunction */
LOOPCALL[ ]	/* LoopAndCallFunction */
SZP0[ ]	/* SetZonePointer0 */
CALL[ ]	/* CallFunction */
SZP0[ ]	/* SetZonePointer0 */
MIAP[1]	/* MoveIndirectAbsPt */
RUTG[ ]	/* RoundUpToGrid */
MIAP[1]	/* MoveIndirectAbsPt */
RTG[ ]	/* RoundToGrid */
SRP0[ ]	/* SetRefPoint0 */
MIRP[01101]	/* MoveIndirectRelPt */
SRP0[ ]	/* SetRefPoint0 */
MIRP[01101]	/* MoveIndirectRelPt */
IUP[1]	/* InterpolateUntPts */
IUP[0]	/* InterpolateUntPts */";
};
width = 618;
},
{
anchors = (
{
name = bottom;
position = "{253, 0}";
},
{
name = top;
position = "{402, 699}";
}
);
layerId = "2BD620B1-1E84-4C86-A446-E2CCA0F180F7";
paths = (
{
closed = 1;
nodes = (
"457 96 LINE",
"442 0 LINE",
"510 0 LINE",
"589 370 LINE",
"351 370 LINE",
"334 288 LINE",
"490 288 LINE",
"476 222 LINE SMOOTH",
"454 119 OFFCURVE",
"390 64 OFFCURVE",
"303 64 CURVE SMOOTH",
"209 64 OFFCURVE",
"153 125 OFFCURVE",
"153 250 CURVE SMOOTH",
"153 464 OFFCURVE",
"250 633 OFFCURVE",
"392 633 CURVE SMOOTH",
"483 633 OFFCURVE",
"518 582 OFFCURVE",
"524 496 CURVE",
"616 496 LINE",
"607 632 OFFCURVE",
"544 715 OFFCURVE",
"397 715 CURVE SMOOTH",
"194 715 OFFCURVE",
"58 517 OFFCURVE",
"58 247 CURVE SMOOTH",
"58 75 OFFCURVE",
"150 -18 OFFCURVE",
"281 -18 CURVE SMOOTH",
"377 -18 OFFCURVE",
"452 39 OFFCURVE",
"472 118 CURVE"
);
}
);
userData = {
assembly = "NPUSHB[ ]	/* 60 values pushed */
36 34 5 24 34 15 15 0 5 2 1 40 3 2 41 2 3 0 42 41 16 1 0 1 4 20 19 1 43 0 1 2 1 1 3 0 14 30 31 11 41 40 20 19 3 2 6 0 42 3 11 42 1 0 1 43 42 1 2 0 
LOOPCALL[ ]	/* LoopAndCallFunction */
SRP0[ ]	/* SetRefPoint0 */
MDRP[00100]	/* MoveDirectRelPt */
CALL[ ]	/* CallFunction */
SRP0[ ]	/* SetRefPoint0 */
MIRP[01101]	/* MoveIndirectRelPt */
CALL[ ]	/* CallFunction */
LOOPCALL[ ]	/* LoopAndCallFunction */
LOOPCALL[ ]	/* LoopAndCallFunction */
SZP0[ ]	/* SetZonePointer0 */
CALL[ ]	/* CallFunction */
SZP0[ ]	/* SetZonePointer0 */
MIAP[1]	/* MoveIndirectAbsPt */
RUTG[ ]	/* RoundUpToGrid */
MIAP[1]	/* MoveIndirectAbsPt */
RTG[ ]	/* RoundToGrid */
SRP0[ ]	/* SetRefPoint0 */
MIRP[01101]	/* MoveIndirectRelPt */
SRP0[ ]	/* SetRefPoint0 */
MIRP[01101]	/* MoveIndirectRelPt */
IUP[1]	/* InterpolateUntPts */
IUP[0]	/* InterpolateUntPts */";
};
width = 618;
}
);
note = G;
unicode = 0047;
},
{
glyphname = H;
lastChange = "2022-10-01 01:33:41 +0000";
layers = (
{
layerId = m01;
paths = (
{
closed = 1;
nodes = (
"540 0 LINE",
"540 699 LINE",
"447 699 LINE",
"447 399 LINE",
"172 399 LINE",
"172 699 LINE",
"79 699 LINE",
"79 0 LINE",
"172 0 LINE",
"172 317 LINE",
"447 317 LINE",
"447 0 LINE"
);
}
);
userData = {
assembly = "NPUSHB[ ]	/* 48 values pushed */
1 0 16 1 6 1 4 7 6 1 11 10 3 2 3 2 0 9 8 5 4 0 3 14 11 8 7 0 6 3 9 6 5 2 1 6 3 3 2 4 10 9 1 4 3 1 2 0 
LOOPCALL[ ]	/* LoopAndCallFunction */
LOOPCALL[ ]	/* LoopAndCallFunction */
CALL[ ]	/* CallFunction */
RUTG[ ]	/* RoundUpToGrid */
SLOOP[ ]	/* SetLoopVariable */
MIAP[1]	/* MoveIndirectAbsPt */
ALIGNRP[ ]	/* AlignRelativePt */
RTG[ ]	/* RoundToGrid */
LOOPCALL[ ]	/* LoopAndCallFunction */
LOOPCALL[ ]	/* LoopAndCallFunction */
IUP[1]	/* InterpolateUntPts */
IUP[0]	/* InterpolateUntPts */";
};
width = 618;
},
{
layerId = "2BD620B1-1E84-4C86-A446-E2CCA0F180F7";
paths = (
{
closed = 1;
nodes = (
"484 0 LINE",
"633 699 LINE",
"540 699 LINE",
"476 399 LINE",
"201 399 LINE",
"265 699 LINE",
"172 699 LINE",
"23 0 LINE",
"116 0 LINE",
"184 317 LINE",
"459 317 LINE",
"391 0 LINE"
);
}
);
userData = {
assembly = "NPUSHB[ ]	/* 48 values pushed */
1 0 16 1 6 1 4 7 6 1 11 10 3 2 3 2 0 9 8 5 4 0 3 14 11 8 7 0 6 3 9 6 5 2 1 6 3 3 2 4 10 9 1 4 3 1 2 0 
LOOPCALL[ ]	/* LoopAndCallFunction */
LOOPCALL[ ]	/* LoopAndCallFunction */
CALL[ ]	/* CallFunction */
RUTG[ ]	/* RoundUpToGrid */
SLOOP[ ]	/* SetLoopVariable */
MIAP[1]	/* MoveIndirectAbsPt */
ALIGNRP[ ]	/* AlignRelativePt */
RTG[ ]	/* RoundToGrid */
LOOPCALL[ ]	/* LoopAndCallFunction */
LOOPCALL[ ]	/* LoopAndCallFunction */
IUP[1]	/* InterpolateUntPts */
IUP[0]	/* InterpolateUntPts */";
};
width = 618;
}
);
note = H;
unicode = 0048;
},
{
glyphname = Hbar;
lastChange = "2022-10-01 01:33:41 +0000";
layers = (
{
components = (
{
name = H;
}
);
layerId = m01;
paths = (
{
closed = 1;
nodes = (
"610 589 LINE",
"9 589 LINE",
"9 517 LINE",
"610 517 LINE"
);
}
);
userData = {
assembly = "NPUSHB[ ]	/* 81 values pushed */
23 20 13 12 1 0 9 5 2 17 16 16 1 21 2 4 11 10 7 6 3 2 5 22 21 1 19 18 15 14 3 3 0 9 8 5 4 0 3 14 23 22 16 15 8 7 6 5 9 18 17 6 1 0 21 20 6 5 6 3 0 3 4 12 11 1 14 13 10 9 3 19 4 3 0 3 2 1 1 4 0 
LOOPCALL[ ]	/* LoopAndCallFunction */
LOOPCALL[ ]	/* LoopAndCallFunction */
CALL[ ]	/* CallFunction */
RUTG[ ]	/* RoundUpToGrid */
SLOOP[ ]	/* SetLoopVariable */
MIAP[1]	/* MoveIndirectAbsPt */
ALIGNRP[ ]	/* AlignRelativePt */
RTG[ ]	/* RoundToGrid */
LOOPCALL[ ]	/* LoopAndCallFunction */
LOOPCALL[ ]	/* LoopAndCallFunction */
IUP[1]	/* InterpolateUntPts */
IUP[0]	/* InterpolateUntPts */";
};
width = 618;
},
{
components = (
{
name = H;
}
);
layerId = "2BD620B1-1E84-4C86-A446-E2CCA0F180F7";
paths = (
{
closed = 1;
nodes = (
"680 589 LINE",
"79 589 LINE",
"63 517 LINE",
"664 517 LINE"
);
}
);
userData = {
assembly = "NPUSHB[ ]	/* 81 values pushed */
23 20 13 12 1 0 9 5 2 17 16 16 1 21 2 4 11 10 7 6 3 2 5 22 21 1 19 18 15 14 3 3 0 9 8 5 4 0 3 14 23 22 16 15 8 7 6 5 9 18 17 6 1 0 21 20 6 5 6 3 0 3 4 12 11 1 14 13 10 9 3 19 4 3 0 3 2 1 1 4 0 
LOOPCALL[ ]	/* LoopAndCallFunction */
LOOPCALL[ ]	/* LoopAndCallFunction */
CALL[ ]	/* CallFunction */
RUTG[ ]	/* RoundUpToGrid */
SLOOP[ ]	/* SetLoopVariable */
MIAP[1]	/* MoveIndirectAbsPt */
ALIGNRP[ ]	/* AlignRelativePt */
RTG[ ]	/* RoundToGrid */
LOOPCALL[ ]	/* LoopAndCallFunction */
LOOPCALL[ ]	/* LoopAndCallFunction */
IUP[1]	/* InterpolateUntPts */
IUP[0]	/* InterpolateUntPts */";
};
width = 618;
}
);
note = Hbar;
unicode = 0126;
},
{
glyphname = I;
lastChange = "2022-10-01 01:33:41 +0000";
layers = (
{
anchors = (
{
name = bottom;
position = "{309, 0}";
},
{
name = ogonek;
position = "{383, 0}";
},
{
name = top;
position = "{309, 699}";
},
{
name = topleft;
position = "{20, 699}";
}
);
layerId = m01;
paths = (
{
closed = 1;
nodes = (
"505 0 LINE",
"505 78 LINE",
"356 78 LINE",
"356 621 LINE",
"505 621 LINE",
"505 699 LINE",
"114 699 LINE",
"114 621 LINE",
"262 621 LINE",
"262 78 LINE",
"114 78 LINE",
"114 0 LINE"
);
}
);
userData = {
assembly = "NPUSHB[ ]	/* 19 values pushed */
2 1 1 0 3 0 0 14 1 0 6 1 2 1 4 3 2 1 0 
CALL[ ]	/* CallFunction */
LOOPCALL[ ]	/* LoopAndCallFunction */
CALL[ ]	/* CallFunction */
RUTG[ ]	/* RoundUpToGrid */
MIAP[1]	/* MoveIndirectAbsPt */
ALIGNRP[ ]	/* AlignRelativePt */
RTG[ ]	/* RoundToGrid */
CALL[ ]	/* CallFunction */
IUP[1]	/* InterpolateUntPts */
IUP[0]	/* InterpolateUntPts */";
};
width = 618;
},
{
anchors = (
{
name = bottom;
position = "{253, 0}";
},
{
name = ogonek;
position = "{327, 0}";
},
{
name = top;
position = "{402, 699}";
},
{
name = topleft;
position = "{113, 699}";
}
);
layerId = "2BD620B1-1E84-4C86-A446-E2CCA0F180F7";
paths = (
{
closed = 1;
nodes = (
"449 0 LINE",
"466 78 LINE",
"317 78 LINE",
"432 621 LINE",
"581 621 LINE",
"598 699 LINE",
"207 699 LINE",
"190 621 LINE",
"338 621 LINE",
"223 78 LINE",
"75 78 LINE",
"58 0 LINE"
);
}
);
userData = {
assembly = "NPUSHB[ ]	/* 19 values pushed */
2 1 1 0 3 0 0 14 1 0 6 1 2 1 4 3 2 1 0 
CALL[ ]	/* CallFunction */
LOOPCALL[ ]	/* LoopAndCallFunction */
CALL[ ]	/* CallFunction */
RUTG[ ]	/* RoundUpToGrid */
MIAP[1]	/* MoveIndirectAbsPt */
ALIGNRP[ ]	/* AlignRelativePt */
RTG[ ]	/* RoundToGrid */
CALL[ ]	/* CallFunction */
IUP[1]	/* InterpolateUntPts */
IUP[0]	/* InterpolateUntPts */";
};
width = 618;
}
);
note = I;
unicode = 0049;
},
{
glyphname = IJ;
lastChange = "2022-10-01 01:33:41 +0000";
layers = (
{
guideLines = (
{
angle = 90;
position = "{79, 246}";
}
);
layerId = m01;
paths = (
{
closed = 1;
nodes = (
"440 124 OFFCURVE",
"414 60 OFFCURVE",
"308 60 CURVE SMOOTH",
"218 60 OFFCURVE",
"179 112 OFFCURVE",
"179 188 CURVE SMOOTH",
"179 226 LINE",
"84 226 LINE",
"84 171 LINE SMOOTH",
"84 49 OFFCURVE",
"173 -18 OFFCURVE",
"307 -18 CURVE SMOOTH",
"443 -18 OFFCURVE",
"533 55 OFFCURVE",
"533 183 CURVE SMOOTH",
"533 699 LINE",
"440 699 LINE",
"440 216 LINE SMOOTH"
);
},
{
closed = 1;
nodes = (
"179 337 LINE",
"179 699 LINE",
"84 699 LINE",
"84 337 LINE"
);
}
);
userData = {
assembly = "NPUSHB[ ]	/* 56 values pushed */
21 13 10 10 2 25 17 14 6 4 15 1 3 16 15 1 2 1 1 2 0 5 4 3 0 0 3 14 25 4 6 1 5 17 16 6 1 14 1 0 6 1 2 3 4 6 5 1 15 14 1 3 2 1 3 0 
LOOPCALL[ ]	/* LoopAndCallFunction */
LOOPCALL[ ]	/* LoopAndCallFunction */
CALL[ ]	/* CallFunction */
RUTG[ ]	/* RoundUpToGrid */
SLOOP[ ]	/* SetLoopVariable */
MIAP[1]	/* MoveIndirectAbsPt */
ALIGNRP[ ]	/* AlignRelativePt */
RTG[ ]	/* RoundToGrid */
LOOPCALL[ ]	/* LoopAndCallFunction */
CALL[ ]	/* CallFunction */
MIAP[1]	/* MoveIndirectAbsPt */
SRP0[ ]	/* SetRefPoint0 */
MIRP[01101]	/* MoveIndirectRelPt */
IUP[1]	/* InterpolateUntPts */
IUP[0]	/* InterpolateUntPts */";
};
width = 618;
},
{
layerId = "2BD620B1-1E84-4C86-A446-E2CCA0F180F7";
paths = (
{
closed = 1;
nodes = (
"411 -18 OFFCURVE",
"490 55 OFFCURVE",
"518 184 CURVE SMOOTH",
"627 699 LINE",
"534 699 LINE",
"430 208 LINE SMOOTH",
"408 106 OFFCURVE",
"368 60 OFFCURVE",
"283 60 CURVE SMOOTH",
"193 60 OFFCURVE",
"149 121 OFFCURVE",
"169 209 CURVE SMOOTH",
"173 226 LINE",
"77 226 LINE",
"39 61 OFFCURVE",
"140 -18 OFFCURVE",
"283 -18 CURVE SMOOTH"
);
},
{
closed = 1;
nodes = (
"193 335 LINE",
"271 699 LINE",
"178 699 LINE",
"100 335 LINE"
);
}
);
userData = {
assembly = "NPUSHB[ ]	/* 56 values pushed */
21 13 10 10 2 25 17 14 6 4 15 1 3 16 15 1 2 1 1 2 0 5 4 3 0 0 3 14 25 4 6 1 5 17 16 6 1 14 1 0 6 1 2 3 4 6 5 1 15 14 1 3 2 1 3 0 
LOOPCALL[ ]	/* LoopAndCallFunction */
LOOPCALL[ ]	/* LoopAndCallFunction */
CALL[ ]	/* CallFunction */
RUTG[ ]	/* RoundUpToGrid */
SLOOP[ ]	/* SetLoopVariable */
MIAP[1]	/* MoveIndirectAbsPt */
ALIGNRP[ ]	/* AlignRelativePt */
RTG[ ]	/* RoundToGrid */
LOOPCALL[ ]	/* LoopAndCallFunction */
CALL[ ]	/* CallFunction */
MIAP[1]	/* MoveIndirectAbsPt */
SRP0[ ]	/* SetRefPoint0 */
MIRP[01101]	/* MoveIndirectRelPt */
IUP[1]	/* InterpolateUntPts */
IUP[0]	/* InterpolateUntPts */";
};
width = 618;
}
);
note = IJ;
unicode = 0132;
},
{
glyphname = J;
lastChange = "2022-10-01 01:33:41 +0000";
layers = (
{
layerId = m01;
paths = (
{
closed = 1;
nodes = (
"435 124 OFFCURVE",
"409 60 OFFCURVE",
"303 60 CURVE SMOOTH",
"213 60 OFFCURVE",
"174 112 OFFCURVE",
"174 188 CURVE SMOOTH",
"174 246 LINE",
"79 246 LINE",
"79 171 LINE SMOOTH",
"79 49 OFFCURVE",
"168 -18 OFFCURVE",
"302 -18 CURVE SMOOTH",
"438 -18 OFFCURVE",
"528 55 OFFCURVE",
"528 183 CURVE SMOOTH",
"528 699 LINE",
"435 699 LINE",
"435 216 LINE SMOOTH"
);
}
);
userData = {
assembly = "NPUSHB[ ]	/* 43 values pushed */
17 13 6 6 2 1 21 13 10 2 4 11 2 3 0 12 11 1 0 1 0 0 14 21 0 6 1 1 13 12 6 1 10 2 4 2 1 1 11 10 1 2 0 
LOOPCALL[ ]	/* LoopAndCallFunction */
LOOPCALL[ ]	/* LoopAndCallFunction */
CALL[ ]	/* CallFunction */
RUTG[ ]	/* RoundUpToGrid */
MIAP[1]	/* MoveIndirectAbsPt */
ALIGNRP[ ]	/* AlignRelativePt */
RTG[ ]	/* RoundToGrid */
CALL[ ]	/* CallFunction */
SZP0[ ]	/* SetZonePointer0 */
CALL[ ]	/* CallFunction */
SZP0[ ]	/* SetZonePointer0 */
MIAP[1]	/* MoveIndirectAbsPt */
SRP0[ ]	/* SetRefPoint0 */
MIRP[01101]	/* MoveIndirectRelPt */
IUP[1]	/* InterpolateUntPts */
IUP[0]	/* InterpolateUntPts */";
};
width = 618;
},
{
layerId = "2BD620B1-1E84-4C86-A446-E2CCA0F180F7";
paths = (
{
closed = 1;
nodes = (
"402 106 OFFCURVE",
"362 60 OFFCURVE",
"277 60 CURVE SMOOTH",
"187 60 OFFCURVE",
"144 121 OFFCURVE",
"163 209 CURVE SMOOTH",
"171 246 LINE",
"76 246 LINE",
"72 229 LINE SMOOTH",
"34 62 OFFCURVE",
"133 -18 OFFCURVE",
"277 -18 CURVE SMOOTH",
"405 -18 OFFCURVE",
"485 55 OFFCURVE",
"512 184 CURVE SMOOTH",
"621 699 LINE",
"528 699 LINE",
"424 208 LINE SMOOTH"
);
}
);
userData = {
assembly = "NPUSHB[ ]	/* 43 values pushed */
17 13 6 6 2 1 21 13 10 2 4 11 2 3 0 12 11 1 0 1 0 0 14 21 0 6 1 1 13 12 6 1 10 2 4 2 1 1 11 10 1 2 0 
LOOPCALL[ ]	/* LoopAndCallFunction */
LOOPCALL[ ]	/* LoopAndCallFunction */
CALL[ ]	/* CallFunction */
RUTG[ ]	/* RoundUpToGrid */
MIAP[1]	/* MoveIndirectAbsPt */
ALIGNRP[ ]	/* AlignRelativePt */
RTG[ ]	/* RoundToGrid */
CALL[ ]	/* CallFunction */
SZP0[ ]	/* SetZonePointer0 */
CALL[ ]	/* CallFunction */
SZP0[ ]	/* SetZonePointer0 */
MIAP[1]	/* MoveIndirectAbsPt */
SRP0[ ]	/* SetRefPoint0 */
MIRP[01101]	/* MoveIndirectRelPt */
IUP[1]	/* InterpolateUntPts */
IUP[0]	/* InterpolateUntPts */";
};
width = 618;
}
);
note = J;
unicode = 004A;
},
{
glyphname = K;
lastChange = "2022-10-01 01:33:41 +0000";
layers = (
{
anchors = (
{
name = bottom;
position = "{341, 0}";
},
{
name = top;
position = "{309, 699}";
}
);
layerId = m01;
paths = (
{
closed = 1;
nodes = (
"192 699 LINE",
"99 699 LINE",
"99 0 LINE",
"192 0 LINE"
);
},
{
closed = 1;
nodes = (
"256 369 LINE",
"497 0 LINE",
"608 0 LINE",
"325 427 LINE"
);
},
{
closed = 1;
nodes = (
"180 246 LINE",
"285 362 LINE",
"312 390 LINE",
"588 699 LINE",
"473 699 LINE",
"174 361 LINE"
);
}
);
userData = {
assembly = "NPUSHB[ ]	/* 43 values pushed */
11 8 5 0 4 3 1 3 10 9 2 1 3 0 7 6 4 3 0 3 14 11 10 9 8 7 6 6 13 0 5 4 1 0 6 3 2 1 4 3 2 1 0 
CALL[ ]	/* CallFunction */
LOOPCALL[ ]	/* LoopAndCallFunction */
SRP0[ ]	/* SetRefPoint0 */
LOOPCALL[ ]	/* LoopAndCallFunction */
CALL[ ]	/* CallFunction */
RUTG[ ]	/* RoundUpToGrid */
SLOOP[ ]	/* SetLoopVariable */
MIAP[1]	/* MoveIndirectAbsPt */
ALIGNRP[ ]	/* AlignRelativePt */
RTG[ ]	/* RoundToGrid */
CALL[ ]	/* CallFunction */
CALL[ ]	/* CallFunction */
IUP[1]	/* InterpolateUntPts */
IUP[0]	/* InterpolateUntPts */";
};
width = 618;
},
{
anchors = (
{
name = bottom;
position = "{285, 0}";
},
{
name = top;
position = "{402, 699}";
}
);
layerId = "2BD620B1-1E84-4C86-A446-E2CCA0F180F7";
paths = (
{
closed = 1;
nodes = (
"285 699 LINE",
"192 699 LINE",
"43 0 LINE",
"136 0 LINE"
);
},
{
closed = 1;
nodes = (
"279 369 LINE",
"451 0 LINE",
"552 0 LINE",
"348 427 LINE"
);
},
{
closed = 1;
nodes = (
"174 238 LINE",
"315 369 LINE",
"349 392 LINE",
"681 699 LINE",
"562 699 LINE",
"191 361 LINE"
);
}
);
userData = {
assembly = "NPUSHB[ ]	/* 43 values pushed */
11 8 5 0 4 3 1 3 10 9 2 1 3 0 7 6 4 3 0 3 14 11 10 9 8 7 6 6 13 0 5 4 1 0 6 3 2 1 4 3 2 1 0 
CALL[ ]	/* CallFunction */
LOOPCALL[ ]	/* LoopAndCallFunction */
SRP0[ ]	/* SetRefPoint0 */
LOOPCALL[ ]	/* LoopAndCallFunction */
CALL[ ]	/* CallFunction */
RUTG[ ]	/* RoundUpToGrid */
SLOOP[ ]	/* SetLoopVariable */
MIAP[1]	/* MoveIndirectAbsPt */
ALIGNRP[ ]	/* AlignRelativePt */
RTG[ ]	/* RoundToGrid */
CALL[ ]	/* CallFunction */
CALL[ ]	/* CallFunction */
IUP[1]	/* InterpolateUntPts */
IUP[0]	/* InterpolateUntPts */";
};
width = 618;
}
);
note = K;
unicode = 004B;
},
{
glyphname = L;
lastChange = "2022-10-01 01:33:41 +0000";
layers = (
{
anchors = (
{
name = bottom;
position = "{347, 0}";
},
{
name = center;
position = "{309, 350}";
},
{
name = top;
position = "{171, 699}";
},
{
name = topright;
position = "{428, 699}";
}
);
layerId = m01;
paths = (
{
closed = 1;
nodes = (
"124 0 LINE",
"550 0 LINE",
"550 82 LINE",
"217 82 LINE",
"217 699 LINE",
"124 699 LINE"
);
}
);
userData = {
assembly = "NPUSHB[ ]	/* 30 values pushed */
2 1 16 1 3 1 4 4 3 1 0 5 0 0 14 1 0 6 1 4 1 4 3 2 1 5 4 1 2 0 
LOOPCALL[ ]	/* LoopAndCallFunction */
LOOPCALL[ ]	/* LoopAndCallFunction */
CALL[ ]	/* CallFunction */
RUTG[ ]	/* RoundUpToGrid */
MIAP[1]	/* MoveIndirectAbsPt */
ALIGNRP[ ]	/* AlignRelativePt */
RTG[ ]	/* RoundToGrid */
CALL[ ]	/* CallFunction */
LOOPCALL[ ]	/* LoopAndCallFunction */
IUP[1]	/* InterpolateUntPts */
IUP[0]	/* InterpolateUntPts */";
};
width = 618;
},
{
anchors = (
{
name = bottom;
position = "{291, 0}";
},
{
name = center;
position = "{328, 350}";
},
{
name = top;
position = "{264, 699}";
},
{
name = topright;
position = "{521, 699}";
}
);
layerId = "2BD620B1-1E84-4C86-A446-E2CCA0F180F7";
paths = (
{
closed = 1;
nodes = (
"68 0 LINE",
"494 0 LINE",
"512 82 LINE",
"179 82 LINE",
"310 699 LINE",
"217 699 LINE"
);
}
);
userData = {
assembly = "NPUSHB[ ]	/* 30 values pushed */
2 1 16 1 3 1 4 4 3 1 0 5 0 0 14 1 0 6 1 4 1 4 3 2 1 5 4 1 2 0 
LOOPCALL[ ]	/* LoopAndCallFunction */
LOOPCALL[ ]	/* LoopAndCallFunction */
CALL[ ]	/* CallFunction */
RUTG[ ]	/* RoundUpToGrid */
MIAP[1]	/* MoveIndirectAbsPt */
ALIGNRP[ ]	/* AlignRelativePt */
RTG[ ]	/* RoundToGrid */
CALL[ ]	/* CallFunction */
LOOPCALL[ ]	/* LoopAndCallFunction */
IUP[1]	/* InterpolateUntPts */
IUP[0]	/* InterpolateUntPts */";
};
width = 618;
}
);
note = L;
unicode = 004C;
},
{
glyphname = Lslash;
lastChange = "2022-10-01 01:33:41 +0000";
layers = (
{
components = (
{
alignment = -1;
name = L;
transform = "{1, 0, 0, 1, 9, 0}";
}
);
layerId = m01;
paths = (
{
closed = 1;
nodes = (
"397 431 LINE",
"397 507 LINE",
"53 280 LINE",
"53 203 LINE"
);
}
);
userData = {
assembly = "NPUSHB[ ]	/* 52 values pushed */
11 10 9 8 3 2 1 0 8 12 4 3 5 4 16 1 6 1 4 7 6 1 0 13 12 0 14 13 4 3 0 6 3 7 1 4 6 5 1 2 1 1 12 11 8 7 3 10 9 1 4 0 
LOOPCALL[ ]	/* LoopAndCallFunction */
LOOPCALL[ ]	/* LoopAndCallFunction */
CALL[ ]	/* CallFunction */
RUTG[ ]	/* RoundUpToGrid */
MIAP[1]	/* MoveIndirectAbsPt */
ALIGNRP[ ]	/* AlignRelativePt */
RTG[ ]	/* RoundToGrid */
CALL[ ]	/* CallFunction */
LOOPCALL[ ]	/* LoopAndCallFunction */
CALL[ ]	/* CallFunction */
IUP[1]	/* InterpolateUntPts */
IUP[0]	/* InterpolateUntPts */";
};
width = 618;
},
{
components = (
{
alignment = -1;
name = L;
transform = "{1, 0, 0, 1, 9, 0}";
}
);
layerId = "2BD620B1-1E84-4C86-A446-E2CCA0F180F7";
paths = (
{
closed = 1;
nodes = (
"431 425 LINE",
"449 508 LINE",
"58 285 LINE",
"40 202 LINE"
);
}
);
userData = {
assembly = "NPUSHB[ ]	/* 52 values pushed */
11 10 9 8 3 2 1 0 8 12 4 3 5 4 16 1 6 1 4 7 6 1 0 13 12 0 14 13 4 3 0 6 3 7 1 4 6 5 1 2 1 1 12 11 8 7 3 10 9 1 4 0 
LOOPCALL[ ]	/* LoopAndCallFunction */
LOOPCALL[ ]	/* LoopAndCallFunction */
CALL[ ]	/* CallFunction */
RUTG[ ]	/* RoundUpToGrid */
MIAP[1]	/* MoveIndirectAbsPt */
ALIGNRP[ ]	/* AlignRelativePt */
RTG[ ]	/* RoundToGrid */
CALL[ ]	/* CallFunction */
LOOPCALL[ ]	/* LoopAndCallFunction */
CALL[ ]	/* CallFunction */
IUP[1]	/* InterpolateUntPts */
IUP[0]	/* InterpolateUntPts */";
};
width = 618;
}
);
note = Lslash;
unicode = 0141;
},
{
glyphname = M;
lastChange = "2022-10-01 01:33:41 +0000";
layers = (
{
layerId = m01;
paths = (
{
closed = 1;
nodes = (
"475 0 LINE",
"554 0 LINE",
"554 699 LINE",
"452 699 LINE",
"288 233 LINE",
"333 233 LINE",
"168 699 LINE",
"64 699 LINE",
"64 0 LINE",
"143 0 LINE",
"143 663 LINE",
"104 661 LINE",
"271 200 LINE",
"349 200 LINE",
"514 663 LINE",
"475 665 LINE"
);
}
);
userData = {
assembly = "NPUSHB[ ]	/* 51 values pushed */
12 7 2 3 5 0 3 11 10 4 3 1 0 5 0 9 8 6 5 0 3 14 8 7 6 1 0 5 11 2 3 12 11 12 1 9 3 2 12 1 4 2 4 10 9 1 5 4 1 2 0 
LOOPCALL[ ]	/* LoopAndCallFunction */
LOOPCALL[ ]	/* LoopAndCallFunction */
CALL[ ]	/* CallFunction */
CALL[ ]	/* CallFunction */
RUTG[ ]	/* RoundUpToGrid */
SLOOP[ ]	/* SetLoopVariable */
MIAP[1]	/* MoveIndirectAbsPt */
ALIGNRP[ ]	/* AlignRelativePt */
RTG[ ]	/* RoundToGrid */
CALL[ ]	/* CallFunction */
CALL[ ]	/* CallFunction */
IUP[1]	/* InterpolateUntPts */
IUP[0]	/* InterpolateUntPts */";
};
width = 618;
},
{
layerId = "2BD620B1-1E84-4C86-A446-E2CCA0F180F7";
paths = (
{
closed = 1;
nodes = (
"419 0 LINE",
"498 0 LINE",
"647 699 LINE",
"545 699 LINE",
"278 233 LINE",
"322 233 LINE",
"261 699 LINE",
"157 699 LINE",
"8 0 LINE",
"87 0 LINE",
"228 663 LINE",
"193 661 LINE",
"258 200 LINE",
"336 200 LINE",
"605 663 LINE",
"561 665 LINE"
);
}
);
userData = {
assembly = "NPUSHB[ ]	/* 51 values pushed */
12 7 2 3 5 0 3 11 10 4 3 1 0 5 0 9 8 6 5 0 3 14 8 7 6 1 0 5 11 2 3 12 11 12 1 9 3 2 12 1 4 2 4 10 9 1 5 4 1 2 0 
LOOPCALL[ ]	/* LoopAndCallFunction */
LOOPCALL[ ]	/* LoopAndCallFunction */
CALL[ ]	/* CallFunction */
CALL[ ]	/* CallFunction */
RUTG[ ]	/* RoundUpToGrid */
SLOOP[ ]	/* SetLoopVariable */
MIAP[1]	/* MoveIndirectAbsPt */
ALIGNRP[ ]	/* AlignRelativePt */
RTG[ ]	/* RoundToGrid */
CALL[ ]	/* CallFunction */
CALL[ ]	/* CallFunction */
IUP[1]	/* InterpolateUntPts */
IUP[0]	/* InterpolateUntPts */";
};
width = 618;
}
);
note = M;
unicode = 004D;
},
{
glyphname = N;
lastChange = "2022-10-01 01:33:41 +0000";
layers = (
{
anchors = (
{
name = bottom;
position = "{309, 0}";
},
{
name = top;
position = "{309, 699}";
}
);
layerId = m01;
paths = (
{
closed = 1;
nodes = (
"456 135 LINE",
"455 135 LINE",
"177 699 LINE",
"76 699 LINE",
"76 0 LINE",
"162 0 LINE",
"162 559 LINE",
"163 559 LINE",
"438 0 LINE",
"542 0 LINE",
"542 699 LINE",
"456 699 LINE"
);
}
);
userData = {
assembly = "NPUSHB[ ]	/* 45 values pushed */
8 3 2 0 1 3 5 4 2 1 3 0 9 7 6 0 0 3 14 7 2 2 8 3 3 9 8 12 1 0 4 3 12 1 5 2 4 1 0 1 6 5 1 2 0 
LOOPCALL[ ]	/* LoopAndCallFunction */
LOOPCALL[ ]	/* LoopAndCallFunction */
CALL[ ]	/* CallFunction */
CALL[ ]	/* CallFunction */
RUTG[ ]	/* RoundUpToGrid */
SLOOP[ ]	/* SetLoopVariable */
MIAP[1]	/* MoveIndirectAbsPt */
ALIGNRP[ ]	/* AlignRelativePt */
RTG[ ]	/* RoundToGrid */
CALL[ ]	/* CallFunction */
CALL[ ]	/* CallFunction */
IUP[1]	/* InterpolateUntPts */
IUP[0]	/* InterpolateUntPts */";
};
width = 618;
},
{
anchors = (
{
name = bottom;
position = "{253, 0}";
},
{
name = top;
position = "{402, 699}";
}
);
layerId = "2BD620B1-1E84-4C86-A446-E2CCA0F180F7";
paths = (
{
closed = 1;
nodes = (
"425 114 LINE",
"424 114 LINE",
"274 699 LINE",
"169 699 LINE",
"20 0 LINE",
"106 0 LINE",
"229 581 LINE",
"230 581 LINE",
"378 0 LINE",
"486 0 LINE",
"635 699 LINE",
"549 699 LINE"
);
}
);
userData = {
assembly = "NPUSHB[ ]	/* 45 values pushed */
8 3 2 0 1 3 5 4 2 1 3 0 9 7 6 0 0 3 14 7 2 2 8 3 3 9 8 12 1 0 4 3 12 1 5 2 4 1 0 1 6 5 1 2 0 
LOOPCALL[ ]	/* LoopAndCallFunction */
LOOPCALL[ ]	/* LoopAndCallFunction */
CALL[ ]	/* CallFunction */
CALL[ ]	/* CallFunction */
RUTG[ ]	/* RoundUpToGrid */
SLOOP[ ]	/* SetLoopVariable */
MIAP[1]	/* MoveIndirectAbsPt */
ALIGNRP[ ]	/* AlignRelativePt */
RTG[ ]	/* RoundToGrid */
CALL[ ]	/* CallFunction */
CALL[ ]	/* CallFunction */
IUP[1]	/* InterpolateUntPts */
IUP[0]	/* InterpolateUntPts */";
};
width = 618;
}
);
note = N;
unicode = 004E;
},
{
glyphname = Eng;
lastChange = "2022-10-01 01:33:41 +0000";
layers = (
{
layerId = m01;
paths = (
{
closed = 1;
nodes = (
"362 -218 LINE SMOOTH",
"479 -218 OFFCURVE",
"542 -163 OFFCURVE",
"542 -59 CURVE SMOOTH",
"542 699 LINE",
"460 699 LINE",
"460 127 LINE",
"478 132 LINE",
"176 699 LINE",
"76 699 LINE",
"76 0 LINE",
"158 0 LINE",
"158 603 LINE",
"143 598 LINE",
"480 -35 LINE",
"460 44 LINE",
"460 -35 LINE SMOOTH",
"460 -111 OFFCURVE",
"434 -144 OFFCURVE",
"359 -144 CURVE SMOOTH",
"335 -144 LINE",
"335 -218 LINE"
);
}
);
userData = {
assembly = "NPUSHB[ ]	/* 61 values pushed */
14 34 27 3 19 36 27 0 31 23 18 9 4 21 19 3 32 8 1 0 4 13 36 19 22 21 1 20 19 1 2 0 14 9 8 6 1 31 19 18 6 1 20 23 22 11 1 20 3 4 32 31 1 1 0 1 21 20 1 3 0 
LOOPCALL[ ]	/* LoopAndCallFunction */
LOOPCALL[ ]	/* LoopAndCallFunction */
CALL[ ]	/* CallFunction */
LOOPCALL[ ]	/* LoopAndCallFunction */
SRP0[ ]	/* SetRefPoint0 */
MDRP[00100]	/* MoveDirectRelPt */
LOOPCALL[ ]	/* LoopAndCallFunction */
CALL[ ]	/* CallFunction */
RUTG[ ]	/* RoundUpToGrid */
MIAP[1]	/* MoveIndirectAbsPt */
RTG[ ]	/* RoundToGrid */
SRP0[ ]	/* SetRefPoint0 */
MIRP[01101]	/* MoveIndirectRelPt */
SRP0[ ]	/* SetRefPoint0 */
MIRP[01101]	/* MoveIndirectRelPt */
IUP[1]	/* InterpolateUntPts */
IUP[0]	/* InterpolateUntPts */";
};
width = 618;
},
{
layerId = "2BD620B1-1E84-4C86-A446-E2CCA0F180F7";
paths = (
{
closed = 1;
nodes = (
"386 -218 OFFCURVE",
"450 -169 OFFCURVE",
"469 -79 CURVE SMOOTH",
"635 699 LINE",
"507 699 LINE",
"562 740 LINE",
"430 118 LINE",
"449 119 LINE",
"272 699 LINE",
"169 699 LINE",
"20 0 LINE",
"102 0 LINE",
"234 624 LINE",
"217 623 LINE",
"418 -36 LINE",
"414 45 LINE",
"392 -57 LINE SMOOTH",
"380 -115 OFFCURVE",
"344 -144 OFFCURVE",
"287 -144 CURVE SMOOTH",
"249 -144 LINE",
"234 -217 LINE",
"244 -218 OFFCURVE",
"261 -218 OFFCURVE",
"290 -218 CURVE SMOOTH"
);
}
);
userData = {
assembly = "NPUSHB[ ]	/* 61 values pushed */
14 34 27 3 19 36 27 0 31 23 18 9 4 21 19 3 32 8 1 0 4 13 36 19 22 21 1 20 19 1 2 0 14 9 8 6 1 31 19 18 6 1 20 23 22 11 1 20 3 4 32 31 1 1 0 1 21 20 1 3 0 
LOOPCALL[ ]	/* LoopAndCallFunction */
LOOPCALL[ ]	/* LoopAndCallFunction */
CALL[ ]	/* CallFunction */
LOOPCALL[ ]	/* LoopAndCallFunction */
SRP0[ ]	/* SetRefPoint0 */
MDRP[00100]	/* MoveDirectRelPt */
LOOPCALL[ ]	/* LoopAndCallFunction */
CALL[ ]	/* CallFunction */
RUTG[ ]	/* RoundUpToGrid */
MIAP[1]	/* MoveIndirectAbsPt */
RTG[ ]	/* RoundToGrid */
SRP0[ ]	/* SetRefPoint0 */
MIRP[01101]	/* MoveIndirectRelPt */
SRP0[ ]	/* SetRefPoint0 */
MIRP[01101]	/* MoveIndirectRelPt */
IUP[1]	/* InterpolateUntPts */
IUP[0]	/* InterpolateUntPts */";
};
width = 618;
}
);
note = Eng;
unicode = 014A;
},
{
glyphname = O;
lastChange = "2022-10-01 01:33:41 +0000";
layers = (
{
anchors = (
{
name = bottom;
position = "{309, 0}";
},
{
name = center;
position = "{309, 350}";
},
{
name = ogonek;
position = "{409, 0}";
},
{
name = top;
position = "{309, 699}";
},
{
name = topleft;
position = "{20, 699}";
},
{
name = topright;
position = "{598, 699}";
}
);
layerId = m01;
paths = (
{
closed = 1;
nodes = (
"137 715 OFFCURVE",
"37 580 OFFCURVE",
"37 348 CURVE SMOOTH",
"37 116 OFFCURVE",
"137 -18 OFFCURVE",
"309 -18 CURVE SMOOTH",
"481 -18 OFFCURVE",
"581 116 OFFCURVE",
"581 348 CURVE SMOOTH",
"581 580 OFFCURVE",
"481 715 OFFCURVE",
"309 715 CURVE SMOOTH"
);
},
{
closed = 1;
nodes = (
"419 633 OFFCURVE",
"484 527 OFFCURVE",
"484 348 CURVE SMOOTH",
"484 170 OFFCURVE",
"419 64 OFFCURVE",
"309 64 CURVE SMOOTH",
"199 64 OFFCURVE",
"134 170 OFFCURVE",
"134 348 CURVE SMOOTH",
"134 527 OFFCURVE",
"199 633 OFFCURVE",
"309 633 CURVE SMOOTH"
);
}
);
userData = {
assembly = "NPUSHB[ ]	/* 19 values pushed */
36 34 12 24 34 0 12 2 0 0 14 42 31 6 30 31 18 18 6 
MDAP[1]	/* MoveDirectAbsPt */
MDAP[1]	/* MoveDirectAbsPt */
SRP0[ ]	/* SetRefPoint0 */
MIRP[01101]	/* MoveIndirectRelPt */
SRP0[ ]	/* SetRefPoint0 */
MIRP[01101]	/* MoveIndirectRelPt */
CALL[ ]	/* CallFunction */
RUTG[ ]	/* RoundUpToGrid */
MIAP[1]	/* MoveIndirectAbsPt */
RTG[ ]	/* RoundToGrid */
MIAP[1]	/* MoveIndirectAbsPt */
SRP0[ ]	/* SetRefPoint0 */
MIRP[01101]	/* MoveIndirectRelPt */
SRP0[ ]	/* SetRefPoint0 */
MIRP[01101]	/* MoveIndirectRelPt */
IUP[1]	/* InterpolateUntPts */
IUP[0]	/* InterpolateUntPts */";
};
width = 618;
},
{
anchors = (
{
name = bottom;
position = "{269, 0}";
},
{
name = center;
position = "{328, 350}";
},
{
name = ogonek;
position = "{353, 0}";
},
{
name = top;
position = "{402, 699}";
},
{
name = topleft;
position = "{113, 699}";
},
{
name = topright;
position = "{691, 699}";
}
);
layerId = "2BD620B1-1E84-4C86-A446-E2CCA0F180F7";
paths = (
{
closed = 1;
nodes = (
"180 715 OFFCURVE",
"48 517 OFFCURVE",
"48 247 CURVE SMOOTH",
"48 75 OFFCURVE",
"134 -18 OFFCURVE",
"281 -18 CURVE SMOOTH",
"475 -18 OFFCURVE",
"607 180 OFFCURVE",
"607 450 CURVE SMOOTH",
"607 622 OFFCURVE",
"521 715 OFFCURVE",
"374 715 CURVE SMOOTH"
);
},
{
closed = 1;
nodes = (
"458 633 OFFCURVE",
"512 569 OFFCURVE",
"512 447 CURVE SMOOTH",
"512 233 OFFCURVE",
"416 64 OFFCURVE",
"283 64 CURVE SMOOTH",
"197 64 OFFCURVE",
"143 128 OFFCURVE",
"143 250 CURVE SMOOTH",
"143 464 OFFCURVE",
"239 633 OFFCURVE",
"372 633 CURVE SMOOTH"
);
}
);
userData = {
assembly = "NPUSHB[ ]	/* 19 values pushed */
36 34 12 24 34 0 12 2 0 0 14 42 31 6 30 31 18 18 6 
MDAP[1]	/* MoveDirectAbsPt */
MDAP[1]	/* MoveDirectAbsPt */
SRP0[ ]	/* SetRefPoint0 */
MIRP[01101]	/* MoveIndirectRelPt */
SRP0[ ]	/* SetRefPoint0 */
MIRP[01101]	/* MoveIndirectRelPt */
CALL[ ]	/* CallFunction */
RUTG[ ]	/* RoundUpToGrid */
MIAP[1]	/* MoveIndirectAbsPt */
RTG[ ]	/* RoundToGrid */
MIAP[1]	/* MoveIndirectAbsPt */
SRP0[ ]	/* SetRefPoint0 */
MIRP[01101]	/* MoveIndirectRelPt */
SRP0[ ]	/* SetRefPoint0 */
MIRP[01101]	/* MoveIndirectRelPt */
IUP[1]	/* InterpolateUntPts */
IUP[0]	/* InterpolateUntPts */";
};
width = 618;
}
);
note = O;
unicode = 004F;
},
{
glyphname = OE;
lastChange = "2022-10-01 01:33:41 +0000";
layers = (
{
layerId = m01;
paths = (
{
closed = 1;
nodes = (
"605 0 LINE",
"605 80 LINE",
"392 80 LINE",
"392 318 LINE",
"572 318 LINE",
"572 398 LINE",
"392 398 LINE",
"392 619 LINE",
"587 619 LINE",
"587 699 LINE",
"308 699 LINE SMOOTH",
"110 699 OFFCURVE",
"35 543 OFFCURVE",
"35 350 CURVE SMOOTH",
"35 157 OFFCURVE",
"110 0 OFFCURVE",
"288 0 CURVE SMOOTH"
);
},
{
closed = 1;
nodes = (
"165 78 OFFCURVE",
"125 194 OFFCURVE",
"125 351 CURVE SMOOTH",
"125 508 OFFCURVE",
"165 621 OFFCURVE",
"299 621 CURVE SMOOTH",
"306 621 LINE",
"306 78 LINE",
"299 78 LINE SMOOTH"
);
}
);
userData = {
assembly = "NPUSHB[ ]	/* 87 values pushed */
39 34 7 29 34 17 17 0 7 2 19 20 22 2 27 22 24 2 41 0 1 2 5 1 3 2 23 22 16 1 20 26 0 16 1 24 2 1 16 1 3 3 4 25 24 1 4 3 1 2 0 21 20 0 14 34 31 11 11 4 41 27 20 19 5 4 6 5 0 1 4 3 2 1 22 21 1 26 25 1 24 23 1 0 3 4 0 
LOOPCALL[ ]	/* LoopAndCallFunction */
LOOPCALL[ ]	/* LoopAndCallFunction */
SRP0[ ]	/* SetRefPoint0 */
MDRP[00100]	/* MoveDirectRelPt */
SRP0[ ]	/* SetRefPoint0 */
MIRP[01101]	/* MoveIndirectRelPt */
CALL[ ]	/* CallFunction */
RUTG[ ]	/* RoundUpToGrid */
MIAP[1]	/* MoveIndirectAbsPt */
ALIGNRP[ ]	/* AlignRelativePt */
RTG[ ]	/* RoundToGrid */
LOOPCALL[ ]	/* LoopAndCallFunction */
LOOPCALL[ ]	/* LoopAndCallFunction */
CALL[ ]	/* CallFunction */
CALL[ ]	/* CallFunction */
CALL[ ]	/* CallFunction */
CALL[ ]	/* CallFunction */
MIAP[1]	/* MoveIndirectAbsPt */
RUTG[ ]	/* RoundUpToGrid */
MIAP[1]	/* MoveIndirectAbsPt */
RTG[ ]	/* RoundToGrid */
SRP0[ ]	/* SetRefPoint0 */
MIRP[01101]	/* MoveIndirectRelPt */
SRP0[ ]	/* SetRefPoint0 */
MIRP[01101]	/* MoveIndirectRelPt */
IUP[1]	/* InterpolateUntPts */
IUP[0]	/* InterpolateUntPts */";
};
width = 618;
},
{
layerId = "2BD620B1-1E84-4C86-A446-E2CCA0F180F7";
paths = (
{
closed = 1;
nodes = (
"549 0 LINE",
"566 80 LINE",
"353 80 LINE",
"404 318 LINE",
"584 318 LINE",
"601 398 LINE",
"421 398 LINE",
"468 619 LINE",
"663 619 LINE",
"680 699 LINE",
"391 699 LINE SMOOTH",
"141 699 OFFCURVE",
"51 475 OFFCURVE",
"51 291 CURVE SMOOTH",
"51 123 OFFCURVE",
"117 0 OFFCURVE",
"293 0 CURVE SMOOTH"
);
},
{
closed = 1;
nodes = (
"187 85 OFFCURVE",
"141 157 OFFCURVE",
"141 298 CURVE SMOOTH",
"141 435 OFFCURVE",
"206 621 OFFCURVE",
"365 621 CURVE SMOOTH",
"382 621 LINE",
"267 78 LINE"
);
}
);
userData = {
assembly = "NPUSHB[ ]	/* 87 values pushed */
39 34 7 29 34 17 17 0 7 2 19 20 22 2 27 22 24 2 41 0 1 2 5 1 3 2 23 22 16 1 20 26 0 16 1 24 2 1 16 1 3 3 4 25 24 1 4 3 1 2 0 21 20 0 14 34 31 11 11 4 41 27 20 19 5 4 6 5 0 1 4 3 2 1 22 21 1 26 25 1 24 23 1 0 3 4 0 
LOOPCALL[ ]	/* LoopAndCallFunction */
LOOPCALL[ ]	/* LoopAndCallFunction */
SRP0[ ]	/* SetRefPoint0 */
MDRP[00100]	/* MoveDirectRelPt */
SRP0[ ]	/* SetRefPoint0 */
MIRP[01101]	/* MoveIndirectRelPt */
CALL[ ]	/* CallFunction */
RUTG[ ]	/* RoundUpToGrid */
MIAP[1]	/* MoveIndirectAbsPt */
ALIGNRP[ ]	/* AlignRelativePt */
RTG[ ]	/* RoundToGrid */
LOOPCALL[ ]	/* LoopAndCallFunction */
LOOPCALL[ ]	/* LoopAndCallFunction */
CALL[ ]	/* CallFunction */
CALL[ ]	/* CallFunction */
CALL[ ]	/* CallFunction */
CALL[ ]	/* CallFunction */
MIAP[1]	/* MoveIndirectAbsPt */
RUTG[ ]	/* RoundUpToGrid */
MIAP[1]	/* MoveIndirectAbsPt */
RTG[ ]	/* RoundToGrid */
SRP0[ ]	/* SetRefPoint0 */
MIRP[01101]	/* MoveIndirectRelPt */
SRP0[ ]	/* SetRefPoint0 */
MIRP[01101]	/* MoveIndirectRelPt */
IUP[1]	/* InterpolateUntPts */
IUP[0]	/* InterpolateUntPts */";
};
width = 618;
}
);
note = OE;
unicode = 0152;
},
{
glyphname = P;
lastChange = "2022-10-01 01:33:41 +0000";
layers = (
{
layerId = m01;
paths = (
{
closed = 1;
nodes = (
"182 0 LINE",
"182 281 LINE",
"346 281 LINE SMOOTH",
"471 281 OFFCURVE",
"571 352 OFFCURVE",
"571 490 CURVE SMOOTH",
"571 628 OFFCURVE",
"471 699 OFFCURVE",
"346 699 CURVE SMOOTH",
"91 699 LINE",
"91 0 LINE"
);
},
{
closed = 1;
nodes = (
"182 620 LINE",
"334 620 LINE SMOOTH",
"423 620 OFFCURVE",
"476 570 OFFCURVE",
"476 490 CURVE SMOOTH",
"476 410 OFFCURVE",
"423 360 OFFCURVE",
"334 360 CURVE SMOOTH",
"182 360 LINE"
);
}
);
userData = {
assembly = "NPUSHB[ ]	/* 48 values pushed */
22 21 16 1 3 12 0 16 1 13 2 4 14 13 1 2 1 1 2 0 4 3 0 14 18 31 8 21 14 12 4 4 13 8 0 22 13 1 0 6 3 2 1 4 3 2 1 0 
CALL[ ]	/* CallFunction */
LOOPCALL[ ]	/* LoopAndCallFunction */
SRP0[ ]	/* SetRefPoint0 */
MDRP[00100]	/* MoveDirectRelPt */
LOOPCALL[ ]	/* LoopAndCallFunction */
SRP0[ ]	/* SetRefPoint0 */
MIRP[01101]	/* MoveIndirectRelPt */
CALL[ ]	/* CallFunction */
RUTG[ ]	/* RoundUpToGrid */
MIAP[1]	/* MoveIndirectAbsPt */
ALIGNRP[ ]	/* AlignRelativePt */
RTG[ ]	/* RoundToGrid */
LOOPCALL[ ]	/* LoopAndCallFunction */
LOOPCALL[ ]	/* LoopAndCallFunction */
IUP[1]	/* InterpolateUntPts */
IUP[0]	/* InterpolateUntPts */";
};
width = 618;
},
{
layerId = "2BD620B1-1E84-4C86-A446-E2CCA0F180F7";
paths = (
{
closed = 1;
nodes = (
"128 0 LINE",
"188 281 LINE",
"382 281 LINE SMOOTH",
"525 281 OFFCURVE",
"619 376 OFFCURVE",
"619 509 CURVE SMOOTH",
"619 623 OFFCURVE",
"541 699 OFFCURVE",
"414 699 CURVE SMOOTH",
"184 699 LINE",
"35 0 LINE"
);
},
{
closed = 1;
nodes = (
"268 658 LINE",
"217 620 LINE",
"398 620 LINE SMOOTH",
"484 620 OFFCURVE",
"526 584 OFFCURVE",
"526 508 CURVE SMOOTH",
"526 414 OFFCURVE",
"465 360 OFFCURVE",
"366 360 CURVE SMOOTH",
"163 360 LINE",
"196 322 LINE"
);
}
);
userData = {
assembly = "NPUSHB[ ]	/* 48 values pushed */
22 21 16 1 3 12 0 16 1 13 2 4 14 13 1 2 1 1 2 0 4 3 0 14 18 31 8 21 14 12 4 4 13 8 0 22 13 1 0 6 3 2 1 4 3 2 1 0 
CALL[ ]	/* CallFunction */
LOOPCALL[ ]	/* LoopAndCallFunction */
SRP0[ ]	/* SetRefPoint0 */
MDRP[00100]	/* MoveDirectRelPt */
LOOPCALL[ ]	/* LoopAndCallFunction */
SRP0[ ]	/* SetRefPoint0 */
MIRP[01101]	/* MoveIndirectRelPt */
CALL[ ]	/* CallFunction */
RUTG[ ]	/* RoundUpToGrid */
MIAP[1]	/* MoveIndirectAbsPt */
ALIGNRP[ ]	/* AlignRelativePt */
RTG[ ]	/* RoundToGrid */
LOOPCALL[ ]	/* LoopAndCallFunction */
LOOPCALL[ ]	/* LoopAndCallFunction */
IUP[1]	/* InterpolateUntPts */
IUP[0]	/* InterpolateUntPts */";
};
width = 618;
}
);
note = P;
unicode = 0050;
},
{
glyphname = Thorn;
lastChange = "2022-10-01 01:33:41 +0000";
layers = (
{
layerId = m01;
paths = (
{
closed = 1;
nodes = (
"91 699 LINE",
"91 0 LINE",
"182 0 LINE",
"182 154 LINE",
"346 154 LINE SMOOTH",
"471 154 OFFCURVE",
"571 224 OFFCURVE",
"571 362 CURVE SMOOTH",
"571 500 OFFCURVE",
"471 571 OFFCURVE",
"346 571 CURVE SMOOTH",
"182 571 LINE",
"182 699 LINE"
);
},
{
closed = 1;
nodes = (
"182 493 LINE",
"334 493 LINE SMOOTH",
"423 493 OFFCURVE",
"476 442 OFFCURVE",
"476 362 CURVE SMOOTH",
"476 282 OFFCURVE",
"423 233 OFFCURVE",
"334 233 CURVE SMOOTH",
"182 233 LINE"
);
}
);
userData = {
assembly = "NPUSHB[ ]	/* 53 values pushed */
24 23 16 1 5 16 15 16 1 0 2 4 6 5 1 14 0 1 2 1 1 3 0 4 3 0 14 20 10 10 23 16 14 6 4 13 10 0 24 15 5 4 1 0 6 5 2 1 4 3 2 1 0 
CALL[ ]	/* CallFunction */
LOOPCALL[ ]	/* LoopAndCallFunction */
SRP0[ ]	/* SetRefPoint0 */
MDRP[00100]	/* MoveDirectRelPt */
LOOPCALL[ ]	/* LoopAndCallFunction */
SRP0[ ]	/* SetRefPoint0 */
MIRP[01101]	/* MoveIndirectRelPt */
CALL[ ]	/* CallFunction */
RUTG[ ]	/* RoundUpToGrid */
MIAP[1]	/* MoveIndirectAbsPt */
ALIGNRP[ ]	/* AlignRelativePt */
RTG[ ]	/* RoundToGrid */
LOOPCALL[ ]	/* LoopAndCallFunction */
LOOPCALL[ ]	/* LoopAndCallFunction */
IUP[1]	/* InterpolateUntPts */
IUP[0]	/* InterpolateUntPts */";
};
width = 618;
},
{
layerId = "2BD620B1-1E84-4C86-A446-E2CCA0F180F7";
paths = (
{
closed = 1;
nodes = (
"277 699 LINE",
"184 699 LINE",
"35 0 LINE",
"128 0 LINE"
);
},
{
closed = 1;
nodes = (
"111 154 LINE",
"348 154 LINE SMOOTH",
"491 154 OFFCURVE",
"588 250 OFFCURVE",
"588 383 CURVE SMOOTH",
"588 499 OFFCURVE",
"511 572 OFFCURVE",
"384 572 CURVE SMOOTH",
"204 572 LINE",
"204 493 LINE",
"364 493 LINE SMOOTH",
"450 493 OFFCURVE",
"492 455 OFFCURVE",
"492 381 CURVE SMOOTH",
"492 285 OFFCURVE",
"434 233 OFFCURVE",
"335 233 CURVE SMOOTH",
"111 233 LINE"
);
}
);
userData = {
assembly = "NPUSHB[ ]	/* 53 values pushed */
24 23 16 1 5 16 15 16 1 0 2 4 6 5 1 14 0 1 2 1 1 3 0 4 3 0 14 20 10 10 23 16 14 6 4 13 10 0 24 15 5 4 1 0 6 5 2 1 4 3 2 1 0 
CALL[ ]	/* CallFunction */
LOOPCALL[ ]	/* LoopAndCallFunction */
SRP0[ ]	/* SetRefPoint0 */
MDRP[00100]	/* MoveDirectRelPt */
LOOPCALL[ ]	/* LoopAndCallFunction */
SRP0[ ]	/* SetRefPoint0 */
MIRP[01101]	/* MoveIndirectRelPt */
CALL[ ]	/* CallFunction */
RUTG[ ]	/* RoundUpToGrid */
MIAP[1]	/* MoveIndirectAbsPt */
ALIGNRP[ ]	/* AlignRelativePt */
RTG[ ]	/* RoundToGrid */
LOOPCALL[ ]	/* LoopAndCallFunction */
LOOPCALL[ ]	/* LoopAndCallFunction */
IUP[1]	/* InterpolateUntPts */
IUP[0]	/* InterpolateUntPts */";
};
width = 618;
}
);
note = Thorn;
unicode = 00DE;
},
{
glyphname = R;
lastChange = "2022-10-01 01:33:41 +0000";
layers = (
{
anchors = (
{
name = bottom;
position = "{329, 0}";
},
{
name = top;
position = "{316, 699}";
}
);
layerId = m01;
paths = (
{
closed = 1;
nodes = (
"419 287 OFFCURVE",
"454 243 OFFCURVE",
"454 161 CURVE SMOOTH",
"454 117 LINE SMOOTH",
"454 71 OFFCURVE",
"465 31 OFFCURVE",
"480 0 CURVE",
"583 0 LINE",
"583 23 LINE",
"553 44 OFFCURVE",
"549 84 OFFCURVE",
"547 118 CURVE SMOOTH",
"544 170 LINE SMOOTH",
"538 272 OFFCURVE",
"520 303 OFFCURVE",
"446 333 CURVE",
"529 374 OFFCURVE",
"562 427 OFFCURVE",
"562 508 CURVE SMOOTH",
"562 637 OFFCURVE",
"473 699 OFFCURVE",
"339 699 CURVE SMOOTH",
"94 699 LINE",
"94 0 LINE",
"185 0 LINE",
"185 287 LINE",
"336 287 LINE SMOOTH"
);
},
{
closed = 1;
nodes = (
"321 620 LINE SMOOTH",
"413 620 OFFCURVE",
"467 583 OFFCURVE",
"467 498 CURVE SMOOTH",
"467 401 OFFCURVE",
"412 366 OFFCURVE",
"321 366 CURVE SMOOTH",
"185 366 LINE",
"185 620 LINE"
);
}
);
userData = {
assembly = "NPUSHB[ ]	/* 66 values pushed */
11 27 0 2 17 0 1 2 37 36 16 1 3 26 0 16 1 27 2 4 28 27 1 19 18 2 1 3 2 0 4 3 0 14 32 31 8 36 28 26 19 18 17 11 4 8 13 22 21 8 3 12 0 37 27 1 0 6 3 2 1 4 3 2 1 0 
CALL[ ]	/* CallFunction */
LOOPCALL[ ]	/* LoopAndCallFunction */
SRP0[ ]	/* SetRefPoint0 */
LOOPCALL[ ]	/* LoopAndCallFunction */
LOOPCALL[ ]	/* LoopAndCallFunction */
SRP0[ ]	/* SetRefPoint0 */
MIRP[01101]	/* MoveIndirectRelPt */
CALL[ ]	/* CallFunction */
RUTG[ ]	/* RoundUpToGrid */
MIAP[1]	/* MoveIndirectAbsPt */
ALIGNRP[ ]	/* AlignRelativePt */
RTG[ ]	/* RoundToGrid */
LOOPCALL[ ]	/* LoopAndCallFunction */
LOOPCALL[ ]	/* LoopAndCallFunction */
CALL[ ]	/* CallFunction */
CALL[ ]	/* CallFunction */
IUP[1]	/* InterpolateUntPts */
IUP[0]	/* InterpolateUntPts */";
};
width = 618;
},
{
anchors = (
{
name = bottom;
position = "{293, 0}";
},
{
name = top;
position = "{381, 699}";
}
);
layerId = "2BD620B1-1E84-4C86-A446-E2CCA0F180F7";
paths = (
{
closed = 1;
nodes = (
"412 287 OFFCURVE",
"447 253 OFFCURVE",
"439 198 CURVE SMOOTH",
"426 111 LINE SMOOTH",
"420 68 OFFCURVE",
"426 31 OFFCURVE",
"440 0 CURVE",
"535 0 LINE",
"535 23 LINE",
"523 32 OFFCURVE",
"508 56 OFFCURVE",
"517 125 CURVE SMOOTH",
"528 209 LINE SMOOTH",
"538 288 OFFCURVE",
"495 329 OFFCURVE",
"422 332 CURVE",
"438 314 LINE",
"542 322 OFFCURVE",
"612 415 OFFCURVE",
"612 521 CURVE SMOOTH",
"612 635 OFFCURVE",
"532 699 OFFCURVE",
"411 699 CURVE SMOOTH",
"187 699 LINE",
"38 0 LINE",
"131 0 LINE",
"192 287 LINE",
"351 287 LINE SMOOTH"
);
},
{
closed = 1;
nodes = (
"386 620 LINE SMOOTH",
"474 620 OFFCURVE",
"517 585 OFFCURVE",
"517 513 CURVE SMOOTH",
"517 424 OFFCURVE",
"455 366 OFFCURVE",
"372 366 CURVE SMOOTH",
"168 366 LINE",
"201 328 LINE",
"271 658 LINE",
"220 620 LINE"
);
}
);
userData = {
assembly = "NPUSHB[ ]	/* 66 values pushed */
11 27 0 2 17 0 1 2 37 36 16 1 3 26 0 16 1 27 2 4 28 27 1 19 18 2 1 3 2 0 4 3 0 14 32 31 8 36 28 26 19 18 17 11 4 8 13 22 21 8 3 12 0 37 27 1 0 6 3 2 1 4 3 2 1 0 
CALL[ ]	/* CallFunction */
LOOPCALL[ ]	/* LoopAndCallFunction */
SRP0[ ]	/* SetRefPoint0 */
LOOPCALL[ ]	/* LoopAndCallFunction */
LOOPCALL[ ]	/* LoopAndCallFunction */
SRP0[ ]	/* SetRefPoint0 */
MIRP[01101]	/* MoveIndirectRelPt */
CALL[ ]	/* CallFunction */
RUTG[ ]	/* RoundUpToGrid */
MIAP[1]	/* MoveIndirectAbsPt */
ALIGNRP[ ]	/* AlignRelativePt */
RTG[ ]	/* RoundToGrid */
LOOPCALL[ ]	/* LoopAndCallFunction */
LOOPCALL[ ]	/* LoopAndCallFunction */
CALL[ ]	/* CallFunction */
CALL[ ]	/* CallFunction */
IUP[1]	/* InterpolateUntPts */
IUP[0]	/* InterpolateUntPts */";
};
width = 618;
}
);
note = R;
unicode = 0052;
},
{
glyphname = S;
lastChange = "2022-10-01 01:33:41 +0000";
layers = (
{
anchors = (
{
name = bottom;
position = "{324, 0}";
},
{
name = top;
position = "{318, 699}";
}
);
layerId = m01;
paths = (
{
closed = 1;
nodes = (
"552 510 LINE SMOOTH",
"552 626 OFFCURVE",
"464 715 OFFCURVE",
"318 715 CURVE SMOOTH",
"168 715 OFFCURVE",
"74 633 OFFCURVE",
"74 516 CURVE SMOOTH",
"74 420 OFFCURVE",
"129 357 OFFCURVE",
"230 333 CURVE SMOOTH",
"375 299 LINE SMOOTH",
"444 283 OFFCURVE",
"478 248 OFFCURVE",
"478 186 CURVE SMOOTH",
"478 115 OFFCURVE",
"431 65 OFFCURVE",
"326 65 CURVE SMOOTH",
"208 65 OFFCURVE",
"146 130 OFFCURVE",
"145 223 CURVE",
"55 223 LINE",
"57 74 OFFCURVE",
"150 -18 OFFCURVE",
"324 -18 CURVE SMOOTH",
"471 -18 OFFCURVE",
"572 60 OFFCURVE",
"572 199 CURVE SMOOTH",
"572 289 OFFCURVE",
"515 361 OFFCURVE",
"406 386 CURVE SMOOTH",
"263 419 LINE SMOOTH",
"198 434 OFFCURVE",
"168 467 OFFCURVE",
"168 525 CURVE SMOOTH",
"168 588 OFFCURVE",
"219 636 OFFCURVE",
"315 636 CURVE SMOOTH",
"412 636 OFFCURVE",
"459 577 OFFCURVE",
"462 497 CURVE",
"552 497 LINE"
);
}
);
userData = {
assembly = "NPUSHB[ ]	/* 32 values pushed */
30 34 21 5 13 45 45 0 21 2 1 0 1 26 25 1 2 0 14 35 31 17 9 31 41 49 41 26 25 17 1 0 
MDAP[0]	/* MoveDirectAbsPt */
MDAP[0]	/* MoveDirectAbsPt */
MDAP[1]	/* MoveDirectAbsPt */
MDAP[0]	/* MoveDirectAbsPt */
MDAP[0]	/* MoveDirectAbsPt */
MDAP[1]	/* MoveDirectAbsPt */
MDAP[1]	/* MoveDirectAbsPt */
SRP0[ ]	/* SetRefPoint0 */
MIRP[01101]	/* MoveIndirectRelPt */
SRP0[ ]	/* SetRefPoint0 */
MIRP[01101]	/* MoveIndirectRelPt */
CALL[ ]	/* CallFunction */
LOOPCALL[ ]	/* LoopAndCallFunction */
MIAP[1]	/* MoveIndirectAbsPt */
RUTG[ ]	/* RoundUpToGrid */
MIAP[1]	/* MoveIndirectAbsPt */
RTG[ ]	/* RoundToGrid */
SRP0[ ]	/* SetRefPoint0 */
MIRP[01101]	/* MoveIndirectRelPt */
SRP0[ ]	/* SetRefPoint0 */
MIRP[01101]	/* MoveIndirectRelPt */
IUP[1]	/* InterpolateUntPts */
IUP[0]	/* InterpolateUntPts */";
};
width = 618;
},
{
anchors = (
{
name = bottom;
position = "{305, 0}";
},
{
name = top;
position = "{382, 699}";
}
);
layerId = "2BD620B1-1E84-4C86-A446-E2CCA0F180F7";
paths = (
{
closed = 1;
nodes = (
"618 625 OFFCURVE",
"536 715 OFFCURVE",
"382 715 CURVE SMOOTH",
"232 715 OFFCURVE",
"133 633 OFFCURVE",
"133 516 CURVE SMOOTH",
"133 420 OFFCURVE",
"191 373 OFFCURVE",
"287 336 CURVE SMOOTH",
"372 303 LINE SMOOTH",
"438 277 OFFCURVE",
"470 248 OFFCURVE",
"470 186 CURVE SMOOTH",
"470 115 OFFCURVE",
"412 65 OFFCURVE",
"307 65 CURVE SMOOTH",
"187 65 OFFCURVE",
"124 129 OFFCURVE",
"137 227 CURVE",
"49 227 LINE",
"25 73 OFFCURVE",
"133 -18 OFFCURVE",
"305 -18 CURVE SMOOTH",
"452 -18 OFFCURVE",
"562 60 OFFCURVE",
"562 199 CURVE SMOOTH",
"562 289 OFFCURVE",
"506 345 OFFCURVE",
"403 386 CURVE SMOOTH",
"322 418 LINE SMOOTH",
"260 442 OFFCURVE",
"225 467 OFFCURVE",
"225 525 CURVE SMOOTH",
"225 588 OFFCURVE",
"281 636 OFFCURVE",
"377 636 CURVE SMOOTH",
"482 636 OFFCURVE",
"525 576 OFFCURVE",
"524 494 CURVE",
"612 494 LINE"
);
}
);
userData = {
assembly = "NPUSHB[ ]	/* 32 values pushed */
30 34 21 5 13 45 45 0 21 2 1 0 1 26 25 1 2 0 14 35 31 17 9 31 41 49 41 26 25 17 1 0 
MDAP[0]	/* MoveDirectAbsPt */
MDAP[0]	/* MoveDirectAbsPt */
MDAP[1]	/* MoveDirectAbsPt */
MDAP[0]	/* MoveDirectAbsPt */
MDAP[0]	/* MoveDirectAbsPt */
MDAP[1]	/* MoveDirectAbsPt */
MDAP[1]	/* MoveDirectAbsPt */
SRP0[ ]	/* SetRefPoint0 */
MIRP[01101]	/* MoveIndirectRelPt */
SRP0[ ]	/* SetRefPoint0 */
MIRP[01101]	/* MoveIndirectRelPt */
CALL[ ]	/* CallFunction */
LOOPCALL[ ]	/* LoopAndCallFunction */
MIAP[1]	/* MoveIndirectAbsPt */
RUTG[ ]	/* RoundUpToGrid */
MIAP[1]	/* MoveIndirectAbsPt */
RTG[ ]	/* RoundToGrid */
SRP0[ ]	/* SetRefPoint0 */
MIRP[01101]	/* MoveIndirectRelPt */
SRP0[ ]	/* SetRefPoint0 */
MIRP[01101]	/* MoveIndirectRelPt */
IUP[1]	/* InterpolateUntPts */
IUP[0]	/* InterpolateUntPts */";
};
width = 618;
}
);
note = S;
unicode = 0053;
},
{
glyphname = Germandbls;
lastChange = "2022-10-01 01:33:41 +0000";
layers = (
{
layerId = m01;
paths = (
{
closed = 1;
nodes = (
"596 40 OFFCURVE",
"596 206 CURVE SMOOTH",
"596 330 OFFCURVE",
"502 415 OFFCURVE",
"347 402 CURVE",
"350 358 LINE",
"549 615 LINE",
"549 699 LINE",
"81 699 LINE",
"81 0 LINE",
"171 0 LINE",
"171 619 LINE",
"446 619 LINE",
"250 366 LINE",
"276 451 LINE",
"276 327 LINE",
"458 351 OFFCURVE",
"506 282 OFFCURVE",
"506 209 CURVE SMOOTH",
"506 90 OFFCURVE",
"429 47 OFFCURVE",
"260 72 CURVE",
"260 -1 LINE",
"460 -39 OFFCURVE"
);
}
);
width = 618;
},
{
layerId = "2BD620B1-1E84-4C86-A446-E2CCA0F180F7";
paths = (
{
closed = 1;
nodes = (
"289 -10 OFFCURVE",
"337 -10 CURVE SMOOTH",
"492 -10 OFFCURVE",
"584 74 OFFCURVE",
"584 213 CURVE SMOOTH",
"584 320 OFFCURVE",
"507 406 OFFCURVE",
"370 405 CURVE",
"377 364 LINE",
"621 615 LINE",
"639 699 LINE",
"174 699 LINE",
"25 0 LINE",
"115 0 LINE",
"247 619 LINE",
"512 619 LINE",
"272 373 LINE",
"320 458 LINE",
"294 334 LINE",
"430 352 OFFCURVE",
"496 292 OFFCURVE",
"496 210 CURVE SMOOTH",
"496 114 OFFCURVE",
"434 65 OFFCURVE",
"335 65 CURVE SMOOTH",
"296 65 OFFCURVE",
"260 71 OFFCURVE",
"220 81 CURVE",
"205 11 LINE",
"243 -2 OFFCURVE"
);
}
);
width = 618;
}
);
widthMetricsKey = "=618";
unicode = 1E9E;
},
{
glyphname = T;
lastChange = "2022-10-01 01:33:41 +0000";
layers = (
{
anchors = (
{
name = bottom;
position = "{309, 0}";
},
{
name = center;
position = "{309, 350}";
},
{
name = top;
position = "{309, 699}";
}
);
layerId = m01;
paths = (
{
closed = 1;
nodes = (
"565 699 LINE",
"53 699 LINE",
"53 617 LINE",
"263 617 LINE",
"263 0 LINE",
"356 0 LINE",
"356 617 LINE",
"565 617 LINE"
);
}
);
userData = {
assembly = "NPUSHB[ ]	/* 35 values pushed */
7 4 3 0 16 3 5 1 4 2 1 1 0 6 5 0 14 1 0 6 1 2 1 4 7 6 1 3 2 1 5 4 1 3 0 
LOOPCALL[ ]	/* LoopAndCallFunction */
LOOPCALL[ ]	/* LoopAndCallFunction */
CALL[ ]	/* CallFunction */
RUTG[ ]	/* RoundUpToGrid */
MIAP[1]	/* MoveIndirectAbsPt */
ALIGNRP[ ]	/* AlignRelativePt */
RTG[ ]	/* RoundToGrid */
CALL[ ]	/* CallFunction */
LOOPCALL[ ]	/* LoopAndCallFunction */
IUP[1]	/* InterpolateUntPts */
IUP[0]	/* InterpolateUntPts */";
};
width = 618;
},
{
anchors = (
{
name = bottom;
position = "{253, 0}";
},
{
name = center;
position = "{328, 350}";
},
{
name = top;
position = "{402, 699}";
}
);
layerId = "2BD620B1-1E84-4C86-A446-E2CCA0F180F7";
paths = (
{
closed = 1;
nodes = (
"658 699 LINE",
"146 699 LINE",
"128 617 LINE",
"338 617 LINE",
"207 0 LINE",
"300 0 LINE",
"431 617 LINE",
"640 617 LINE"
);
}
);
userData = {
assembly = "NPUSHB[ ]	/* 35 values pushed */
7 4 3 0 16 3 5 1 4 2 1 1 0 6 5 0 14 1 0 6 1 2 1 4 7 6 1 3 2 1 5 4 1 3 0 
LOOPCALL[ ]	/* LoopAndCallFunction */
LOOPCALL[ ]	/* LoopAndCallFunction */
CALL[ ]	/* CallFunction */
RUTG[ ]	/* RoundUpToGrid */
MIAP[1]	/* MoveIndirectAbsPt */
ALIGNRP[ ]	/* AlignRelativePt */
RTG[ ]	/* RoundToGrid */
CALL[ ]	/* CallFunction */
LOOPCALL[ ]	/* LoopAndCallFunction */
IUP[1]	/* InterpolateUntPts */
IUP[0]	/* InterpolateUntPts */";
};
width = 618;
}
);
note = T;
unicode = 0054;
},
{
glyphname = U;
lastChange = "2022-10-01 01:33:41 +0000";
layers = (
{
anchors = (
{
name = bottom;
position = "{309, 0}";
},
{
name = ogonek;
position = "{419, 0}";
},
{
name = top;
position = "{309, 699}";
},
{
name = topright;
position = "{598, 699}";
}
);
layerId = m01;
paths = (
{
closed = 1;
nodes = (
"459 99 OFFCURVE",
"389 64 OFFCURVE",
"308 64 CURVE SMOOTH",
"228 64 OFFCURVE",
"159 97 OFFCURVE",
"159 219 CURVE SMOOTH",
"159 699 LINE",
"66 699 LINE",
"66 206 LINE SMOOTH",
"66 47 OFFCURVE",
"172 -18 OFFCURVE",
"308 -18 CURVE SMOOTH",
"440 -18 OFFCURVE",
"552 44 OFFCURVE",
"552 206 CURVE SMOOTH",
"552 699 LINE",
"459 699 LINE",
"459 219 LINE SMOOTH"
);
}
);
userData = {
assembly = "NPUSHB[ ]	/* 42 values pushed */
17 34 6 6 2 1 21 13 10 2 4 0 2 3 0 12 11 1 0 0 3 14 21 0 6 1 1 13 12 6 1 10 2 4 2 1 1 11 10 1 2 0 
LOOPCALL[ ]	/* LoopAndCallFunction */
LOOPCALL[ ]	/* LoopAndCallFunction */
CALL[ ]	/* CallFunction */
RUTG[ ]	/* RoundUpToGrid */
SLOOP[ ]	/* SetLoopVariable */
MIAP[1]	/* MoveIndirectAbsPt */
ALIGNRP[ ]	/* AlignRelativePt */
RTG[ ]	/* RoundToGrid */
SZP0[ ]	/* SetZonePointer0 */
CALL[ ]	/* CallFunction */
SZP0[ ]	/* SetZonePointer0 */
MIAP[1]	/* MoveIndirectAbsPt */
SRP0[ ]	/* SetRefPoint0 */
MIRP[01101]	/* MoveIndirectRelPt */
IUP[1]	/* InterpolateUntPts */
IUP[0]	/* InterpolateUntPts */";
};
width = 618;
},
{
anchors = (
{
name = bottom;
position = "{253, 0}";
},
{
name = ogonek;
position = "{363, 0}";
},
{
name = top;
position = "{402, 699}";
},
{
name = topright;
position = "{691, 699}";
}
);
layerId = "2BD620B1-1E84-4C86-A446-E2CCA0F180F7";
paths = (
{
closed = 1;
nodes = (
"427 111 OFFCURVE",
"380 64 OFFCURVE",
"286 64 CURVE SMOOTH",
"180 64 OFFCURVE",
"130 127 OFFCURVE",
"154 239 CURVE SMOOTH",
"252 699 LINE",
"159 699 LINE",
"64 255 LINE SMOOTH",
"28 85 OFFCURVE",
"119 -18 OFFCURVE",
"278 -18 CURVE SMOOTH",
"424 -18 OFFCURVE",
"508 57 OFFCURVE",
"540 206 CURVE SMOOTH",
"645 699 LINE",
"552 699 LINE",
"450 219 LINE SMOOTH"
);
}
);
userData = {
assembly = "NPUSHB[ ]	/* 42 values pushed */
17 34 6 6 2 1 21 13 10 2 4 0 2 3 0 12 11 1 0 0 3 14 21 0 6 1 1 13 12 6 1 10 2 4 2 1 1 11 10 1 2 0 
LOOPCALL[ ]	/* LoopAndCallFunction */
LOOPCALL[ ]	/* LoopAndCallFunction */
CALL[ ]	/* CallFunction */
RUTG[ ]	/* RoundUpToGrid */
SLOOP[ ]	/* SetLoopVariable */
MIAP[1]	/* MoveIndirectAbsPt */
ALIGNRP[ ]	/* AlignRelativePt */
RTG[ ]	/* RoundToGrid */
SZP0[ ]	/* SetZonePointer0 */
CALL[ ]	/* CallFunction */
SZP0[ ]	/* SetZonePointer0 */
MIAP[1]	/* MoveIndirectAbsPt */
SRP0[ ]	/* SetRefPoint0 */
MIRP[01101]	/* MoveIndirectRelPt */
IUP[1]	/* InterpolateUntPts */
IUP[0]	/* InterpolateUntPts */";
};
width = 618;
}
);
note = U;
unicode = 0055;
},
{
glyphname = V;
lastChange = "2022-10-01 01:33:41 +0000";
layers = (
{
layerId = m01;
paths = (
{
closed = 1;
nodes = (
"491 699 LINE",
"302 68 LINE",
"319 68 LINE",
"128 699 LINE",
"30 699 LINE",
"255 0 LINE",
"363 0 LINE",
"588 699 LINE"
);
}
);
userData = {
assembly = "NPUSHB[ ]	/* 22 values pushed */
4 2 0 2 1 0 1 0 6 5 3 2 0 3 14 6 5 4 3 2 1 0 
MDAP[0]	/* MoveDirectAbsPt */
MDAP[0]	/* MoveDirectAbsPt */
MDAP[0]	/* MoveDirectAbsPt */
MDAP[0]	/* MoveDirectAbsPt */
MDAP[0]	/* MoveDirectAbsPt */
MDAP[0]	/* MoveDirectAbsPt */
MDAP[0]	/* MoveDirectAbsPt */
CALL[ ]	/* CallFunction */
RUTG[ ]	/* RoundUpToGrid */
SLOOP[ ]	/* SetLoopVariable */
MIAP[1]	/* MoveIndirectAbsPt */
ALIGNRP[ ]	/* AlignRelativePt */
RTG[ ]	/* RoundToGrid */
CALL[ ]	/* CallFunction */
CALL[ ]	/* CallFunction */
IUP[1]	/* InterpolateUntPts */
IUP[0]	/* InterpolateUntPts */";
};
width = 618;
},
{
layerId = "2BD620B1-1E84-4C86-A446-E2CCA0F180F7";
paths = (
{
closed = 1;
nodes = (
"579 699 LINE",
"254 68 LINE",
"271 68 LINE",
"215 699 LINE",
"123 699 LINE",
"199 0 LINE",
"307 0 LINE",
"681 699 LINE"
);
}
);
userData = {
assembly = "NPUSHB[ ]	/* 22 values pushed */
4 2 0 2 1 0 1 0 6 5 3 2 0 3 14 6 5 4 3 2 1 0 
MDAP[0]	/* MoveDirectAbsPt */
MDAP[0]	/* MoveDirectAbsPt */
MDAP[0]	/* MoveDirectAbsPt */
MDAP[0]	/* MoveDirectAbsPt */
MDAP[0]	/* MoveDirectAbsPt */
MDAP[0]	/* MoveDirectAbsPt */
MDAP[0]	/* MoveDirectAbsPt */
CALL[ ]	/* CallFunction */
RUTG[ ]	/* RoundUpToGrid */
SLOOP[ ]	/* SetLoopVariable */
MIAP[1]	/* MoveIndirectAbsPt */
ALIGNRP[ ]	/* AlignRelativePt */
RTG[ ]	/* RoundToGrid */
CALL[ ]	/* CallFunction */
CALL[ ]	/* CallFunction */
IUP[1]	/* InterpolateUntPts */
IUP[0]	/* InterpolateUntPts */";
};
width = 618;
}
);
note = V;
unicode = 0056;
},
{
glyphname = W;
lastChange = "2022-10-01 01:33:41 +0000";
layers = (
{
anchors = (
{
name = bottom;
position = "{309, 0}";
},
{
name = top;
position = "{309, 699}";
}
);
layerId = m01;
paths = (
{
closed = 1;
nodes = (
"514 699 LINE",
"442 133 LINE",
"441 133 LINE",
"369 699 LINE",
"250 699 LINE",
"178 142 LINE",
"177 142 LINE",
"109 699 LINE",
"23 699 LINE",
"122 0 LINE",
"223 0 LINE",
"308 620 LINE",
"309 620 LINE",
"395 0 LINE",
"496 0 LINE",
"595 699 LINE"
);
}
);
userData = {
assembly = "NPUSHB[ ]	/* 35 values pushed */
10 7 2 3 5 0 3 4 3 1 0 3 0 12 11 9 8 6 5 0 5 14 12 11 10 9 8 7 6 5 4 3 2 1 0 
MDAP[0]	/* MoveDirectAbsPt */
MDAP[0]	/* MoveDirectAbsPt */
MDAP[0]	/* MoveDirectAbsPt */
MDAP[0]	/* MoveDirectAbsPt */
MDAP[0]	/* MoveDirectAbsPt */
MDAP[0]	/* MoveDirectAbsPt */
MDAP[0]	/* MoveDirectAbsPt */
MDAP[0]	/* MoveDirectAbsPt */
MDAP[0]	/* MoveDirectAbsPt */
MDAP[0]	/* MoveDirectAbsPt */
MDAP[0]	/* MoveDirectAbsPt */
MDAP[0]	/* MoveDirectAbsPt */
MDAP[0]	/* MoveDirectAbsPt */
CALL[ ]	/* CallFunction */
RUTG[ ]	/* RoundUpToGrid */
SLOOP[ ]	/* SetLoopVariable */
MIAP[1]	/* MoveIndirectAbsPt */
ALIGNRP[ ]	/* AlignRelativePt */
RTG[ ]	/* RoundToGrid */
CALL[ ]	/* CallFunction */
CALL[ ]	/* CallFunction */
IUP[1]	/* InterpolateUntPts */
IUP[0]	/* InterpolateUntPts */";
};
width = 618;
},
{
anchors = (
{
name = bottom;
position = "{253, 0}";
},
{
name = top;
position = "{397, 699}";
}
);
layerId = "2BD620B1-1E84-4C86-A446-E2CCA0F180F7";
paths = (
{
closed = 1;
nodes = (
"605 699 LINE",
"412 135 LINE",
"411 135 LINE",
"459 699 LINE",
"340 699 LINE",
"149 139 LINE",
"148 139 LINE",
"200 699 LINE",
"116 699 LINE",
"66 0 LINE",
"167 0 LINE",
"383 620 LINE",
"384 620 LINE",
"339 0 LINE",
"440 0 LINE",
"688 699 LINE"
);
}
);
userData = {
assembly = "NPUSHB[ ]	/* 35 values pushed */
10 7 2 3 5 0 3 4 3 1 0 3 0 12 11 9 8 6 5 0 5 14 12 11 10 9 8 7 6 5 4 3 2 1 0 
MDAP[0]	/* MoveDirectAbsPt */
MDAP[0]	/* MoveDirectAbsPt */
MDAP[0]	/* MoveDirectAbsPt */
MDAP[0]	/* MoveDirectAbsPt */
MDAP[0]	/* MoveDirectAbsPt */
MDAP[0]	/* MoveDirectAbsPt */
MDAP[0]	/* MoveDirectAbsPt */
MDAP[0]	/* MoveDirectAbsPt */
MDAP[0]	/* MoveDirectAbsPt */
MDAP[0]	/* MoveDirectAbsPt */
MDAP[0]	/* MoveDirectAbsPt */
MDAP[0]	/* MoveDirectAbsPt */
MDAP[0]	/* MoveDirectAbsPt */
CALL[ ]	/* CallFunction */
RUTG[ ]	/* RoundUpToGrid */
SLOOP[ ]	/* SetLoopVariable */
MIAP[1]	/* MoveIndirectAbsPt */
ALIGNRP[ ]	/* AlignRelativePt */
RTG[ ]	/* RoundToGrid */
CALL[ ]	/* CallFunction */
CALL[ ]	/* CallFunction */
IUP[1]	/* InterpolateUntPts */
IUP[0]	/* InterpolateUntPts */";
};
width = 618;
}
);
note = W;
unicode = 0057;
},
{
glyphname = X;
lastChange = "2022-10-01 01:33:41 +0000";
layers = (
{
layerId = m01;
paths = (
{
closed = 1;
nodes = (
"273 380 LINE",
"25 0 LINE",
"132 0 LINE",
"320 301 LINE",
"297 301 LINE",
"484 0 LINE",
"593 0 LINE",
"348 383 LINE",
"348 339 LINE",
"581 699 LINE",
"475 699 LINE",
"299 414 LINE",
"326 415 LINE",
"150 699 LINE",
"41 699 LINE",
"272 338 LINE"
);
}
);
userData = {
assembly = "NPUSHB[ ]	/* 33 values pushed */
9 6 3 0 4 7 1 3 5 4 2 1 3 0 11 10 8 7 0 3 14 11 10 9 8 7 6 5 4 3 2 1 0 
MDAP[0]	/* MoveDirectAbsPt */
MDAP[0]	/* MoveDirectAbsPt */
MDAP[0]	/* MoveDirectAbsPt */
MDAP[0]	/* MoveDirectAbsPt */
MDAP[0]	/* MoveDirectAbsPt */
MDAP[0]	/* MoveDirectAbsPt */
MDAP[0]	/* MoveDirectAbsPt */
MDAP[0]	/* MoveDirectAbsPt */
MDAP[0]	/* MoveDirectAbsPt */
MDAP[0]	/* MoveDirectAbsPt */
MDAP[0]	/* MoveDirectAbsPt */
MDAP[0]	/* MoveDirectAbsPt */
CALL[ ]	/* CallFunction */
RUTG[ ]	/* RoundUpToGrid */
SLOOP[ ]	/* SetLoopVariable */
MIAP[1]	/* MoveIndirectAbsPt */
ALIGNRP[ ]	/* AlignRelativePt */
RTG[ ]	/* RoundToGrid */
CALL[ ]	/* CallFunction */
CALL[ ]	/* CallFunction */
IUP[1]	/* InterpolateUntPts */
IUP[0]	/* InterpolateUntPts */";
};
width = 618;
},
{
layerId = "2BD620B1-1E84-4C86-A446-E2CCA0F180F7";
paths = (
{
closed = 1;
nodes = (
"293 379 LINE",
"-31 0 LINE",
"83 0 LINE",
"332 299 LINE",
"313 302 LINE",
"440 0 LINE",
"537 0 LINE",
"370 384 LINE",
"365 338 LINE",
"674 699 LINE",
"561 699 LINE",
"325 416 LINE",
"350 416 LINE",
"231 699 LINE",
"134 699 LINE",
"293 339 LINE"
);
}
);
userData = {
assembly = "NPUSHB[ ]	/* 33 values pushed */
9 6 3 0 4 7 1 3 5 4 2 1 3 0 11 10 8 7 0 3 14 11 10 9 8 7 6 5 4 3 2 1 0 
MDAP[0]	/* MoveDirectAbsPt */
MDAP[0]	/* MoveDirectAbsPt */
MDAP[0]	/* MoveDirectAbsPt */
MDAP[0]	/* MoveDirectAbsPt */
MDAP[0]	/* MoveDirectAbsPt */
MDAP[0]	/* MoveDirectAbsPt */
MDAP[0]	/* MoveDirectAbsPt */
MDAP[0]	/* MoveDirectAbsPt */
MDAP[0]	/* MoveDirectAbsPt */
MDAP[0]	/* MoveDirectAbsPt */
MDAP[0]	/* MoveDirectAbsPt */
MDAP[0]	/* MoveDirectAbsPt */
CALL[ ]	/* CallFunction */
RUTG[ ]	/* RoundUpToGrid */
SLOOP[ ]	/* SetLoopVariable */
MIAP[1]	/* MoveIndirectAbsPt */
ALIGNRP[ ]	/* AlignRelativePt */
RTG[ ]	/* RoundToGrid */
CALL[ ]	/* CallFunction */
CALL[ ]	/* CallFunction */
IUP[1]	/* InterpolateUntPts */
IUP[0]	/* InterpolateUntPts */";
};
width = 618;
}
);
note = X;
unicode = 0058;
},
{
glyphname = Y;
lastChange = "2022-10-01 01:33:41 +0000";
layers = (
{
anchors = (
{
name = bottom;
position = "{309, 0}";
},
{
name = top;
position = "{309, 699}";
},
{
name = topleft;
position = "{20, 699}";
}
);
layerId = m01;
paths = (
{
closed = 1;
nodes = (
"493 699 LINE",
"294 324 LINE",
"336 324 LINE",
"127 699 LINE",
"21 699 LINE",
"266 274 LINE",
"266 0 LINE",
"359 0 LINE",
"359 274 LINE",
"597 699 LINE"
);
}
);
userData = {
assembly = "NPUSHB[ ]	/* 41 values pushed */
6 3 0 3 4 1 3 2 1 1 0 8 7 5 4 0 3 14 6 0 2 2 8 7 2 13 0 5 4 2 1 0 6 1 2 1 4 3 2 1 0 
CALL[ ]	/* CallFunction */
LOOPCALL[ ]	/* LoopAndCallFunction */
SRP0[ ]	/* SetRefPoint0 */
MDRP[00000]	/* MoveDirectRelPt */
MDRP[00000]	/* MoveDirectRelPt */
SRP0[ ]	/* SetRefPoint0 */
LOOPCALL[ ]	/* LoopAndCallFunction */
CALL[ ]	/* CallFunction */
CALL[ ]	/* CallFunction */
RUTG[ ]	/* RoundUpToGrid */
SLOOP[ ]	/* SetLoopVariable */
MIAP[1]	/* MoveIndirectAbsPt */
ALIGNRP[ ]	/* AlignRelativePt */
RTG[ ]	/* RoundToGrid */
CALL[ ]	/* CallFunction */
CALL[ ]	/* CallFunction */
IUP[1]	/* InterpolateUntPts */
IUP[0]	/* InterpolateUntPts */";
};
width = 618;
},
{
anchors = (
{
name = bottom;
position = "{253, 0}";
},
{
name = top;
position = "{402, 699}";
},
{
name = topleft;
position = "{113, 699}";
}
);
layerId = "2BD620B1-1E84-4C86-A446-E2CCA0F180F7";
name = Italic;
paths = (
{
closed = 1;
nodes = (
"584 699 LINE",
"297 324 LINE",
"341 324 LINE",
"209 699 LINE",
"114 699 LINE",
"269 274 LINE",
"210 0 LINE",
"303 0 LINE",
"362 274 LINE",
"690 699 LINE"
);
}
);
userData = {
assembly = "NPUSHB[ ]	/* 41 values pushed */
6 3 0 3 4 1 3 2 1 1 0 8 7 5 4 0 3 14 6 0 2 2 8 7 2 13 0 5 4 2 1 0 6 1 2 1 4 3 2 1 0 
CALL[ ]	/* CallFunction */
LOOPCALL[ ]	/* LoopAndCallFunction */
SRP0[ ]	/* SetRefPoint0 */
MDRP[00000]	/* MoveDirectRelPt */
MDRP[00000]	/* MoveDirectRelPt */
SRP0[ ]	/* SetRefPoint0 */
LOOPCALL[ ]	/* LoopAndCallFunction */
CALL[ ]	/* CallFunction */
CALL[ ]	/* CallFunction */
RUTG[ ]	/* RoundUpToGrid */
SLOOP[ ]	/* SetLoopVariable */
MIAP[1]	/* MoveIndirectAbsPt */
ALIGNRP[ ]	/* AlignRelativePt */
RTG[ ]	/* RoundToGrid */
CALL[ ]	/* CallFunction */
CALL[ ]	/* CallFunction */
IUP[1]	/* InterpolateUntPts */
IUP[0]	/* InterpolateUntPts */";
};
width = 618;
}
);
note = Y;
unicode = 0059;
},
{
glyphname = Z;
lastChange = "2022-10-01 01:33:41 +0000";
layers = (
{
anchors = (
{
name = bottom;
position = "{303, 0}";
},
{
name = center;
position = "{309, 350}";
},
{
name = top;
position = "{316, 699}";
}
);
layerId = m01;
paths = (
{
closed = 1;
nodes = (
"98 617 LINE",
"428 617 LINE",
"70 82 LINE",
"70 0 LINE",
"535 0 LINE",
"535 82 LINE",
"179 82 LINE",
"533 615 LINE",
"533 699 LINE",
"98 699 LINE"
);
}
);
userData = {
assembly = "NPUSHB[ ]	/* 45 values pushed */
1 7 2 2 8 7 16 1 0 6 3 2 16 2 4 2 4 5 4 1 0 9 0 0 14 7 2 2 0 8 3 4 3 1 1 0 1 9 8 1 6 5 1 4 0 
LOOPCALL[ ]	/* LoopAndCallFunction */
CALL[ ]	/* CallFunction */
CALL[ ]	/* CallFunction */
RUTG[ ]	/* RoundUpToGrid */
MIAP[1]	/* MoveIndirectAbsPt */
ALIGNRP[ ]	/* AlignRelativePt */
RTG[ ]	/* RoundToGrid */
CALL[ ]	/* CallFunction */
LOOPCALL[ ]	/* LoopAndCallFunction */
CALL[ ]	/* CallFunction */
IUP[1]	/* InterpolateUntPts */
IUP[0]	/* InterpolateUntPts */";
};
width = 618;
},
{
anchors = (
{
name = bottom;
position = "{247, 0}";
},
{
name = center;
position = "{328, 350}";
},
{
name = top;
position = "{405, 699}";
}
);
layerId = "2BD620B1-1E84-4C86-A446-E2CCA0F180F7";
paths = (
{
closed = 1;
nodes = (
"484 0 LINE",
"502 82 LINE",
"100 82 LINE",
"122 50 LINE",
"610 615 LINE",
"628 699 LINE",
"178 699 LINE",
"160 617 LINE",
"546 617 LINE",
"523 648 LINE",
"32 82 LINE",
"14 0 LINE"
);
}
);
userData = {
assembly = "NPUSHB[ ]	/* 45 values pushed */
1 7 2 2 8 7 16 1 0 6 3 2 16 2 4 2 4 5 4 1 0 9 0 0 14 7 2 2 0 8 3 4 3 1 1 0 1 9 8 1 6 5 1 4 0 
LOOPCALL[ ]	/* LoopAndCallFunction */
CALL[ ]	/* CallFunction */
CALL[ ]	/* CallFunction */
RUTG[ ]	/* RoundUpToGrid */
MIAP[1]	/* MoveIndirectAbsPt */
ALIGNRP[ ]	/* AlignRelativePt */
RTG[ ]	/* RoundToGrid */
CALL[ ]	/* CallFunction */
LOOPCALL[ ]	/* LoopAndCallFunction */
CALL[ ]	/* CallFunction */
IUP[1]	/* InterpolateUntPts */
IUP[0]	/* InterpolateUntPts */";
};
width = 618;
}
);
note = Z;
unicode = 005A;
},
{
glyphname = a;
lastChange = "2022-10-01 01:33:41 +0000";
layers = (
{
anchors = (
{
name = bottom;
position = "{248, 0}";
},
{
name = ogonek;
position = "{569, -8}";
},
{
name = top;
position = "{309, 524}";
}
);
layerId = m01;
paths = (
{
closed = 1;
nodes = (
"564 54 OFFCURVE",
"556 53 OFFCURVE",
"551 53 CURVE SMOOTH",
"521 53 OFFCURVE",
"506 67 OFFCURVE",
"506 94 CURVE SMOOTH",
"506 396 LINE SMOOTH",
"506 489 OFFCURVE",
"438 539 OFFCURVE",
"309 539 CURVE SMOOTH",
"185 539 OFFCURVE",
"101 490 OFFCURVE",
"99 369 CURVE",
"183 369 LINE",
"190 433 OFFCURVE",
"228 462 OFFCURVE",
"305 462 CURVE SMOOTH",
"384 462 OFFCURVE",
"425 436 OFFCURVE",
"425 384 CURVE SMOOTH",
"425 366 LINE SMOOTH",
"425 332 OFFCURVE",
"403 319 OFFCURVE",
"336 310 CURVE SMOOTH",
"277 302 OFFCURVE",
"238 296 OFFCURVE",
"220 293 CURVE SMOOTH",
"159 283 OFFCURVE",
"77 244 OFFCURVE",
"77 136 CURVE SMOOTH",
"77 39 OFFCURVE",
"146 -18 OFFCURVE",
"248 -18 CURVE SMOOTH",
"315 -18 OFFCURVE",
"367 4 OFFCURVE",
"426 62 CURVE",
"432 8 OFFCURVE",
"461 -17 OFFCURVE",
"519 -17 CURVE SMOOTH",
"532 -17 OFFCURVE",
"548 -14 OFFCURVE",
"569 -8 CURVE",
"569 55 LINE"
);
},
{
closed = 1;
nodes = (
"425 109 OFFCURVE",
"342 55 OFFCURVE",
"269 55 CURVE SMOOTH",
"202 55 OFFCURVE",
"162 86 OFFCURVE",
"162 138 CURVE SMOOTH",
"162 204 OFFCURVE",
"211 226 OFFCURVE",
"289 235 CURVE SMOOTH",
"333 240 OFFCURVE",
"390 249 OFFCURVE",
"425 265 CURVE",
"425 182 LINE SMOOTH"
);
}
);
userData = {
assembly = "NPUSHB[ ]	/* 71 values pushed */
51 22 10 25 13 33 33 1 10 2 3 2 1 36 23 2 1 28 3 0 39 1 56 41 39 37 22 7 0 7 28 2 3 0 1 1 2 0 29 28 1 0 14 48 19 14 7 36 22 2 29 28 14 22 56 41 23 22 11 3 36 1 4 1 0 1 37 36 1 2 0 
LOOPCALL[ ]	/* LoopAndCallFunction */
LOOPCALL[ ]	/* LoopAndCallFunction */
SRP0[ ]	/* SetRefPoint0 */
MDRP[00100]	/* MoveDirectRelPt */
MDRP[00000]	/* MoveDirectRelPt */
MDRP[00000]	/* MoveDirectRelPt */
CALL[ ]	/* CallFunction */
SRP0[ ]	/* SetRefPoint0 */
MIRP[01101]	/* MoveIndirectRelPt */
CALL[ ]	/* CallFunction */
CALL[ ]	/* CallFunction */
SZP0[ ]	/* SetZonePointer0 */
SRP0[ ]	/* SetRefPoint0 */
MDRP[00000]	/* MoveDirectRelPt */
SZP0[ ]	/* SetZonePointer0 */
SZP0[ ]	/* SetZonePointer0 */
CALL[ ]	/* CallFunction */
SZP0[ ]	/* SetZonePointer0 */
MDAP[1]	/* MoveDirectAbsPt */
SZP1[ ]	/* SetZonePointer1 */
CALL[ ]	/* CallFunction */
SZP1[ ]	/* SetZonePointer1 */
MIAP[1]	/* MoveIndirectAbsPt */
MIAP[1]	/* MoveIndirectAbsPt */
RUTG[ ]	/* RoundUpToGrid */
MIAP[1]	/* MoveIndirectAbsPt */
RTG[ ]	/* RoundToGrid */
SRP0[ ]	/* SetRefPoint0 */
MIRP[01101]	/* MoveIndirectRelPt */
SRP0[ ]	/* SetRefPoint0 */
MIRP[01101]	/* MoveIndirectRelPt */
IUP[1]	/* InterpolateUntPts */
IUP[0]	/* InterpolateUntPts */";
};
width = 618;
},
{
anchors = (
{
name = bottom;
position = "{242, 0}";
},
{
name = ogonek;
position = "{511, -11}";
},
{
name = top;
position = "{344, 524}";
}
);
layerId = "2BD620B1-1E84-4C86-A446-E2CCA0F180F7";
paths = (
{
closed = 1;
nodes = (
"479 48 OFFCURVE",
"464 66 OFFCURVE",
"473 108 CURVE SMOOTH",
"528 366 LINE SMOOTH",
"554 486 OFFCURVE",
"468 539 OFFCURVE",
"344 539 CURVE SMOOTH",
"224 539 OFFCURVE",
"140 493 OFFCURVE",
"117 378 CURVE",
"204 378 LINE",
"222 435 OFFCURVE",
"253 462 OFFCURVE",
"340 462 CURVE SMOOTH",
"419 462 OFFCURVE",
"461 431 OFFCURVE",
"449 374 CURVE SMOOTH",
"440 332 OFFCURVE",
"417 320 OFFCURVE",
"346 314 CURVE SMOOTH",
"286 309 OFFCURVE",
"260 308 OFFCURVE",
"230 306 CURVE SMOOTH",
"117 300 OFFCURVE",
"55 238 OFFCURVE",
"55 139 CURVE SMOOTH",
"55 47 OFFCURVE",
"124 -18 OFFCURVE",
"224 -18 CURVE SMOOTH",
"302 -18 OFFCURVE",
"371 22 OFFCURVE",
"410 88 CURVE",
"393 106 LINE",
"381 17 OFFCURVE",
"422 -16 OFFCURVE",
"475 -16 CURVE SMOOTH",
"487 -16 OFFCURVE",
"499 -14 OFFCURVE",
"511 -11 CURVE",
"524 51 LINE"
);
},
{
closed = 1;
nodes = (
"394 116 OFFCURVE",
"329 55 OFFCURVE",
"243 55 CURVE SMOOTH",
"178 55 OFFCURVE",
"138 90 OFFCURVE",
"138 143 CURVE SMOOTH",
"138 217 OFFCURVE",
"194 235 OFFCURVE",
"268 240 CURVE SMOOTH",
"325 244 LINE SMOOTH",
"376 248 OFFCURVE",
"419 261 OFFCURVE",
"445 281 CURVE",
"435 309 LINE",
"412 202 LINE SMOOTH"
);
}
);
userData = {
assembly = "NPUSHB[ ]	/* 71 values pushed */
51 22 10 25 13 33 33 1 10 2 3 2 1 36 23 2 1 28 3 0 39 1 56 41 39 37 22 7 0 7 28 2 3 0 1 1 2 0 29 28 1 0 14 48 19 14 7 36 22 2 29 28 14 22 56 41 23 22 11 3 36 1 4 1 0 1 37 36 1 2 0 
LOOPCALL[ ]	/* LoopAndCallFunction */
LOOPCALL[ ]	/* LoopAndCallFunction */
SRP0[ ]	/* SetRefPoint0 */
MDRP[00100]	/* MoveDirectRelPt */
MDRP[00000]	/* MoveDirectRelPt */
MDRP[00000]	/* MoveDirectRelPt */
CALL[ ]	/* CallFunction */
SRP0[ ]	/* SetRefPoint0 */
MIRP[01101]	/* MoveIndirectRelPt */
CALL[ ]	/* CallFunction */
CALL[ ]	/* CallFunction */
SZP0[ ]	/* SetZonePointer0 */
SRP0[ ]	/* SetRefPoint0 */
MDRP[00000]	/* MoveDirectRelPt */
SZP0[ ]	/* SetZonePointer0 */
SZP0[ ]	/* SetZonePointer0 */
CALL[ ]	/* CallFunction */
SZP0[ ]	/* SetZonePointer0 */
MDAP[1]	/* MoveDirectAbsPt */
SZP1[ ]	/* SetZonePointer1 */
CALL[ ]	/* CallFunction */
SZP1[ ]	/* SetZonePointer1 */
MIAP[1]	/* MoveIndirectAbsPt */
MIAP[1]	/* MoveIndirectAbsPt */
RUTG[ ]	/* RoundUpToGrid */
MIAP[1]	/* MoveIndirectAbsPt */
RTG[ ]	/* RoundToGrid */
SRP0[ ]	/* SetRefPoint0 */
MIRP[01101]	/* MoveIndirectRelPt */
SRP0[ ]	/* SetRefPoint0 */
MIRP[01101]	/* MoveIndirectRelPt */
IUP[1]	/* InterpolateUntPts */
IUP[0]	/* InterpolateUntPts */";
};
width = 618;
}
);
note = a;
unicode = 0061;
},
{
glyphname = ae;
lastChange = "2022-10-01 01:33:41 +0000";
layers = (
{
layerId = m01;
paths = (
{
closed = 1;
nodes = (
"326 423 LINE",
"324 505 OFFCURVE",
"264 539 OFFCURVE",
"190 539 CURVE SMOOTH",
"96 539 OFFCURVE",
"31 479 OFFCURVE",
"29 387 CURVE",
"107 387 LINE",
"111 441 OFFCURVE",
"138 468 OFFCURVE",
"190 468 CURVE SMOOTH",
"249 468 OFFCURVE",
"269 438 OFFCURVE",
"269 386 CURVE SMOOTH",
"269 366 LINE SMOOTH",
"269 329 OFFCURVE",
"249 314 OFFCURVE",
"184 301 CURVE SMOOTH",
"135 291 LINE SMOOTH",
"55 275 OFFCURVE",
"18 215 OFFCURVE",
"18 138 CURVE SMOOTH",
"18 33 OFFCURVE",
"90 -18 OFFCURVE",
"162 -18 CURVE SMOOTH",
"264 -18 OFFCURVE",
"308 58 OFFCURVE",
"319 134 CURVE",
"294 129 LINE",
"298 47 OFFCURVE",
"372 -18 OFFCURVE",
"448 -18 CURVE SMOOTH",
"531 -18 OFFCURVE",
"595 44 OFFCURVE",
"603 152 CURVE",
"528 152 LINE",
"521 88 OFFCURVE",
"494 53 OFFCURVE",
"450 53 CURVE SMOOTH",
"378 53 OFFCURVE",
"340 130 OFFCURVE",
"348 272 CURVE",
"344 396 OFFCURVE",
"381 468 OFFCURVE",
"444 468 CURVE SMOOTH",
"501 468 OFFCURVE",
"537 414 OFFCURVE",
"537 307 CURVE",
"307 307 LINE",
"307 241 LINE",
"608 241 LINE",
"624 422 OFFCURVE",
"563 540 OFFCURVE",
"448 540 CURVE SMOOTH",
"368 540 OFFCURVE",
"310 474 OFFCURVE",
"304 399 CURVE"
);
},
{
closed = 1;
nodes = (
"269 89 OFFCURVE",
"229 52 OFFCURVE",
"178 52 CURVE SMOOTH",
"126 52 OFFCURVE",
"97 86 OFFCURVE",
"97 143 CURVE SMOOTH",
"97 202 OFFCURVE",
"122 220 OFFCURVE",
"166 232 CURVE SMOOTH",
"209 244 OFFCURVE",
"246 251 OFFCURVE",
"269 268 CURVE",
"269 158 LINE SMOOTH"
);
}
);
userData = {
assembly = "NPUSHB[ ]	/* 87 values pushed */
71 13 30 62 22 3 40 13 47 17 13 24 47 2 30 1 24 1 3 2 1 26 15 2 1 19 3 0 14 19 67 2 52 67 35 2 1 66 0 2 42 2 3 0 36 35 9 1 67 1 4 20 19 1 75 67 1 43 42 1 3 0 14 59 19 7 75 67 43 42 36 35 26 0 8 13 14 20 19 7 14 66 52 15 14 3 0 
CALL[ ]	/* CallFunction */
SRP0[ ]	/* SetRefPoint0 */
MDRP[00100]	/* MoveDirectRelPt */
MDRP[00000]	/* MoveDirectRelPt */
MDRP[00000]	/* MoveDirectRelPt */
SRP0[ ]	/* SetRefPoint0 */
LOOPCALL[ ]	/* LoopAndCallFunction */
SRP0[ ]	/* SetRefPoint0 */
MIRP[01101]	/* MoveIndirectRelPt */
CALL[ ]	/* CallFunction */
LOOPCALL[ ]	/* LoopAndCallFunction */
LOOPCALL[ ]	/* LoopAndCallFunction */
SZP0[ ]	/* SetZonePointer0 */
CALL[ ]	/* CallFunction */
SZP0[ ]	/* SetZonePointer0 */
CALL[ ]	/* CallFunction */
CALL[ ]	/* CallFunction */
SZP1[ ]	/* SetZonePointer1 */
CALL[ ]	/* CallFunction */
SZP1[ ]	/* SetZonePointer1 */
MIAP[1]	/* MoveIndirectAbsPt */
RUTG[ ]	/* RoundUpToGrid */
MIAP[1]	/* MoveIndirectAbsPt */
MIAP[1]	/* MoveIndirectAbsPt */
RTG[ ]	/* RoundToGrid */
MIAP[1]	/* MoveIndirectAbsPt */
SRP0[ ]	/* SetRefPoint0 */
MIRP[01101]	/* MoveIndirectRelPt */
SRP0[ ]	/* SetRefPoint0 */
MIRP[01101]	/* MoveIndirectRelPt */
SRP0[ ]	/* SetRefPoint0 */
MIRP[01101]	/* MoveIndirectRelPt */
SRP0[ ]	/* SetRefPoint0 */
MIRP[01101]	/* MoveIndirectRelPt */
IUP[1]	/* InterpolateUntPts */
IUP[0]	/* InterpolateUntPts */";
};
width = 618;
},
{
layerId = "2BD620B1-1E84-4C86-A446-E2CCA0F180F7";
paths = (
{
closed = 1;
nodes = (
"356 423 LINE",
"360 489 OFFCURVE",
"313 539 OFFCURVE",
"227 539 CURVE SMOOTH",
"136 539 OFFCURVE",
"69 481 OFFCURVE",
"54 391 CURVE",
"132 391 LINE",
"144 450 OFFCURVE",
"177 468 OFFCURVE",
"225 468 CURVE SMOOTH",
"282 468 OFFCURVE",
"304 433 OFFCURVE",
"295 386 CURVE SMOOTH",
"291 366 LINE SMOOTH",
"284 329 OFFCURVE",
"260 313 OFFCURVE",
"192 304 CURVE SMOOTH",
"141 297 LINE SMOOTH",
"23 281 OFFCURVE",
"-6 199 OFFCURVE",
"-6 128 CURVE SMOOTH",
"-6 36 OFFCURVE",
"61 -18 OFFCURVE",
"139 -18 CURVE SMOOTH",
"211 -18 OFFCURVE",
"272 22 OFFCURVE",
"302 124 CURVE",
"276 142 LINE",
"274 132 OFFCURVE",
"273 123 OFFCURVE",
"273 114 CURVE SMOOTH",
"273 36 OFFCURVE",
"335 -18 OFFCURVE",
"404 -18 CURVE SMOOTH",
"492 -18 OFFCURVE",
"558 50 OFFCURVE",
"580 145 CURVE",
"505 145 LINE",
"492 85 OFFCURVE",
"457 53 OFFCURVE",
"417 53 CURVE SMOOTH",
"316 53 OFFCURVE",
"324 174 OFFCURVE",
"350 272 CURVE",
"372 396 OFFCURVE",
"425 468 OFFCURVE",
"488 468 CURVE SMOOTH",
"562 468 OFFCURVE",
"559 372 OFFCURVE",
"545 307 CURVE",
"317 307 LINE",
"303 241 LINE",
"602 241 LINE",
"638 370 OFFCURVE",
"640 540 OFFCURVE",
"498 540 CURVE SMOOTH",
"418 540 OFFCURVE",
"353 479 OFFCURVE",
"333 399 CURVE"
);
},
{
closed = 1;
nodes = (
"232 87 OFFCURVE",
"196 52 OFFCURVE",
"147 52 CURVE SMOOTH",
"102 52 OFFCURVE",
"72 85 OFFCURVE",
"72 131 CURVE SMOOTH",
"72 182 OFFCURVE",
"97 223 OFFCURVE",
"160 235 CURVE SMOOTH",
"205 244 OFFCURVE",
"244 251 OFFCURVE",
"270 268 CURVE",
"243 138 LINE SMOOTH"
);
}
);
userData = {
assembly = "NPUSHB[ ]	/* 87 values pushed */
71 13 30 62 22 3 40 13 47 17 13 24 47 2 30 1 24 1 3 2 1 26 15 2 1 19 3 0 14 19 67 2 52 67 35 2 1 66 0 2 42 2 3 0 36 35 9 1 67 1 4 20 19 1 75 67 1 43 42 1 3 0 14 59 19 7 75 67 43 42 36 35 26 0 8 13 14 20 19 7 14 66 52 15 14 3 0 
CALL[ ]	/* CallFunction */
SRP0[ ]	/* SetRefPoint0 */
MDRP[00100]	/* MoveDirectRelPt */
MDRP[00000]	/* MoveDirectRelPt */
MDRP[00000]	/* MoveDirectRelPt */
SRP0[ ]	/* SetRefPoint0 */
LOOPCALL[ ]	/* LoopAndCallFunction */
SRP0[ ]	/* SetRefPoint0 */
MIRP[01101]	/* MoveIndirectRelPt */
CALL[ ]	/* CallFunction */
LOOPCALL[ ]	/* LoopAndCallFunction */
LOOPCALL[ ]	/* LoopAndCallFunction */
SZP0[ ]	/* SetZonePointer0 */
CALL[ ]	/* CallFunction */
SZP0[ ]	/* SetZonePointer0 */
CALL[ ]	/* CallFunction */
CALL[ ]	/* CallFunction */
SZP1[ ]	/* SetZonePointer1 */
CALL[ ]	/* CallFunction */
SZP1[ ]	/* SetZonePointer1 */
MIAP[1]	/* MoveIndirectAbsPt */
RUTG[ ]	/* RoundUpToGrid */
MIAP[1]	/* MoveIndirectAbsPt */
MIAP[1]	/* MoveIndirectAbsPt */
RTG[ ]	/* RoundToGrid */
MIAP[1]	/* MoveIndirectAbsPt */
SRP0[ ]	/* SetRefPoint0 */
MIRP[01101]	/* MoveIndirectRelPt */
SRP0[ ]	/* SetRefPoint0 */
MIRP[01101]	/* MoveIndirectRelPt */
SRP0[ ]	/* SetRefPoint0 */
MIRP[01101]	/* MoveIndirectRelPt */
SRP0[ ]	/* SetRefPoint0 */
MIRP[01101]	/* MoveIndirectRelPt */
IUP[1]	/* InterpolateUntPts */
IUP[0]	/* InterpolateUntPts */";
};
width = 618;
}
);
note = ae;
unicode = 00E6;
},
{
glyphname = b;
lastChange = "2022-10-01 01:33:41 +0000";
layers = (
{
layerId = m01;
paths = (
{
closed = 1;
nodes = (
"162 0 LINE",
"162 72 LINE",
"201 12 OFFCURVE",
"256 -18 OFFCURVE",
"328 -18 CURVE SMOOTH",
"477 -18 OFFCURVE",
"556 106 OFFCURVE",
"556 267 CURVE SMOOTH",
"556 419 OFFCURVE",
"486 540 OFFCURVE",
"332 540 CURVE SMOOTH",
"262 540 OFFCURVE",
"208 511 OFFCURVE",
"170 454 CURVE",
"170 729 LINE",
"87 729 LINE",
"87 0 LINE"
);
},
{
closed = 1;
nodes = (
"421 462 OFFCURVE",
"470 367 OFFCURVE",
"470 258 CURVE SMOOTH",
"470 156 OFFCURVE",
"422 60 OFFCURVE",
"317 60 CURVE SMOOTH",
"211 60 OFFCURVE",
"170 159 OFFCURVE",
"170 258 CURVE SMOOTH",
"170 359 OFFCURVE",
"211 462 OFFCURVE",
"317 462 CURVE SMOOTH"
);
}
);
userData = {
assembly = "NPUSHB[ ]	/* 47 values pushed */
28 13 15 20 13 4 15 2 4 1 1 17 2 2 1 18 3 0 19 18 1 0 1 0 0 14 32 19 10 10 1 24 2 1 11 2 0 1 4 18 17 1 19 0 1 2 0 
LOOPCALL[ ]	/* LoopAndCallFunction */
LOOPCALL[ ]	/* LoopAndCallFunction */
SRP0[ ]	/* SetRefPoint0 */
MDRP[00100]	/* MoveDirectRelPt */
SRP0[ ]	/* SetRefPoint0 */
MIRP[01101]	/* MoveIndirectRelPt */
CALL[ ]	/* CallFunction */
RUTG[ ]	/* RoundUpToGrid */
MIAP[1]	/* MoveIndirectAbsPt */
ALIGNRP[ ]	/* AlignRelativePt */
RTG[ ]	/* RoundToGrid */
CALL[ ]	/* CallFunction */
SZP1[ ]	/* SetZonePointer1 */
CALL[ ]	/* CallFunction */
SZP1[ ]	/* SetZonePointer1 */
RUTG[ ]	/* RoundUpToGrid */
MIAP[1]	/* MoveIndirectAbsPt */
RTG[ ]	/* RoundToGrid */
MIAP[1]	/* MoveIndirectAbsPt */
SRP0[ ]	/* SetRefPoint0 */
MIRP[01101]	/* MoveIndirectRelPt */
SRP0[ ]	/* SetRefPoint0 */
MIRP[01101]	/* MoveIndirectRelPt */
IUP[1]	/* InterpolateUntPts */
IUP[0]	/* InterpolateUntPts */";
};
width = 618;
},
{
layerId = "2BD620B1-1E84-4C86-A446-E2CCA0F180F7";
paths = (
{
closed = 1;
nodes = (
"119 165 LINE",
"117 52 OFFCURVE",
"208 -18 OFFCURVE",
"311 -18 CURVE SMOOTH",
"455 -18 OFFCURVE",
"571 123 OFFCURVE",
"571 307 CURVE SMOOTH",
"571 453 OFFCURVE",
"496 540 OFFCURVE",
"372 540 CURVE SMOOTH",
"285 540 OFFCURVE",
"220 486 OFFCURVE",
"175 404 CURVE",
"199 402 LINE",
"269 729 LINE",
"186 729 LINE",
"31 0 LINE",
"106 0 LINE",
"144 178 LINE"
);
},
{
closed = 1;
nodes = (
"435 464 OFFCURVE",
"486 412 OFFCURVE",
"486 310 CURVE SMOOTH",
"486 161 OFFCURVE",
"407 58 OFFCURVE",
"302 58 CURVE SMOOTH",
"224 58 OFFCURVE",
"166 107 OFFCURVE",
"166 214 CURVE SMOOTH",
"166 354 OFFCURVE",
"253 464 OFFCURVE",
"357 464 CURVE SMOOTH"
);
}
);
userData = {
assembly = "NPUSHB[ ]	/* 47 values pushed */
28 13 15 20 13 4 15 2 4 1 1 17 2 2 1 18 3 0 19 18 1 0 1 0 0 14 32 19 10 10 1 24 2 1 11 2 0 1 4 18 17 1 19 0 1 2 0 
LOOPCALL[ ]	/* LoopAndCallFunction */
LOOPCALL[ ]	/* LoopAndCallFunction */
SRP0[ ]	/* SetRefPoint0 */
MDRP[00100]	/* MoveDirectRelPt */
SRP0[ ]	/* SetRefPoint0 */
MIRP[01101]	/* MoveIndirectRelPt */
CALL[ ]	/* CallFunction */
RUTG[ ]	/* RoundUpToGrid */
MIAP[1]	/* MoveIndirectAbsPt */
ALIGNRP[ ]	/* AlignRelativePt */
RTG[ ]	/* RoundToGrid */
CALL[ ]	/* CallFunction */
SZP1[ ]	/* SetZonePointer1 */
CALL[ ]	/* CallFunction */
SZP1[ ]	/* SetZonePointer1 */
RUTG[ ]	/* RoundUpToGrid */
MIAP[1]	/* MoveIndirectAbsPt */
RTG[ ]	/* RoundToGrid */
MIAP[1]	/* MoveIndirectAbsPt */
SRP0[ ]	/* SetRefPoint0 */
MIRP[01101]	/* MoveIndirectRelPt */
SRP0[ ]	/* SetRefPoint0 */
MIRP[01101]	/* MoveIndirectRelPt */
IUP[1]	/* InterpolateUntPts */
IUP[0]	/* InterpolateUntPts */";
};
width = 618;
}
);
note = b;
unicode = 0062;
},
{
glyphname = c;
lastChange = "2022-10-01 01:33:41 +0000";
layers = (
{
anchors = (
{
name = bottom;
position = "{321, 0}";
},
{
name = top;
position = "{321, 524}";
}
);
layerId = m01;
paths = (
{
closed = 1;
nodes = (
"530 462 OFFCURVE",
"450 540 OFFCURVE",
"322 540 CURVE SMOOTH",
"166 540 OFFCURVE",
"84 413 OFFCURVE",
"84 256 CURVE SMOOTH",
"84 102 OFFCURVE",
"168 -18 OFFCURVE",
"321 -18 CURVE SMOOTH",
"450 -18 OFFCURVE",
"528 57 OFFCURVE",
"539 183 CURVE",
"455 183 LINE",
"441 100 OFFCURVE",
"396 59 OFFCURVE",
"323 59 CURVE SMOOTH",
"218 59 OFFCURVE",
"171 152 OFFCURVE",
"171 256 CURVE SMOOTH",
"171 360 OFFCURVE",
"213 463 OFFCURVE",
"321 463 CURVE SMOOTH",
"394 463 OFFCURVE",
"440 420 OFFCURVE",
"449 351 CURVE",
"533 351 LINE"
);
}
);
userData = {
assembly = "NPUSHB[ ]	/* 27 values pushed */
13 13 20 5 13 28 28 1 20 2 1 0 1 16 15 1 2 0 14 9 19 24 24 16 15 1 0 
MDAP[0]	/* MoveDirectAbsPt */
MDAP[0]	/* MoveDirectAbsPt */
MDAP[0]	/* MoveDirectAbsPt */
MDAP[0]	/* MoveDirectAbsPt */
MDAP[1]	/* MoveDirectAbsPt */
SRP0[ ]	/* SetRefPoint0 */
MIRP[01101]	/* MoveIndirectRelPt */
CALL[ ]	/* CallFunction */
LOOPCALL[ ]	/* LoopAndCallFunction */
MIAP[1]	/* MoveIndirectAbsPt */
RUTG[ ]	/* RoundUpToGrid */
MIAP[1]	/* MoveIndirectAbsPt */
RTG[ ]	/* RoundToGrid */
SRP0[ ]	/* SetRefPoint0 */
MIRP[01101]	/* MoveIndirectRelPt */
SRP0[ ]	/* SetRefPoint0 */
MIRP[01101]	/* MoveIndirectRelPt */
IUP[1]	/* InterpolateUntPts */
IUP[0]	/* InterpolateUntPts */";
};
width = 618;
},
{
anchors = (
{
name = bottom;
position = "{282, 0}";
},
{
name = top;
position = "{355, 524}";
}
);
layerId = "2BD620B1-1E84-4C86-A446-E2CCA0F180F7";
paths = (
{
closed = 1;
nodes = (
"440 183 LINE",
"410 87 OFFCURVE",
"346 58 OFFCURVE",
"283 58 CURVE SMOOTH",
"194 58 OFFCURVE",
"149 123 OFFCURVE",
"149 210 CURVE SMOOTH",
"149 353 OFFCURVE",
"231 464 OFFCURVE",
"348 464 CURVE SMOOTH",
"415 464 OFFCURVE",
"462 430 OFFCURVE",
"467 351 CURVE",
"550 351 LINE",
"542 485 OFFCURVE",
"457 540 OFFCURVE",
"352 540 CURVE SMOOTH",
"186 540 OFFCURVE",
"64 402 OFFCURVE",
"64 214 CURVE SMOOTH",
"64 85 OFFCURVE",
"134 -18 OFFCURVE",
"281 -18 CURVE SMOOTH",
"386 -18 OFFCURVE",
"487 47 OFFCURVE",
"526 183 CURVE"
);
}
);
userData = {
assembly = "NPUSHB[ ]	/* 27 values pushed */
13 13 20 5 13 28 28 1 20 2 1 0 1 16 15 1 2 0 14 9 19 24 24 16 15 1 0 
MDAP[0]	/* MoveDirectAbsPt */
MDAP[0]	/* MoveDirectAbsPt */
MDAP[0]	/* MoveDirectAbsPt */
MDAP[0]	/* MoveDirectAbsPt */
MDAP[1]	/* MoveDirectAbsPt */
SRP0[ ]	/* SetRefPoint0 */
MIRP[01101]	/* MoveIndirectRelPt */
CALL[ ]	/* CallFunction */
LOOPCALL[ ]	/* LoopAndCallFunction */
MIAP[1]	/* MoveIndirectAbsPt */
RUTG[ ]	/* RoundUpToGrid */
MIAP[1]	/* MoveIndirectAbsPt */
RTG[ ]	/* RoundToGrid */
SRP0[ ]	/* SetRefPoint0 */
MIRP[01101]	/* MoveIndirectRelPt */
SRP0[ ]	/* SetRefPoint0 */
MIRP[01101]	/* MoveIndirectRelPt */
IUP[1]	/* InterpolateUntPts */
IUP[0]	/* InterpolateUntPts */";
};
width = 618;
}
);
note = c;
unicode = 0063;
},
{
glyphname = d;
lastChange = "2022-10-01 01:33:41 +0000";
layers = (
{
anchors = (
{
name = bottom;
position = "{309, 0}";
},
{
name = center;
position = "{309, 262}";
},
{
name = top;
position = "{309, 729}";
},
{
name = topright;
position = "{598, 729}";
}
);
layerId = m01;
paths = (
{
closed = 1;
nodes = (
"448 459 LINE",
"412 513 OFFCURVE",
"358 540 OFFCURVE",
"287 540 CURVE SMOOTH",
"138 540 OFFCURVE",
"62 418 OFFCURVE",
"62 267 CURVE SMOOTH",
"62 106 OFFCURVE",
"135 -18 OFFCURVE",
"290 -18 CURVE SMOOTH",
"359 -18 OFFCURVE",
"415 13 OFFCURVE",
"457 74 CURVE",
"457 0 LINE",
"531 0 LINE",
"531 729 LINE",
"448 729 LINE"
);
},
{
closed = 1;
nodes = (
"406 462 OFFCURVE",
"448 363 OFFCURVE",
"448 258 CURVE SMOOTH",
"448 161 OFFCURVE",
"407 60 OFFCURVE",
"302 60 CURVE SMOOTH",
"195 60 OFFCURVE",
"149 154 OFFCURVE",
"149 261 CURVE SMOOTH",
"149 374 OFFCURVE",
"203 462 OFFCURVE",
"301 462 CURVE SMOOTH"
);
}
);
userData = {
assembly = "NPUSHB[ ]	/* 47 values pushed */
27 13 5 19 13 15 15 1 5 2 1 17 3 2 1 1 3 0 2 1 1 0 18 0 0 14 23 19 11 11 17 31 18 17 11 2 0 1 4 1 0 1 3 2 1 2 0 
LOOPCALL[ ]	/* LoopAndCallFunction */
LOOPCALL[ ]	/* LoopAndCallFunction */
SRP0[ ]	/* SetRefPoint0 */
MDRP[00100]	/* MoveDirectRelPt */
SRP0[ ]	/* SetRefPoint0 */
MIRP[01101]	/* MoveIndirectRelPt */
CALL[ ]	/* CallFunction */
RUTG[ ]	/* RoundUpToGrid */
MIAP[1]	/* MoveIndirectAbsPt */
ALIGNRP[ ]	/* AlignRelativePt */
RTG[ ]	/* RoundToGrid */
CALL[ ]	/* CallFunction */
SZP1[ ]	/* SetZonePointer1 */
CALL[ ]	/* CallFunction */
SZP1[ ]	/* SetZonePointer1 */
MIAP[1]	/* MoveIndirectAbsPt */
RUTG[ ]	/* RoundUpToGrid */
MIAP[1]	/* MoveIndirectAbsPt */
RTG[ ]	/* RoundToGrid */
SRP0[ ]	/* SetRefPoint0 */
MIRP[01101]	/* MoveIndirectRelPt */
SRP0[ ]	/* SetRefPoint0 */
MIRP[01101]	/* MoveIndirectRelPt */
IUP[1]	/* InterpolateUntPts */
IUP[0]	/* InterpolateUntPts */";
};
width = 618;
},
{
anchors = (
{
name = bottom;
position = "{253, 0}";
},
{
name = center;
position = "{309, 262}";
},
{
name = top;
position = "{408, 729}";
},
{
name = topright;
position = "{697, 729}";
}
);
layerId = "2BD620B1-1E84-4C86-A446-E2CCA0F180F7";
paths = (
{
closed = 1;
nodes = (
"493 357 LINE",
"498 470 OFFCURVE",
"419 540 OFFCURVE",
"313 540 CURVE SMOOTH",
"169 540 OFFCURVE",
"47 405 OFFCURVE",
"47 221 CURVE SMOOTH",
"47 71 OFFCURVE",
"130 -18 OFFCURVE",
"250 -18 CURVE SMOOTH",
"334 -18 OFFCURVE",
"409 42 OFFCURVE",
"455 124 CURVE",
"426 113 LINE",
"401 0 LINE",
"475 0 LINE",
"630 729 LINE",
"547 729 LINE",
"467 350 LINE"
);
},
{
closed = 1;
nodes = (
"190 58 OFFCURVE",
"132 106 OFFCURVE",
"132 208 CURVE SMOOTH",
"132 357 OFFCURVE",
"210 464 OFFCURVE",
"315 464 CURVE SMOOTH",
"391 464 OFFCURVE",
"451 420 OFFCURVE",
"451 305 CURVE SMOOTH",
"451 171 OFFCURVE",
"375 58 OFFCURVE",
"269 58 CURVE SMOOTH"
);
}
);
userData = {
assembly = "NPUSHB[ ]	/* 47 values pushed */
27 13 5 19 13 15 15 1 5 2 1 17 3 2 1 1 3 0 2 1 1 0 18 0 0 14 23 19 11 11 17 31 18 17 11 2 0 1 4 1 0 1 3 2 1 2 0 
LOOPCALL[ ]	/* LoopAndCallFunction */
LOOPCALL[ ]	/* LoopAndCallFunction */
SRP0[ ]	/* SetRefPoint0 */
MDRP[00100]	/* MoveDirectRelPt */
SRP0[ ]	/* SetRefPoint0 */
MIRP[01101]	/* MoveIndirectRelPt */
CALL[ ]	/* CallFunction */
RUTG[ ]	/* RoundUpToGrid */
MIAP[1]	/* MoveIndirectAbsPt */
ALIGNRP[ ]	/* AlignRelativePt */
RTG[ ]	/* RoundToGrid */
CALL[ ]	/* CallFunction */
SZP1[ ]	/* SetZonePointer1 */
CALL[ ]	/* CallFunction */
SZP1[ ]	/* SetZonePointer1 */
MIAP[1]	/* MoveIndirectAbsPt */
RUTG[ ]	/* RoundUpToGrid */
MIAP[1]	/* MoveIndirectAbsPt */
RTG[ ]	/* RoundToGrid */
SRP0[ ]	/* SetRefPoint0 */
MIRP[01101]	/* MoveIndirectRelPt */
SRP0[ ]	/* SetRefPoint0 */
MIRP[01101]	/* MoveIndirectRelPt */
IUP[1]	/* InterpolateUntPts */
IUP[0]	/* InterpolateUntPts */";
};
width = 618;
}
);
note = d;
unicode = 0064;
},
{
glyphname = eth;
lastChange = "2022-10-01 01:33:41 +0000";
layers = (
{
components = (
{
alignment = -1;
name = _part.eth;
transform = "{0.41729, -0.90878, 0.90878, 0.41729, 95, 750}";
}
);
layerId = m01;
paths = (
{
closed = 1;
nodes = (
"417 448 OFFCURVE",
"459 354 OFFCURVE",
"459 248 CURVE SMOOTH",
"459 150 OFFCURVE",
"414 59 OFFCURVE",
"309 59 CURVE SMOOTH",
"203 59 OFFCURVE",
"159 150 OFFCURVE",
"159 251 CURVE SMOOTH",
"159 357 OFFCURVE",
"205 448 OFFCURVE",
"309 448 CURVE SMOOTH"
);
},
{
closed = 1;
nodes = (
"262 640 OFFCURVE",
"377 560 OFFCURVE",
"422 430 CURVE",
"436 430 LINE",
"409 490 OFFCURVE",
"362 522 OFFCURVE",
"301 522 CURVE SMOOTH",
"158 522 OFFCURVE",
"72 418 OFFCURVE",
"72 261 CURVE SMOOTH",
"72 96 OFFCURVE",
"152 -18 OFFCURVE",
"309 -18 CURVE SMOOTH",
"466 -18 OFFCURVE",
"546 97 OFFCURVE",
"546 259 CURVE SMOOTH",
"546 562 OFFCURVE",
"292 713 OFFCURVE",
"190 753 CURVE",
"158 696 LINE"
);
}
);
userData = {
assembly = "NPUSHB[ ]	/* 59 values pushed */
41 13 20 32 22 28 28 1 20 2 1 1 11 10 9 8 5 3 2 1 0 9 0 1 3 0 0 1 1 30 1 2 2 0 0 1 6 0 0 14 46 19 16 36 19 24 30 24 16 11 10 9 8 6 5 3 2 1 0 
MDAP[0]	/* MoveDirectAbsPt */
MDAP[0]	/* MoveDirectAbsPt */
MDAP[0]	/* MoveDirectAbsPt */
MDAP[0]	/* MoveDirectAbsPt */
MDAP[0]	/* MoveDirectAbsPt */
MDAP[0]	/* MoveDirectAbsPt */
MDAP[0]	/* MoveDirectAbsPt */
MDAP[0]	/* MoveDirectAbsPt */
MDAP[0]	/* MoveDirectAbsPt */
MDAP[0]	/* MoveDirectAbsPt */
MDAP[1]	/* MoveDirectAbsPt */
MDAP[1]	/* MoveDirectAbsPt */
MDAP[0]	/* MoveDirectAbsPt */
SRP0[ ]	/* SetRefPoint0 */
MIRP[01101]	/* MoveIndirectRelPt */
SRP0[ ]	/* SetRefPoint0 */
MIRP[01101]	/* MoveIndirectRelPt */
CALL[ ]	/* CallFunction */
SZP0[ ]	/* SetZonePointer0 */
SRP0[ ]	/* SetRefPoint0 */
MDRP[00000]	/* MoveDirectRelPt */
SZP0[ ]	/* SetZonePointer0 */
SZP0[ ]	/* SetZonePointer0 */
SZP1[ ]	/* SetZonePointer1 */
CALL[ ]	/* CallFunction */
SZP0[ ]	/* SetZonePointer0 */
SZP1[ ]	/* SetZonePointer1 */
SZP0[ ]	/* SetZonePointer0 */
SZP1[ ]	/* SetZonePointer1 */
CALL[ ]	/* CallFunction */
SZP0[ ]	/* SetZonePointer0 */
SZP1[ ]	/* SetZonePointer1 */
MIAP[1]	/* MoveIndirectAbsPt */
RUTG[ ]	/* RoundUpToGrid */
MIAP[1]	/* MoveIndirectAbsPt */
RTG[ ]	/* RoundToGrid */
SRP0[ ]	/* SetRefPoint0 */
MIRP[01101]	/* MoveIndirectRelPt */
SRP0[ ]	/* SetRefPoint0 */
MIRP[01101]	/* MoveIndirectRelPt */
IUP[1]	/* InterpolateUntPts */
IUP[0]	/* InterpolateUntPts */";
};
width = 618;
},
{
components = (
{
alignment = -1;
name = _part.eth;
transform = "{0.41729, -0.90878, 0.90878, 0.41729, 166, 750}";
}
);
layerId = "2BD620B1-1E84-4C86-A446-E2CCA0F180F7";
paths = (
{
closed = 1;
nodes = (
"407 449 OFFCURVE",
"464 400 OFFCURVE",
"464 294 CURVE SMOOTH",
"464 157 OFFCURVE",
"391 58 OFFCURVE",
"283 58 CURVE SMOOTH",
"206 58 OFFCURVE",
"149 107 OFFCURVE",
"149 213 CURVE SMOOTH",
"149 350 OFFCURVE",
"222 449 OFFCURVE",
"329 449 CURVE SMOOTH"
);
},
{
closed = 1;
nodes = (
"553 527 OFFCURVE",
"462 674 OFFCURVE",
"291 750 CURVE",
"258 701 LINE",
"381 626 OFFCURVE",
"446 539 OFFCURVE",
"457 430 CURVE",
"469 438 LINE",
"452 502 OFFCURVE",
"390 525 OFFCURVE",
"334 525 CURVE SMOOTH",
"175 525 OFFCURVE",
"64 396 OFFCURVE",
"64 219 CURVE SMOOTH",
"64 68 OFFCURVE",
"147 -18 OFFCURVE",
"279 -18 CURVE SMOOTH",
"438 -18 OFFCURVE",
"553 112 OFFCURVE",
"553 318 CURVE SMOOTH"
);
}
);
userData = {
assembly = "NPUSHB[ ]	/* 59 values pushed */
41 13 20 32 22 28 28 1 20 2 1 1 11 10 9 8 5 3 2 1 0 9 0 1 3 0 0 1 1 30 1 2 2 0 0 1 6 0 0 14 46 19 16 36 19 24 30 24 16 11 10 9 8 6 5 3 2 1 0 
MDAP[0]	/* MoveDirectAbsPt */
MDAP[0]	/* MoveDirectAbsPt */
MDAP[0]	/* MoveDirectAbsPt */
MDAP[0]	/* MoveDirectAbsPt */
MDAP[0]	/* MoveDirectAbsPt */
MDAP[0]	/* MoveDirectAbsPt */
MDAP[0]	/* MoveDirectAbsPt */
MDAP[0]	/* MoveDirectAbsPt */
MDAP[0]	/* MoveDirectAbsPt */
MDAP[0]	/* MoveDirectAbsPt */
MDAP[1]	/* MoveDirectAbsPt */
MDAP[1]	/* MoveDirectAbsPt */
MDAP[0]	/* MoveDirectAbsPt */
SRP0[ ]	/* SetRefPoint0 */
MIRP[01101]	/* MoveIndirectRelPt */
SRP0[ ]	/* SetRefPoint0 */
MIRP[01101]	/* MoveIndirectRelPt */
CALL[ ]	/* CallFunction */
SZP0[ ]	/* SetZonePointer0 */
SRP0[ ]	/* SetRefPoint0 */
MDRP[00000]	/* MoveDirectRelPt */
SZP0[ ]	/* SetZonePointer0 */
SZP0[ ]	/* SetZonePointer0 */
SZP1[ ]	/* SetZonePointer1 */
CALL[ ]	/* CallFunction */
SZP0[ ]	/* SetZonePointer0 */
SZP1[ ]	/* SetZonePointer1 */
SZP0[ ]	/* SetZonePointer0 */
SZP1[ ]	/* SetZonePointer1 */
CALL[ ]	/* CallFunction */
SZP0[ ]	/* SetZonePointer0 */
SZP1[ ]	/* SetZonePointer1 */
MIAP[1]	/* MoveIndirectAbsPt */
RUTG[ ]	/* RoundUpToGrid */
MIAP[1]	/* MoveIndirectAbsPt */
RTG[ ]	/* RoundToGrid */
SRP0[ ]	/* SetRefPoint0 */
MIRP[01101]	/* MoveIndirectRelPt */
SRP0[ ]	/* SetRefPoint0 */
MIRP[01101]	/* MoveIndirectRelPt */
IUP[1]	/* InterpolateUntPts */
IUP[0]	/* InterpolateUntPts */";
};
width = 618;
}
);
note = eth;
unicode = 00F0;
},
{
glyphname = dcroat;
lastChange = "2022-10-01 01:33:41 +0000";
layers = (
{
components = (
{
name = d;
}
);
layerId = m01;
paths = (
{
closed = 1;
nodes = (
"293 593 LINE",
"604 593 LINE",
"604 661 LINE",
"293 661 LINE"
);
}
);
userData = {
assembly = "NPUSHB[ ]	/* 74 values pushed */
36 34 8 28 34 18 18 1 8 2 1 21 6 2 1 4 3 0 23 22 3 2 23 3 0 1 4 25 24 1 0 3 5 4 1 2 0 27 26 0 14 32 19 14 2 1 2 13 0 14 23 40 26 25 22 21 11 4 0 1 4 27 4 3 0 3 6 5 1 24 23 1 3 0 
LOOPCALL[ ]	/* LoopAndCallFunction */
LOOPCALL[ ]	/* LoopAndCallFunction */
SRP0[ ]	/* SetRefPoint0 */
MDRP[00100]	/* MoveDirectRelPt */
SRP0[ ]	/* SetRefPoint0 */
LOOPCALL[ ]	/* LoopAndCallFunction */
SRP0[ ]	/* SetRefPoint0 */
MIRP[01101]	/* MoveIndirectRelPt */
CALL[ ]	/* CallFunction */
RUTG[ ]	/* RoundUpToGrid */
MIAP[1]	/* MoveIndirectAbsPt */
ALIGNRP[ ]	/* AlignRelativePt */
RTG[ ]	/* RoundToGrid */
LOOPCALL[ ]	/* LoopAndCallFunction */
LOOPCALL[ ]	/* LoopAndCallFunction */
SZP1[ ]	/* SetZonePointer1 */
CALL[ ]	/* CallFunction */
SZP1[ ]	/* SetZonePointer1 */
MIAP[1]	/* MoveIndirectAbsPt */
RUTG[ ]	/* RoundUpToGrid */
MIAP[1]	/* MoveIndirectAbsPt */
RTG[ ]	/* RoundToGrid */
SRP0[ ]	/* SetRefPoint0 */
MIRP[01101]	/* MoveIndirectRelPt */
SRP0[ ]	/* SetRefPoint0 */
MIRP[01101]	/* MoveIndirectRelPt */
IUP[1]	/* InterpolateUntPts */
IUP[0]	/* InterpolateUntPts */";
};
width = 618;
},
{
components = (
{
name = d;
}
);
layerId = "2BD620B1-1E84-4C86-A446-E2CCA0F180F7";
paths = (
{
closed = 1;
nodes = (
"363 593 LINE",
"674 593 LINE",
"689 661 LINE",
"378 661 LINE"
);
}
);
userData = {
assembly = "NPUSHB[ ]	/* 74 values pushed */
36 34 8 28 34 18 18 1 8 2 1 21 6 2 1 4 3 0 23 22 3 2 23 3 0 1 4 25 24 1 0 3 5 4 1 2 0 27 26 0 14 32 19 14 2 1 2 13 0 14 23 40 26 25 22 21 11 4 0 1 4 27 4 3 0 3 6 5 1 24 23 1 3 0 
LOOPCALL[ ]	/* LoopAndCallFunction */
LOOPCALL[ ]	/* LoopAndCallFunction */
SRP0[ ]	/* SetRefPoint0 */
MDRP[00100]	/* MoveDirectRelPt */
SRP0[ ]	/* SetRefPoint0 */
LOOPCALL[ ]	/* LoopAndCallFunction */
SRP0[ ]	/* SetRefPoint0 */
MIRP[01101]	/* MoveIndirectRelPt */
CALL[ ]	/* CallFunction */
RUTG[ ]	/* RoundUpToGrid */
MIAP[1]	/* MoveIndirectAbsPt */
ALIGNRP[ ]	/* AlignRelativePt */
RTG[ ]	/* RoundToGrid */
LOOPCALL[ ]	/* LoopAndCallFunction */
LOOPCALL[ ]	/* LoopAndCallFunction */
SZP1[ ]	/* SetZonePointer1 */
CALL[ ]	/* CallFunction */
SZP1[ ]	/* SetZonePointer1 */
MIAP[1]	/* MoveIndirectAbsPt */
RUTG[ ]	/* RoundUpToGrid */
MIAP[1]	/* MoveIndirectAbsPt */
RTG[ ]	/* RoundToGrid */
SRP0[ ]	/* SetRefPoint0 */
MIRP[01101]	/* MoveIndirectRelPt */
SRP0[ ]	/* SetRefPoint0 */
MIRP[01101]	/* MoveIndirectRelPt */
IUP[1]	/* InterpolateUntPts */
IUP[0]	/* InterpolateUntPts */";
};
width = 618;
}
);
note = dcroat;
unicode = 0111;
},
{
glyphname = e;
lastChange = "2022-10-01 01:33:41 +0000";
layers = (
{
anchors = (
{
name = bottom;
position = "{313, 0}";
},
{
name = ogonek;
position = "{412, 0}";
},
{
name = top;
position = "{313, 524}";
}
);
layerId = m01;
paths = (
{
closed = 1;
nodes = (
"117 237 LINE",
"548 237 LINE",
"548 419 OFFCURVE",
"477 540 OFFCURVE",
"315 540 CURVE SMOOTH",
"170 540 OFFCURVE",
"75 432 OFFCURVE",
"75 257 CURVE SMOOTH",
"75 97 OFFCURVE",
"155 -18 OFFCURVE",
"313 -18 CURVE SMOOTH",
"436 -18 OFFCURVE",
"519 52 OFFCURVE",
"537 162 CURVE",
"453 162 LINE",
"430 92 OFFCURVE",
"384 59 OFFCURVE",
"316 59 CURVE SMOOTH",
"204 59 OFFCURVE",
"154 151 OFFCURVE",
"163 272 CURVE",
"160 375 OFFCURVE",
"209 463 OFFCURVE",
"314 463 CURVE SMOOTH",
"404 463 OFFCURVE",
"458 392 OFFCURVE",
"458 305 CURVE",
"117 305 LINE"
);
}
);
userData = {
assembly = "NPUSHB[ ]	/* 33 values pushed */
30 13 20 5 13 12 20 1 12 2 1 0 9 1 25 1 4 34 25 1 8 7 1 2 0 14 34 25 16 8 7 1 0 
MDAP[0]	/* MoveDirectAbsPt */
MDAP[0]	/* MoveDirectAbsPt */
MDAP[0]	/* MoveDirectAbsPt */
MDAP[0]	/* MoveDirectAbsPt */
MDAP[1]	/* MoveDirectAbsPt */
MDAP[0]	/* MoveDirectAbsPt */
MDAP[0]	/* MoveDirectAbsPt */
CALL[ ]	/* CallFunction */
LOOPCALL[ ]	/* LoopAndCallFunction */
LOOPCALL[ ]	/* LoopAndCallFunction */
MIAP[1]	/* MoveIndirectAbsPt */
RUTG[ ]	/* RoundUpToGrid */
MIAP[1]	/* MoveIndirectAbsPt */
RTG[ ]	/* RoundToGrid */
SRP0[ ]	/* SetRefPoint0 */
MIRP[01101]	/* MoveIndirectRelPt */
SRP0[ ]	/* SetRefPoint0 */
MIRP[01101]	/* MoveIndirectRelPt */
IUP[1]	/* InterpolateUntPts */
IUP[0]	/* InterpolateUntPts */";
};
width = 618;
},
{
anchors = (
{
name = bottom;
position = "{259, 0}";
},
{
name = ogonek;
position = "{374, 0}";
},
{
name = top;
position = "{350, 524}";
}
);
layerId = "2BD620B1-1E84-4C86-A446-E2CCA0F180F7";
paths = (
{
closed = 1;
nodes = (
"481 305 LINE",
"113 305 LINE",
"113 237 LINE",
"537 237 LINE",
"543 267 OFFCURVE",
"546 295 OFFCURVE",
"546 329 CURVE SMOOTH",
"546 462 OFFCURVE",
"461 540 OFFCURVE",
"345 540 CURVE SMOOTH",
"181 540 OFFCURVE",
"64 401 OFFCURVE",
"64 209 CURVE SMOOTH",
"64 73 OFFCURVE",
"147 -18 OFFCURVE",
"277 -18 CURVE SMOOTH",
"385 -18 OFFCURVE",
"483 42 OFFCURVE",
"523 162 CURVE",
"435 162 LINE",
"406 91 OFFCURVE",
"353 58 OFFCURVE",
"287 58 CURVE SMOOTH",
"194 58 OFFCURVE",
"147 116 OFFCURVE",
"147 207 CURVE SMOOTH",
"147 350 OFFCURVE",
"220 464 OFFCURVE",
"341 464 CURVE SMOOTH",
"433 464 OFFCURVE",
"476 389 OFFCURVE",
"459 274 CURVE"
);
}
);
userData = {
assembly = "NPUSHB[ ]	/* 33 values pushed */
30 13 20 5 13 12 20 1 12 2 1 0 9 1 25 1 4 34 25 1 8 7 1 2 0 14 34 25 16 8 7 1 0 
MDAP[0]	/* MoveDirectAbsPt */
MDAP[0]	/* MoveDirectAbsPt */
MDAP[0]	/* MoveDirectAbsPt */
MDAP[0]	/* MoveDirectAbsPt */
MDAP[1]	/* MoveDirectAbsPt */
MDAP[0]	/* MoveDirectAbsPt */
MDAP[0]	/* MoveDirectAbsPt */
CALL[ ]	/* CallFunction */
LOOPCALL[ ]	/* LoopAndCallFunction */
LOOPCALL[ ]	/* LoopAndCallFunction */
MIAP[1]	/* MoveIndirectAbsPt */
RUTG[ ]	/* RoundUpToGrid */
MIAP[1]	/* MoveIndirectAbsPt */
RTG[ ]	/* RoundToGrid */
SRP0[ ]	/* SetRefPoint0 */
MIRP[01101]	/* MoveIndirectRelPt */
SRP0[ ]	/* SetRefPoint0 */
MIRP[01101]	/* MoveIndirectRelPt */
IUP[1]	/* InterpolateUntPts */
IUP[0]	/* InterpolateUntPts */";
};
width = 618;
}
);
note = e;
unicode = 0065;
},
{
glyphname = f;
lastChange = "2022-10-01 01:33:41 +0000";
layers = (
{
layerId = m01;
paths = (
{
closed = 1;
nodes = (
"342 575 LINE SMOOTH",
"342 646 OFFCURVE",
"376 666 OFFCURVE",
"472 666 CURVE SMOOTH",
"491 666 OFFCURVE",
"520 664 OFFCURVE",
"548 661 CURVE",
"548 733 LINE",
"513 738 OFFCURVE",
"483 739 OFFCURVE",
"452 739 CURVE SMOOTH",
"324 739 OFFCURVE",
"259 691 OFFCURVE",
"259 582 CURVE SMOOTH",
"259 524 LINE",
"89 524 LINE",
"89 456 LINE",
"259 456 LINE",
"259 0 LINE",
"342 0 LINE",
"342 456 LINE",
"549 456 LINE",
"549 524 LINE",
"342 524 LINE"
);
}
);
userData = {
assembly = "NPUSHB[ ]	/* 59 values pushed */
17 22 12 12 0 1 19 15 14 9 4 0 0 3 0 6 5 2 1 9 3 0 1 4 4 3 1 0 20 8 7 0 1 3 14 20 19 3 2 11 3 4 1 4 15 14 1 0 3 9 8 5 4 3 7 6 1 3 0 
LOOPCALL[ ]	/* LoopAndCallFunction */
LOOPCALL[ ]	/* LoopAndCallFunction */
CALL[ ]	/* CallFunction */
RUTG[ ]	/* RoundUpToGrid */
SLOOP[ ]	/* SetLoopVariable */
MIAP[1]	/* MoveIndirectAbsPt */
ALIGNRP[ ]	/* AlignRelativePt */
RTG[ ]	/* RoundToGrid */
CALL[ ]	/* CallFunction */
LOOPCALL[ ]	/* LoopAndCallFunction */
SZP1[ ]	/* SetZonePointer1 */
CALL[ ]	/* CallFunction */
SZP1[ ]	/* SetZonePointer1 */
RUTG[ ]	/* RoundUpToGrid */
MIAP[1]	/* MoveIndirectAbsPt */
RTG[ ]	/* RoundToGrid */
SRP0[ ]	/* SetRefPoint0 */
MIRP[01101]	/* MoveIndirectRelPt */
IUP[1]	/* InterpolateUntPts */
IUP[0]	/* InterpolateUntPts */";
};
width = 618;
},
{
layerId = "2BD620B1-1E84-4C86-A446-E2CCA0F180F7";
paths = (
{
closed = 1;
nodes = (
"416 581 LINE SMOOTH",
"431 645 OFFCURVE",
"478 666 OFFCURVE",
"543 666 CURVE SMOOTH",
"590 666 OFFCURVE",
"628 661 OFFCURVE",
"666 649 CURVE",
"624 617 LINE",
"657 777 LINE",
"681 717 LINE",
"632 734 OFFCURVE",
"593 739 OFFCURVE",
"544 739 CURVE SMOOTH",
"432 739 OFFCURVE",
"355 691 OFFCURVE",
"335 595 CURVE SMOOTH",
"320 524 LINE",
"145 524 LINE",
"130 456 LINE",
"305 456 LINE",
"208 0 LINE",
"291 0 LINE",
"388 456 LINE",
"590 456 LINE",
"605 524 LINE",
"403 524 LINE"
);
}
);
userData = {
assembly = "NPUSHB[ ]	/* 59 values pushed */
17 22 12 12 0 1 19 15 14 9 4 0 0 3 0 6 5 2 1 9 3 0 1 4 4 3 1 0 20 8 7 0 1 3 14 20 19 3 2 11 3 4 1 4 15 14 1 0 3 9 8 5 4 3 7 6 1 3 0 
LOOPCALL[ ]	/* LoopAndCallFunction */
LOOPCALL[ ]	/* LoopAndCallFunction */
CALL[ ]	/* CallFunction */
RUTG[ ]	/* RoundUpToGrid */
SLOOP[ ]	/* SetLoopVariable */
MIAP[1]	/* MoveIndirectAbsPt */
ALIGNRP[ ]	/* AlignRelativePt */
RTG[ ]	/* RoundToGrid */
CALL[ ]	/* CallFunction */
LOOPCALL[ ]	/* LoopAndCallFunction */
SZP1[ ]	/* SetZonePointer1 */
CALL[ ]	/* CallFunction */
SZP1[ ]	/* SetZonePointer1 */
RUTG[ ]	/* RoundUpToGrid */
MIAP[1]	/* MoveIndirectAbsPt */
RTG[ ]	/* RoundToGrid */
SRP0[ ]	/* SetRefPoint0 */
MIRP[01101]	/* MoveIndirectRelPt */
IUP[1]	/* InterpolateUntPts */
IUP[0]	/* InterpolateUntPts */";
};
width = 618;
}
);
note = f;
unicode = 0066;
},
{
glyphname = g;
lastChange = "2022-10-01 01:33:41 +0000";
layers = (
{
anchors = (
{
name = bottom;
position = "{309, -218}";
},
{
name = top;
position = "{309, 524}";
}
);
layerId = m01;
paths = (
{
closed = 1;
nodes = (
"409 -218 OFFCURVE",
"484 -172 OFFCURVE",
"513 -81 CURVE SMOOTH",
"525 -43 OFFCURVE",
"531 12 OFFCURVE",
"531 85 CURVE SMOOTH",
"531 524 LINE",
"448 524 LINE",
"448 459 LINE",
"412 513 OFFCURVE",
"358 540 OFFCURVE",
"287 540 CURVE SMOOTH",
"138 540 OFFCURVE",
"62 418 OFFCURVE",
"62 264 CURVE SMOOTH",
"62 103 OFFCURVE",
"135 -18 OFFCURVE",
"290 -18 CURVE SMOOTH",
"359 -18 OFFCURVE",
"415 13 OFFCURVE",
"446 74 CURVE",
"446 44 LINE SMOOTH",
"446 -96 OFFCURVE",
"403 -148 OFFCURVE",
"298 -148 CURVE SMOOTH",
"222 -148 OFFCURVE",
"181 -119 OFFCURVE",
"169 -60 CURVE",
"82 -60 LINE",
"96 -171 OFFCURVE",
"182 -218 OFFCURVE",
"296 -218 CURVE SMOOTH"
);
},
{
closed = 1;
nodes = (
"195 60 OFFCURVE",
"149 154 OFFCURVE",
"149 261 CURVE SMOOTH",
"149 374 OFFCURVE",
"203 462 OFFCURVE",
"301 462 CURVE SMOOTH",
"406 462 OFFCURVE",
"448 363 OFFCURVE",
"448 258 CURVE SMOOTH",
"448 161 OFFCURVE",
"407 60 OFFCURVE",
"302 60 CURVE SMOOTH"
);
}
);
userData = {
assembly = "NPUSHB[ ]	/* 56 values pushed */
43 13 23 35 13 31 15 18 6 31 1 23 2 6 3 1 34 19 18 2 4 0 2 3 0 11 10 1 0 1 0 1 14 39 19 27 19 18 11 10 4 13 47 27 0 34 0 25 1 1 1 4 2 1 1 0 
CALL[ ]	/* CallFunction */
LOOPCALL[ ]	/* LoopAndCallFunction */
SRP0[ ]	/* SetRefPoint0 */
MDRP[00100]	/* MoveDirectRelPt */
MDRP[00100]	/* MoveDirectRelPt */
LOOPCALL[ ]	/* LoopAndCallFunction */
SRP0[ ]	/* SetRefPoint0 */
MIRP[01101]	/* MoveIndirectRelPt */
CALL[ ]	/* CallFunction */
RUTG[ ]	/* RoundUpToGrid */
MIAP[1]	/* MoveIndirectAbsPt */
ALIGNRP[ ]	/* AlignRelativePt */
RTG[ ]	/* RoundToGrid */
CALL[ ]	/* CallFunction */
SZP0[ ]	/* SetZonePointer0 */
CALL[ ]	/* CallFunction */
SZP0[ ]	/* SetZonePointer0 */
MIAP[1]	/* MoveIndirectAbsPt */
MIAP[1]	/* MoveIndirectAbsPt */
RUTG[ ]	/* RoundUpToGrid */
MIAP[1]	/* MoveIndirectAbsPt */
RTG[ ]	/* RoundToGrid */
SRP0[ ]	/* SetRefPoint0 */
MIRP[01101]	/* MoveIndirectRelPt */
SRP0[ ]	/* SetRefPoint0 */
MIRP[01101]	/* MoveIndirectRelPt */
SRP0[ ]	/* SetRefPoint0 */
MIRP[01101]	/* MoveIndirectRelPt */
IUP[1]	/* InterpolateUntPts */
IUP[0]	/* InterpolateUntPts */";
};
width = 618;
},
{
anchors = (
{
name = bottom;
position = "{207, -218}";
},
{
name = top;
position = "{347, 524}";
}
);
layerId = "2BD620B1-1E84-4C86-A446-E2CCA0F180F7";
paths = (
{
closed = 1;
nodes = (
"372 -218 OFFCURVE",
"444 -148 OFFCURVE",
"477 6 CURVE SMOOTH",
"587 524 LINE",
"513 524 LINE",
"476 350 LINE",
"497 357 LINE",
"502 467 OFFCURVE",
"423 540 OFFCURVE",
"313 540 CURVE SMOOTH",
"169 540 OFFCURVE",
"47 405 OFFCURVE",
"47 221 CURVE SMOOTH",
"47 71 OFFCURVE",
"130 -18 OFFCURVE",
"250 -18 CURVE SMOOTH",
"332 -18 OFFCURVE",
"407 42 OFFCURVE",
"451 124 CURVE",
"415 109 LINE",
"389 -14 LINE SMOOTH",
"370 -102 OFFCURVE",
"322 -148 OFFCURVE",
"230 -148 CURVE SMOOTH",
"146 -148 OFFCURVE",
"98 -117 OFFCURVE",
"86 -50 CURVE",
"4 -50 LINE",
"7 -153 OFFCURVE",
"92 -218 OFFCURVE",
"224 -218 CURVE SMOOTH"
);
},
{
closed = 1;
nodes = (
"190 58 OFFCURVE",
"132 106 OFFCURVE",
"132 208 CURVE SMOOTH",
"132 357 OFFCURVE",
"210 464 OFFCURVE",
"315 464 CURVE SMOOTH",
"391 464 OFFCURVE",
"451 420 OFFCURVE",
"451 305 CURVE SMOOTH",
"451 171 OFFCURVE",
"375 58 OFFCURVE",
"269 58 CURVE SMOOTH"
);
}
);
userData = {
assembly = "NPUSHB[ ]	/* 56 values pushed */
43 13 23 35 13 31 15 18 6 31 1 23 2 6 3 1 34 19 18 2 4 0 2 3 0 11 10 1 0 1 0 1 14 39 19 27 19 18 11 10 4 13 47 27 0 34 0 25 1 1 1 4 2 1 1 0 
CALL[ ]	/* CallFunction */
LOOPCALL[ ]	/* LoopAndCallFunction */
SRP0[ ]	/* SetRefPoint0 */
MDRP[00100]	/* MoveDirectRelPt */
MDRP[00100]	/* MoveDirectRelPt */
LOOPCALL[ ]	/* LoopAndCallFunction */
SRP0[ ]	/* SetRefPoint0 */
MIRP[01101]	/* MoveIndirectRelPt */
CALL[ ]	/* CallFunction */
RUTG[ ]	/* RoundUpToGrid */
MIAP[1]	/* MoveIndirectAbsPt */
ALIGNRP[ ]	/* AlignRelativePt */
RTG[ ]	/* RoundToGrid */
CALL[ ]	/* CallFunction */
SZP0[ ]	/* SetZonePointer0 */
CALL[ ]	/* CallFunction */
SZP0[ ]	/* SetZonePointer0 */
MIAP[1]	/* MoveIndirectAbsPt */
MIAP[1]	/* MoveIndirectAbsPt */
RUTG[ ]	/* RoundUpToGrid */
MIAP[1]	/* MoveIndirectAbsPt */
RTG[ ]	/* RoundToGrid */
SRP0[ ]	/* SetRefPoint0 */
MIRP[01101]	/* MoveIndirectRelPt */
SRP0[ ]	/* SetRefPoint0 */
MIRP[01101]	/* MoveIndirectRelPt */
SRP0[ ]	/* SetRefPoint0 */
MIRP[01101]	/* MoveIndirectRelPt */
IUP[1]	/* InterpolateUntPts */
IUP[0]	/* InterpolateUntPts */";
};
width = 618;
}
);
note = g;
unicode = 0067;
},
{
glyphname = h;
lastChange = "2022-10-01 01:33:41 +0000";
layers = (
{
layerId = m01;
paths = (
{
closed = 1;
nodes = (
"184 0 LINE",
"184 295 LINE SMOOTH",
"184 385 OFFCURVE",
"233 466 OFFCURVE",
"327 466 CURVE SMOOTH",
"385 466 OFFCURVE",
"435 433 OFFCURVE",
"435 363 CURVE SMOOTH",
"435 0 LINE",
"518 0 LINE",
"518 396 LINE SMOOTH",
"518 493 OFFCURVE",
"443 539 OFFCURVE",
"352 539 CURVE SMOOTH",
"269 539 OFFCURVE",
"221 501 OFFCURVE",
"184 446 CURVE",
"184 729 LINE",
"101 729 LINE",
"101 0 LINE"
);
}
);
userData = {
assembly = "NPUSHB[ ]	/* 47 values pushed */
17 22 6 6 1 1 21 13 10 2 4 1 11 3 0 23 22 12 11 3 0 1 0 0 14 13 12 11 1 10 22 21 2 1 11 3 0 2 4 11 10 1 23 0 1 2 0 
LOOPCALL[ ]	/* LoopAndCallFunction */
LOOPCALL[ ]	/* LoopAndCallFunction */
CALL[ ]	/* CallFunction */
RUTG[ ]	/* RoundUpToGrid */
MIAP[1]	/* MoveIndirectAbsPt */
ALIGNRP[ ]	/* AlignRelativePt */
RTG[ ]	/* RoundToGrid */
CALL[ ]	/* CallFunction */
SZP1[ ]	/* SetZonePointer1 */
CALL[ ]	/* CallFunction */
SZP1[ ]	/* SetZonePointer1 */
RUTG[ ]	/* RoundUpToGrid */
MIAP[1]	/* MoveIndirectAbsPt */
RTG[ ]	/* RoundToGrid */
SRP0[ ]	/* SetRefPoint0 */
MIRP[01101]	/* MoveIndirectRelPt */
IUP[1]	/* InterpolateUntPts */
IUP[0]	/* InterpolateUntPts */";
};
width = 618;
},
{
guideLines = (
{
angle = 78;
position = "{128, 0}";
}
);
layerId = "2BD620B1-1E84-4C86-A446-E2CCA0F180F7";
paths = (
{
closed = 1;
nodes = (
"128 0 LINE",
"191 295 LINE SMOOTH",
"208 375 OFFCURVE",
"285 466 OFFCURVE",
"381 466 CURVE SMOOTH",
"444 466 OFFCURVE",
"470 429 OFFCURVE",
"456 363 CURVE SMOOTH",
"379 0 LINE",
"462 0 LINE",
"542 376 LINE SMOOTH",
"563 474 OFFCURVE",
"508 539 OFFCURVE",
"409 539 CURVE SMOOTH",
"310 539 OFFCURVE",
"247 480 OFFCURVE",
"192 399 CURVE",
"211 393 LINE",
"283 729 LINE",
"201 729 LINE",
"45 0 LINE"
);
}
);
userData = {
assembly = "NPUSHB[ ]	/* 47 values pushed */
17 22 6 6 1 1 21 13 10 2 4 1 11 3 0 23 22 12 11 3 0 1 0 0 14 13 12 11 1 10 22 21 2 1 11 3 0 2 4 11 10 1 23 0 1 2 0 
LOOPCALL[ ]	/* LoopAndCallFunction */
LOOPCALL[ ]	/* LoopAndCallFunction */
CALL[ ]	/* CallFunction */
RUTG[ ]	/* RoundUpToGrid */
MIAP[1]	/* MoveIndirectAbsPt */
ALIGNRP[ ]	/* AlignRelativePt */
RTG[ ]	/* RoundToGrid */
CALL[ ]	/* CallFunction */
SZP1[ ]	/* SetZonePointer1 */
CALL[ ]	/* CallFunction */
SZP1[ ]	/* SetZonePointer1 */
RUTG[ ]	/* RoundUpToGrid */
MIAP[1]	/* MoveIndirectAbsPt */
RTG[ ]	/* RoundToGrid */
SRP0[ ]	/* SetRefPoint0 */
MIRP[01101]	/* MoveIndirectRelPt */
IUP[1]	/* InterpolateUntPts */
IUP[0]	/* InterpolateUntPts */";
};
width = 618;
}
);
note = h;
unicode = 0068;
},
{
glyphname = hbar;
lastChange = "2022-10-01 01:33:41 +0000";
layers = (
{
components = (
{
name = h;
}
);
layerId = m01;
paths = (
{
closed = 1;
nodes = (
"325 593 LINE",
"325 661 LINE",
"14 661 LINE",
"14 593 LINE"
);
}
);
userData = {
assembly = "NPUSHB[ ]	/* 72 values pushed */
19 22 8 8 1 1 23 15 12 4 4 1 13 3 0 27 26 3 2 23 3 0 1 4 29 28 1 0 3 25 24 14 13 3 2 0 31 30 0 14 15 14 11 1 12 31 24 23 4 3 0 11 5 25 2 4 13 12 1 2 1 1 30 29 26 25 3 28 27 1 4 0 
LOOPCALL[ ]	/* LoopAndCallFunction */
LOOPCALL[ ]	/* LoopAndCallFunction */
CALL[ ]	/* CallFunction */
RUTG[ ]	/* RoundUpToGrid */
MIAP[1]	/* MoveIndirectAbsPt */
ALIGNRP[ ]	/* AlignRelativePt */
RTG[ ]	/* RoundToGrid */
LOOPCALL[ ]	/* LoopAndCallFunction */
LOOPCALL[ ]	/* LoopAndCallFunction */
SZP1[ ]	/* SetZonePointer1 */
CALL[ ]	/* CallFunction */
SZP1[ ]	/* SetZonePointer1 */
RUTG[ ]	/* RoundUpToGrid */
MIAP[1]	/* MoveIndirectAbsPt */
RTG[ ]	/* RoundToGrid */
SRP0[ ]	/* SetRefPoint0 */
MIRP[01101]	/* MoveIndirectRelPt */
IUP[1]	/* InterpolateUntPts */
IUP[0]	/* InterpolateUntPts */";
};
width = 618;
},
{
components = (
{
name = h;
}
);
layerId = "2BD620B1-1E84-4C86-A446-E2CCA0F180F7";
paths = (
{
closed = 1;
nodes = (
"395 593 LINE",
"410 661 LINE",
"99 661 LINE",
"84 593 LINE"
);
}
);
userData = {
assembly = "NPUSHB[ ]	/* 72 values pushed */
19 22 8 8 1 1 23 15 12 4 4 1 13 3 0 27 26 3 2 23 3 0 1 4 29 28 1 0 3 25 24 14 13 3 2 0 31 30 0 14 15 14 11 1 12 31 24 23 4 3 0 11 5 25 2 4 13 12 1 2 1 1 30 29 26 25 3 28 27 1 4 0 
LOOPCALL[ ]	/* LoopAndCallFunction */
LOOPCALL[ ]	/* LoopAndCallFunction */
CALL[ ]	/* CallFunction */
RUTG[ ]	/* RoundUpToGrid */
MIAP[1]	/* MoveIndirectAbsPt */
ALIGNRP[ ]	/* AlignRelativePt */
RTG[ ]	/* RoundToGrid */
LOOPCALL[ ]	/* LoopAndCallFunction */
LOOPCALL[ ]	/* LoopAndCallFunction */
SZP1[ ]	/* SetZonePointer1 */
CALL[ ]	/* CallFunction */
SZP1[ ]	/* SetZonePointer1 */
RUTG[ ]	/* RoundUpToGrid */
MIAP[1]	/* MoveIndirectAbsPt */
RTG[ ]	/* RoundToGrid */
SRP0[ ]	/* SetRefPoint0 */
MIRP[01101]	/* MoveIndirectRelPt */
IUP[1]	/* InterpolateUntPts */
IUP[0]	/* InterpolateUntPts */";
};
width = 618;
}
);
note = hbar;
unicode = 0127;
},
{
glyphname = i;
lastChange = "2022-10-01 01:33:41 +0000";
layers = (
{
components = (
{
alignment = -1;
name = idotless;
}
);
guideLines = (
{
angle = 90;
position = "{318, 456}";
}
);
layerId = m01;
paths = (
{
closed = 1;
nodes = (
"368 599 LINE",
"368 699 LINE",
"268 699 LINE",
"268 599 LINE"
);
}
);
userData = {
assembly = "NPUSHB[ ]	/* 38 values pushed */
6 5 5 1 4 1 4 2 1 1 0 7 4 0 3 0 1 14 5 4 11 1 6 1 0 11 1 2 2 4 7 6 1 3 2 1 2 0 
LOOPCALL[ ]	/* LoopAndCallFunction */
LOOPCALL[ ]	/* LoopAndCallFunction */
CALL[ ]	/* CallFunction */
RUTG[ ]	/* RoundUpToGrid */
MIAP[1]	/* MoveIndirectAbsPt */
ALIGNRP[ ]	/* AlignRelativePt */
RTG[ ]	/* RoundToGrid */
MIAP[1]	/* MoveIndirectAbsPt */
ALIGNRP[ ]	/* AlignRelativePt */
CALL[ ]	/* CallFunction */
LOOPCALL[ ]	/* LoopAndCallFunction */
IUP[1]	/* InterpolateUntPts */
IUP[0]	/* InterpolateUntPts */";
};
width = 618;
},
{
components = (
{
alignment = -1;
name = idotless;
}
);
guideLines = (
{
angle = 90;
position = "{318, 456}";
}
);
layerId = "2BD620B1-1E84-4C86-A446-E2CCA0F180F7";
paths = (
{
closed = 1;
nodes = (
"440 599 LINE",
"461 699 LINE",
"361 699 LINE",
"340 599 LINE"
);
}
);
userData = {
assembly = "NPUSHB[ ]	/* 38 values pushed */
6 5 5 1 4 1 4 2 1 1 0 7 4 0 3 0 1 14 5 4 11 1 6 1 0 11 1 2 2 4 7 6 1 3 2 1 2 0 
LOOPCALL[ ]	/* LoopAndCallFunction */
LOOPCALL[ ]	/* LoopAndCallFunction */
CALL[ ]	/* CallFunction */
RUTG[ ]	/* RoundUpToGrid */
MIAP[1]	/* MoveIndirectAbsPt */
ALIGNRP[ ]	/* AlignRelativePt */
RTG[ ]	/* RoundToGrid */
MIAP[1]	/* MoveIndirectAbsPt */
ALIGNRP[ ]	/* AlignRelativePt */
CALL[ ]	/* CallFunction */
LOOPCALL[ ]	/* LoopAndCallFunction */
IUP[1]	/* InterpolateUntPts */
IUP[0]	/* InterpolateUntPts */";
};
width = 618;
}
);
note = i;
unicode = 0069;
},
{
glyphname = idotless;
lastChange = "2022-10-01 01:33:41 +0000";
layers = (
{
anchors = (
{
name = bottom;
position = "{309, 0}";
},
{
name = ogonek;
position = "{389, 0}";
},
{
name = top;
position = "{309, 524}";
}
);
layerId = m01;
paths = (
{
closed = 1;
nodes = (
"97 524 LINE",
"97 456 LINE",
"277 456 LINE",
"277 68 LINE",
"97 68 LINE",
"97 0 LINE",
"520 0 LINE",
"520 68 LINE",
"359 68 LINE",
"359 524 LINE"
);
}
);
userData = {
assembly = "NPUSHB[ ]	/* 19 values pushed */
2 1 1 0 3 0 1 14 1 0 11 1 2 1 4 3 2 1 0 
CALL[ ]	/* CallFunction */
LOOPCALL[ ]	/* LoopAndCallFunction */
CALL[ ]	/* CallFunction */
RUTG[ ]	/* RoundUpToGrid */
MIAP[1]	/* MoveIndirectAbsPt */
ALIGNRP[ ]	/* AlignRelativePt */
RTG[ ]	/* RoundToGrid */
CALL[ ]	/* CallFunction */
IUP[1]	/* InterpolateUntPts */
IUP[0]	/* InterpolateUntPts */";
};
width = 618;
},
{
anchors = (
{
name = bottom;
position = "{253, 0}";
},
{
name = ogonek;
position = "{333, 0}";
},
{
name = top;
position = "{365, 524}";
}
);
layerId = "2BD620B1-1E84-4C86-A446-E2CCA0F180F7";
paths = (
{
closed = 1;
nodes = (
"153 524 LINE",
"138 456 LINE",
"318 456 LINE",
"236 68 LINE",
"56 68 LINE",
"41 0 LINE",
"464 0 LINE",
"479 68 LINE",
"318 68 LINE",
"415 524 LINE"
);
}
);
userData = {
assembly = "NPUSHB[ ]	/* 19 values pushed */
2 1 1 0 3 0 1 14 1 0 11 1 2 1 4 3 2 1 0 
CALL[ ]	/* CallFunction */
LOOPCALL[ ]	/* LoopAndCallFunction */
CALL[ ]	/* CallFunction */
RUTG[ ]	/* RoundUpToGrid */
MIAP[1]	/* MoveIndirectAbsPt */
ALIGNRP[ ]	/* AlignRelativePt */
RTG[ ]	/* RoundToGrid */
CALL[ ]	/* CallFunction */
IUP[1]	/* InterpolateUntPts */
IUP[0]	/* InterpolateUntPts */";
};
width = 618;
}
);
note = dotlessi;
unicode = 0131;
},
{
glyphname = ij;
lastChange = "2022-10-01 01:33:41 +0000";
layers = (
{
layerId = m01;
paths = (
{
closed = 1;
nodes = (
"224 599 LINE",
"224 699 LINE",
"124 699 LINE",
"124 599 LINE"
);
},
{
closed = 1;
nodes = (
"133 524 LINE",
"133 0 LINE",
"215 0 LINE",
"215 524 LINE"
);
},
{
closed = 1;
nodes = (
"402 -113 OFFCURVE",
"375 -144 OFFCURVE",
"303 -144 CURVE SMOOTH",
"280 -144 OFFCURVE",
"250 -143 OFFCURVE",
"226 -138 CURVE",
"225 -210 LINE",
"249 -216 OFFCURVE",
"277 -218 OFFCURVE",
"307 -218 CURVE SMOOTH",
"422 -218 OFFCURVE",
"485 -158 OFFCURVE",
"485 -55 CURVE SMOOTH",
"485 524 LINE",
"402 524 LINE",
"402 -35 LINE SMOOTH"
);
},
{
closed = 1;
nodes = (
"494 599 LINE",
"494 699 LINE",
"394 699 LINE",
"394 599 LINE"
);
}
);
userData = {
assembly = "NPUSHB[ ]	/* 76 values pushed */
18 22 13 13 3 1 21 16 15 10 4 1 3 3 0 24 23 6 5 5 3 4 1 4 2 1 1 0 25 22 7 4 0 3 9 8 3 0 1 3 14 25 24 21 8 11 3 9 5 4 11 1 6 1 0 11 1 2 3 4 23 22 10 9 3 16 15 1 7 6 1 3 2 1 4 0 
LOOPCALL[ ]	/* LoopAndCallFunction */
LOOPCALL[ ]	/* LoopAndCallFunction */
CALL[ ]	/* CallFunction */
RUTG[ ]	/* RoundUpToGrid */
SLOOP[ ]	/* SetLoopVariable */
MIAP[1]	/* MoveIndirectAbsPt */
ALIGNRP[ ]	/* AlignRelativePt */
RTG[ ]	/* RoundToGrid */
SLOOP[ ]	/* SetLoopVariable */
MIAP[1]	/* MoveIndirectAbsPt */
ALIGNRP[ ]	/* AlignRelativePt */
CALL[ ]	/* CallFunction */
LOOPCALL[ ]	/* LoopAndCallFunction */
SZP0[ ]	/* SetZonePointer0 */
CALL[ ]	/* CallFunction */
SZP0[ ]	/* SetZonePointer0 */
MIAP[1]	/* MoveIndirectAbsPt */
SRP0[ ]	/* SetRefPoint0 */
MIRP[01101]	/* MoveIndirectRelPt */
IUP[1]	/* InterpolateUntPts */
IUP[0]	/* InterpolateUntPts */";
};
width = 618;
},
{
layerId = "2BD620B1-1E84-4C86-A446-E2CCA0F180F7";
paths = (
{
closed = 1;
nodes = (
"296 599 LINE",
"317 699 LINE",
"217 699 LINE",
"196 599 LINE"
);
},
{
closed = 1;
nodes = (
"189 524 LINE",
"77 0 LINE",
"159 0 LINE",
"271 524 LINE"
);
},
{
closed = 1;
nodes = (
"322 -113 OFFCURVE",
"275 -144 OFFCURVE",
"212 -144 CURVE SMOOTH",
"189 -144 OFFCURVE",
"164 -141 OFFCURVE",
"141 -135 CURVE",
"125 -207 LINE",
"147 -214 OFFCURVE",
"175 -218 OFFCURVE",
"205 -218 CURVE SMOOTH",
"333 -218 OFFCURVE",
"396 -158 OFFCURVE",
"416 -65 CURVE SMOOTH",
"541 524 LINE",
"458 524 LINE",
"337 -44 LINE SMOOTH"
);
},
{
closed = 1;
nodes = (
"566 599 LINE",
"587 699 LINE",
"487 699 LINE",
"466 599 LINE"
);
}
);
userData = {
assembly = "NPUSHB[ ]	/* 76 values pushed */
18 22 13 13 3 1 21 16 15 10 4 1 3 3 0 24 23 6 5 5 3 4 1 4 2 1 1 0 25 22 7 4 0 3 9 8 3 0 1 3 14 25 24 21 8 11 3 9 5 4 11 1 6 1 0 11 1 2 3 4 23 22 10 9 3 16 15 1 7 6 1 3 2 1 4 0 
LOOPCALL[ ]	/* LoopAndCallFunction */
LOOPCALL[ ]	/* LoopAndCallFunction */
CALL[ ]	/* CallFunction */
RUTG[ ]	/* RoundUpToGrid */
SLOOP[ ]	/* SetLoopVariable */
MIAP[1]	/* MoveIndirectAbsPt */
ALIGNRP[ ]	/* AlignRelativePt */
RTG[ ]	/* RoundToGrid */
SLOOP[ ]	/* SetLoopVariable */
MIAP[1]	/* MoveIndirectAbsPt */
ALIGNRP[ ]	/* AlignRelativePt */
CALL[ ]	/* CallFunction */
LOOPCALL[ ]	/* LoopAndCallFunction */
SZP0[ ]	/* SetZonePointer0 */
CALL[ ]	/* CallFunction */
SZP0[ ]	/* SetZonePointer0 */
MIAP[1]	/* MoveIndirectAbsPt */
SRP0[ ]	/* SetRefPoint0 */
MIRP[01101]	/* MoveIndirectRelPt */
IUP[1]	/* InterpolateUntPts */
IUP[0]	/* InterpolateUntPts */";
};
width = 618;
}
);
widthMetricsKey = "=618";
note = ij;
unicode = 0133;
},
{
glyphname = j;
lastChange = "2022-10-01 01:33:41 +0000";
layers = (
{
components = (
{
alignment = -1;
name = jdotless;
}
);
guideLines = (
{
angle = 90;
position = "{374, 524}";
}
);
layerId = m01;
paths = (
{
closed = 1;
nodes = (
"424 599 LINE",
"424 699 LINE",
"324 699 LINE",
"324 599 LINE"
);
}
);
userData = {
assembly = "NPUSHB[ ]	/* 50 values pushed */
10 22 5 5 3 1 1 13 8 7 2 4 2 3 3 0 0 16 15 5 1 14 1 4 17 14 0 1 0 1 14 17 16 13 0 11 3 1 1 4 15 14 2 1 3 8 7 1 2 0 
LOOPCALL[ ]	/* LoopAndCallFunction */
LOOPCALL[ ]	/* LoopAndCallFunction */
CALL[ ]	/* CallFunction */
RUTG[ ]	/* RoundUpToGrid */
MIAP[1]	/* MoveIndirectAbsPt */
ALIGNRP[ ]	/* AlignRelativePt */
RTG[ ]	/* RoundToGrid */
MIAP[1]	/* MoveIndirectAbsPt */
ALIGNRP[ ]	/* AlignRelativePt */
LOOPCALL[ ]	/* LoopAndCallFunction */
SZP0[ ]	/* SetZonePointer0 */
SZP1[ ]	/* SetZonePointer1 */
CALL[ ]	/* CallFunction */
SZP0[ ]	/* SetZonePointer0 */
SZP1[ ]	/* SetZonePointer1 */
MIAP[1]	/* MoveIndirectAbsPt */
SRP0[ ]	/* SetRefPoint0 */
MIRP[01101]	/* MoveIndirectRelPt */
IUP[1]	/* InterpolateUntPts */
IUP[0]	/* InterpolateUntPts */";
};
width = 618;
},
{
components = (
{
alignment = -1;
name = jdotless;
}
);
guideLines = (
{
angle = 90;
position = "{374, 524}";
}
);
layerId = "2BD620B1-1E84-4C86-A446-E2CCA0F180F7";
paths = (
{
closed = 1;
nodes = (
"496 599 LINE",
"517 699 LINE",
"417 699 LINE",
"396 599 LINE"
);
}
);
userData = {
assembly = "NPUSHB[ ]	/* 50 values pushed */
10 22 5 5 3 1 1 13 8 7 2 4 2 3 3 0 0 16 15 5 1 14 1 4 17 14 0 1 0 1 14 17 16 13 0 11 3 1 1 4 15 14 2 1 3 8 7 1 2 0 
LOOPCALL[ ]	/* LoopAndCallFunction */
LOOPCALL[ ]	/* LoopAndCallFunction */
CALL[ ]	/* CallFunction */
RUTG[ ]	/* RoundUpToGrid */
MIAP[1]	/* MoveIndirectAbsPt */
ALIGNRP[ ]	/* AlignRelativePt */
RTG[ ]	/* RoundToGrid */
MIAP[1]	/* MoveIndirectAbsPt */
ALIGNRP[ ]	/* AlignRelativePt */
LOOPCALL[ ]	/* LoopAndCallFunction */
SZP0[ ]	/* SetZonePointer0 */
SZP1[ ]	/* SetZonePointer1 */
CALL[ ]	/* CallFunction */
SZP0[ ]	/* SetZonePointer0 */
SZP1[ ]	/* SetZonePointer1 */
MIAP[1]	/* MoveIndirectAbsPt */
SRP0[ ]	/* SetRefPoint0 */
MIRP[01101]	/* MoveIndirectRelPt */
IUP[1]	/* InterpolateUntPts */
IUP[0]	/* InterpolateUntPts */";
};
width = 618;
}
);
note = j;
unicode = 006A;
},
{
glyphname = jdotless;
lastChange = "2022-10-01 01:33:41 +0000";
layers = (
{
anchors = (
{
name = bottom;
position = "{227, -218}";
},
{
name = top;
position = "{364, 524}";
}
);
layerId = m01;
paths = (
{
closed = 1;
nodes = (
"332 -113 OFFCURVE",
"302 -144 OFFCURVE",
"223 -144 CURVE SMOOTH",
"187 -144 OFFCURVE",
"143 -141 OFFCURVE",
"102 -133 CURVE",
"102 -206 LINE",
"138 -215 OFFCURVE",
"182 -218 OFFCURVE",
"227 -218 CURVE SMOOTH",
"349 -218 OFFCURVE",
"415 -158 OFFCURVE",
"415 -55 CURVE SMOOTH",
"415 524 LINE",
"122 524 LINE",
"122 456 LINE",
"332 456 LINE",
"332 -35 LINE SMOOTH"
);
}
);
width = 618;
},
{
anchors = (
{
name = bottom;
position = "{142, -218}";
},
{
name = top;
position = "{420, 524}";
}
);
layerId = "2BD620B1-1E84-4C86-A446-E2CCA0F180F7";
paths = (
{
closed = 1;
nodes = (
"254 -110 OFFCURVE",
"215 -144 OFFCURVE",
"133 -144 CURVE SMOOTH",
"76 -144 OFFCURVE",
"36 -133 OFFCURVE",
"-11 -113 CURVE",
"26 -92 LINE",
"-7 -254 LINE",
"-21 -182 LINE",
"24 -208 OFFCURVE",
"76 -218 OFFCURVE",
"136 -218 CURVE SMOOTH",
"253 -218 OFFCURVE",
"324 -168 OFFCURVE",
"347 -59 CURVE SMOOTH",
"471 524 LINE",
"183 524 LINE",
"168 456 LINE",
"373 456 LINE",
"269 -37 LINE SMOOTH"
);
}
);
width = 618;
}
);
unicode = 0237;
},
{
glyphname = k;
lastChange = "2022-10-01 01:33:41 +0000";
layers = (
{
anchors = (
{
name = bottom;
position = "{355, 0}";
},
{
name = top;
position = "{309, 729}";
}
);
layerId = m01;
paths = (
{
closed = 1;
nodes = (
"293 292 LINE",
"482 0 LINE",
"581 0 LINE",
"352 351 LINE"
);
},
{
closed = 1;
nodes = (
"219 729 LINE",
"137 729 LINE",
"137 0 LINE",
"219 0 LINE"
);
},
{
closed = 1;
nodes = (
"209 194 LINE",
"312 295 LINE",
"356 332 LINE",
"550 524 LINE",
"444 524 LINE",
"208 294 LINE"
);
}
);
userData = {
assembly = "NPUSHB[ ]	/* 43 values pushed */
8 7 4 1 4 2 5 3 10 9 6 5 3 0 11 0 0 3 2 1 14 7 6 5 4 3 2 6 13 0 9 8 1 0 11 3 10 1 4 11 10 1 0 
CALL[ ]	/* CallFunction */
LOOPCALL[ ]	/* LoopAndCallFunction */
SRP0[ ]	/* SetRefPoint0 */
LOOPCALL[ ]	/* LoopAndCallFunction */
CALL[ ]	/* CallFunction */
RUTG[ ]	/* RoundUpToGrid */
MIAP[1]	/* MoveIndirectAbsPt */
ALIGNRP[ ]	/* AlignRelativePt */
RTG[ ]	/* RoundToGrid */
MIAP[1]	/* MoveIndirectAbsPt */
ALIGNRP[ ]	/* AlignRelativePt */
CALL[ ]	/* CallFunction */
CALL[ ]	/* CallFunction */
IUP[1]	/* InterpolateUntPts */
IUP[0]	/* InterpolateUntPts */";
};
width = 618;
},
{
anchors = (
{
name = bottom;
position = "{306, 0}";
},
{
name = top;
position = "{408, 729}";
}
);
guideLines = (
{
angle = 40.0939;
position = "{615, 524}";
}
);
layerId = "2BD620B1-1E84-4C86-A446-E2CCA0F180F7";
paths = (
{
closed = 1;
nodes = (
"302 312 LINE",
"432 0 LINE",
"520 0 LINE",
"371 351 LINE"
);
},
{
closed = 1;
nodes = (
"318 729 LINE",
"236 729 LINE",
"81 0 LINE",
"163 0 LINE"
);
},
{
closed = 1;
nodes = (
"184 173 LINE",
"329 293 LINE",
"362 311 LINE",
"615 524 LINE",
"500 524 LINE",
"204 277 LINE"
);
}
);
userData = {
assembly = "NPUSHB[ ]	/* 43 values pushed */
8 7 4 1 4 2 5 3 10 9 6 5 3 0 11 0 0 3 2 1 14 7 6 5 4 3 2 6 13 0 9 8 1 0 11 3 10 1 4 11 10 1 0 
CALL[ ]	/* CallFunction */
LOOPCALL[ ]	/* LoopAndCallFunction */
SRP0[ ]	/* SetRefPoint0 */
LOOPCALL[ ]	/* LoopAndCallFunction */
CALL[ ]	/* CallFunction */
RUTG[ ]	/* RoundUpToGrid */
MIAP[1]	/* MoveIndirectAbsPt */
ALIGNRP[ ]	/* AlignRelativePt */
RTG[ ]	/* RoundToGrid */
MIAP[1]	/* MoveIndirectAbsPt */
ALIGNRP[ ]	/* AlignRelativePt */
CALL[ ]	/* CallFunction */
CALL[ ]	/* CallFunction */
IUP[1]	/* InterpolateUntPts */
IUP[0]	/* InterpolateUntPts */";
};
width = 618;
}
);
note = k;
unicode = 006B;
},
{
glyphname = l;
lastChange = "2022-10-01 01:33:41 +0000";
layers = (
{
anchors = (
{
name = bottom;
position = "{329, 0}";
},
{
name = center;
position = "{329, 350}";
},
{
name = top;
position = "{339, 729}";
},
{
name = topright;
position = "{469, 729}";
}
);
layerId = m01;
name = Regular;
paths = (
{
closed = 1;
nodes = (
"117 729 LINE",
"117 661 LINE",
"298 661 LINE",
"298 68 LINE",
"117 68 LINE",
"117 0 LINE",
"540 0 LINE",
"540 68 LINE",
"379 68 LINE",
"379 729 LINE"
);
}
);
userData = {
assembly = "NPUSHB[ ]	/* 19 values pushed */
2 1 1 0 3 0 0 14 1 0 11 1 2 1 4 3 2 1 0 
CALL[ ]	/* CallFunction */
LOOPCALL[ ]	/* LoopAndCallFunction */
CALL[ ]	/* CallFunction */
RUTG[ ]	/* RoundUpToGrid */
MIAP[1]	/* MoveIndirectAbsPt */
ALIGNRP[ ]	/* AlignRelativePt */
RTG[ ]	/* RoundToGrid */
CALL[ ]	/* CallFunction */
IUP[1]	/* InterpolateUntPts */
IUP[0]	/* InterpolateUntPts */";
};
width = 618;
},
{
anchors = (
{
name = bottom;
position = "{273, 0}";
},
{
name = center;
position = "{348, 350}";
},
{
name = top;
position = "{438, 729}";
},
{
name = topright;
position = "{568, 729}";
}
);
layerId = "2BD620B1-1E84-4C86-A446-E2CCA0F180F7";
name = Regular;
paths = (
{
closed = 1;
nodes = (
"216 729 LINE",
"202 661 LINE",
"383 661 LINE",
"257 68 LINE",
"76 68 LINE",
"61 0 LINE",
"484 0 LINE",
"499 68 LINE",
"338 68 LINE",
"478 729 LINE"
);
}
);
userData = {
assembly = "NPUSHB[ ]	/* 19 values pushed */
2 1 1 0 3 0 0 14 1 0 11 1 2 1 4 3 2 1 0 
CALL[ ]	/* CallFunction */
LOOPCALL[ ]	/* LoopAndCallFunction */
CALL[ ]	/* CallFunction */
RUTG[ ]	/* RoundUpToGrid */
MIAP[1]	/* MoveIndirectAbsPt */
ALIGNRP[ ]	/* AlignRelativePt */
RTG[ ]	/* RoundToGrid */
CALL[ ]	/* CallFunction */
IUP[1]	/* InterpolateUntPts */
IUP[0]	/* InterpolateUntPts */";
};
width = 618;
}
);
note = l;
unicode = 006C;
},
{
glyphname = lslash;
lastChange = "2022-10-01 01:33:41 +0000";
layers = (
{
components = (
{
alignment = -1;
name = l;
}
);
layerId = m01;
paths = (
{
closed = 1;
nodes = (
"117 203 LINE",
"540 482 LINE",
"540 550 LINE",
"117 271 LINE"
);
}
);
userData = {
assembly = "NPUSHB[ ]	/* 42 values pushed */
9 8 7 6 3 2 1 0 8 10 4 3 5 4 1 0 11 10 0 14 11 4 3 0 11 3 5 1 4 2 1 1 10 9 6 5 3 8 7 1 3 0 
LOOPCALL[ ]	/* LoopAndCallFunction */
LOOPCALL[ ]	/* LoopAndCallFunction */
CALL[ ]	/* CallFunction */
RUTG[ ]	/* RoundUpToGrid */
MIAP[1]	/* MoveIndirectAbsPt */
ALIGNRP[ ]	/* AlignRelativePt */
RTG[ ]	/* RoundToGrid */
CALL[ ]	/* CallFunction */
CALL[ ]	/* CallFunction */
IUP[1]	/* InterpolateUntPts */
IUP[0]	/* InterpolateUntPts */";
};
width = 618;
},
{
components = (
{
alignment = -1;
name = l;
}
);
layerId = "2BD620B1-1E84-4C86-A446-E2CCA0F180F7";
paths = (
{
closed = 1;
nodes = (
"586 477 LINE",
"601 550 LINE",
"120 276 LINE",
"104 203 LINE"
);
}
);
userData = {
assembly = "NPUSHB[ ]	/* 42 values pushed */
9 8 7 6 3 2 1 0 8 10 4 3 5 4 1 0 11 10 0 14 11 4 3 0 11 3 5 1 4 2 1 1 10 9 6 5 3 8 7 1 3 0 
LOOPCALL[ ]	/* LoopAndCallFunction */
LOOPCALL[ ]	/* LoopAndCallFunction */
CALL[ ]	/* CallFunction */
RUTG[ ]	/* RoundUpToGrid */
MIAP[1]	/* MoveIndirectAbsPt */
ALIGNRP[ ]	/* AlignRelativePt */
RTG[ ]	/* RoundToGrid */
CALL[ ]	/* CallFunction */
CALL[ ]	/* CallFunction */
IUP[1]	/* InterpolateUntPts */
IUP[0]	/* InterpolateUntPts */";
};
width = 618;
}
);
note = lslash;
unicode = 0142;
},
{
glyphname = m;
lastChange = "2022-10-01 01:33:41 +0000";
layers = (
{
layerId = m01;
paths = (
{
closed = 1;
nodes = (
"121 0 LINE",
"121 378 LINE SMOOTH",
"121 433 OFFCURVE",
"154 466 OFFCURVE",
"210 466 CURVE SMOOTH",
"244 466 OFFCURVE",
"268 447 OFFCURVE",
"268 410 CURVE SMOOTH",
"268 0 LINE",
"350 0 LINE",
"350 427 LINE SMOOTH",
"350 493 OFFCURVE",
"302 536 OFFCURVE",
"237 536 CURVE SMOOTH",
"163 536 OFFCURVE",
"115 480 OFFCURVE",
"102 439 CURVE",
"117 415 LINE",
"117 524 LINE",
"39 524 LINE",
"39 0 LINE"
);
},
{
closed = 1;
nodes = (
"350 378 LINE",
"350 433 OFFCURVE",
"383 466 OFFCURVE",
"439 466 CURVE SMOOTH",
"473 466 OFFCURVE",
"497 447 OFFCURVE",
"497 410 CURVE SMOOTH",
"497 0 LINE",
"579 0 LINE",
"579 427 LINE SMOOTH",
"579 493 OFFCURVE",
"531 536 OFFCURVE",
"466 536 CURVE SMOOTH",
"392 536 OFFCURVE",
"344 480 OFFCURVE",
"331 439 CURVE"
);
}
);
userData = {
assembly = "NPUSHB[ ]	/* 70 values pushed */
34 22 6 23 22 13 13 1 6 1 38 30 27 19 16 9 2 7 0 17 3 40 39 29 28 18 17 5 0 1 0 1 14 9 27 29 2 19 18 11 1 16 28 27 11 1 29 39 38 11 1 0 2 1 25 1 0 4 4 17 16 1 30 29 1 40 0 1 3 0 
LOOPCALL[ ]	/* LoopAndCallFunction */
LOOPCALL[ ]	/* LoopAndCallFunction */
CALL[ ]	/* CallFunction */
CALL[ ]	/* CallFunction */
RUTG[ ]	/* RoundUpToGrid */
MIAP[1]	/* MoveIndirectAbsPt */
ALIGNRP[ ]	/* AlignRelativePt */
RTG[ ]	/* RoundToGrid */
CALL[ ]	/* CallFunction */
CALL[ ]	/* CallFunction */
RUTG[ ]	/* RoundUpToGrid */
MIAP[1]	/* MoveIndirectAbsPt */
MIAP[1]	/* MoveIndirectAbsPt */
RTG[ ]	/* RoundToGrid */
SRP0[ ]	/* SetRefPoint0 */
MIRP[01101]	/* MoveIndirectRelPt */
SRP0[ ]	/* SetRefPoint0 */
MIRP[01101]	/* MoveIndirectRelPt */
IUP[1]	/* InterpolateUntPts */
IUP[0]	/* InterpolateUntPts */";
};
width = 618;
},
{
layerId = "2BD620B1-1E84-4C86-A446-E2CCA0F180F7";
paths = (
{
closed = 1;
nodes = (
"65 0 LINE",
"146 378 LINE SMOOTH",
"158 433 OFFCURVE",
"200 466 OFFCURVE",
"251 466 CURVE SMOOTH",
"288 466 OFFCURVE",
"305 439 OFFCURVE",
"295 390 CURVE SMOOTH",
"212 0 LINE",
"294 0 LINE",
"375 378 LINE SMOOTH",
"387 433 OFFCURVE",
"429 466 OFFCURVE",
"480 466 CURVE SMOOTH",
"517 466 OFFCURVE",
"534 439 OFFCURVE",
"524 390 CURVE SMOOTH",
"441 0 LINE",
"523 0 LINE",
"608 397 LINE SMOOTH",
"625 477 OFFCURVE",
"580 536 OFFCURVE",
"511 536 CURVE SMOOTH",
"440 536 OFFCURVE",
"394 489 OFFCURVE",
"368 438 CURVE",
"384 419 LINE",
"388 488 OFFCURVE",
"347 536 OFFCURVE",
"285 536 CURVE SMOOTH",
"215 536 OFFCURVE",
"170 489 OFFCURVE",
"147 438 CURVE",
"151 418 LINE",
"173 524 LINE",
"95 524 LINE",
"-17 0 LINE"
);
}
);
userData = {
assembly = "NPUSHB[ ]	/* 70 values pushed */
34 22 6 23 22 13 13 1 6 1 38 30 27 19 16 9 2 7 0 17 3 40 39 29 28 18 17 5 0 1 0 1 14 9 27 29 2 19 18 11 1 16 28 27 11 1 29 39 38 11 1 0 2 1 25 1 0 4 4 17 16 1 30 29 1 40 0 1 3 0 
LOOPCALL[ ]	/* LoopAndCallFunction */
LOOPCALL[ ]	/* LoopAndCallFunction */
CALL[ ]	/* CallFunction */
CALL[ ]	/* CallFunction */
RUTG[ ]	/* RoundUpToGrid */
MIAP[1]	/* MoveIndirectAbsPt */
ALIGNRP[ ]	/* AlignRelativePt */
RTG[ ]	/* RoundToGrid */
CALL[ ]	/* CallFunction */
CALL[ ]	/* CallFunction */
RUTG[ ]	/* RoundUpToGrid */
MIAP[1]	/* MoveIndirectAbsPt */
MIAP[1]	/* MoveIndirectAbsPt */
RTG[ ]	/* RoundToGrid */
SRP0[ ]	/* SetRefPoint0 */
MIRP[01101]	/* MoveIndirectRelPt */
SRP0[ ]	/* SetRefPoint0 */
MIRP[01101]	/* MoveIndirectRelPt */
IUP[1]	/* InterpolateUntPts */
IUP[0]	/* InterpolateUntPts */";
};
width = 618;
}
);
note = m;
unicode = 006D;
},
{
glyphname = n;
lastChange = "2022-10-01 01:33:41 +0000";
layers = (
{
anchors = (
{
name = bottom;
position = "{318, 0}";
},
{
name = top;
position = "{322, 524}";
}
);
layerId = m01;
paths = (
{
closed = 1;
nodes = (
"184 0 LINE",
"184 295 LINE SMOOTH",
"184 385 OFFCURVE",
"233 466 OFFCURVE",
"327 466 CURVE SMOOTH",
"385 466 OFFCURVE",
"435 433 OFFCURVE",
"435 363 CURVE SMOOTH",
"435 0 LINE",
"518 0 LINE",
"518 396 LINE SMOOTH",
"518 493 OFFCURVE",
"443 539 OFFCURVE",
"352 539 CURVE SMOOTH",
"269 539 OFFCURVE",
"219 501 OFFCURVE",
"178 437 CURVE",
"178 524 LINE",
"101 524 LINE",
"101 0 LINE"
);
}
);
userData = {
assembly = "NPUSHB[ ]	/* 48 values pushed */
17 22 6 6 1 21 13 10 2 4 0 11 3 23 22 12 11 3 0 1 0 1 14 13 12 11 1 10 22 21 11 1 0 2 1 25 1 0 3 4 11 10 1 23 0 1 2 0 
LOOPCALL[ ]	/* LoopAndCallFunction */
LOOPCALL[ ]	/* LoopAndCallFunction */
CALL[ ]	/* CallFunction */
RUTG[ ]	/* RoundUpToGrid */
MIAP[1]	/* MoveIndirectAbsPt */
ALIGNRP[ ]	/* AlignRelativePt */
RTG[ ]	/* RoundToGrid */
CALL[ ]	/* CallFunction */
CALL[ ]	/* CallFunction */
RUTG[ ]	/* RoundUpToGrid */
MIAP[1]	/* MoveIndirectAbsPt */
RTG[ ]	/* RoundToGrid */
SRP0[ ]	/* SetRefPoint0 */
MIRP[01101]	/* MoveIndirectRelPt */
IUP[1]	/* InterpolateUntPts */
IUP[0]	/* InterpolateUntPts */";
};
width = 618;
},
{
anchors = (
{
name = bottom;
position = "{264, 0}";
},
{
name = top;
position = "{367, 524}";
}
);
layerId = "2BD620B1-1E84-4C86-A446-E2CCA0F180F7";
paths = (
{
closed = 1;
nodes = (
"128 0 LINE",
"191 295 LINE SMOOTH",
"208 375 OFFCURVE",
"285 466 OFFCURVE",
"381 466 CURVE SMOOTH",
"444 466 OFFCURVE",
"470 429 OFFCURVE",
"456 363 CURVE SMOOTH",
"379 0 LINE",
"462 0 LINE",
"542 376 LINE SMOOTH",
"563 474 OFFCURVE",
"508 539 OFFCURVE",
"409 539 CURVE SMOOTH",
"310 539 OFFCURVE",
"247 480 OFFCURVE",
"192 399 CURVE",
"205 393 LINE",
"234 524 LINE",
"157 524 LINE",
"45 0 LINE"
);
}
);
userData = {
assembly = "NPUSHB[ ]	/* 48 values pushed */
17 22 6 6 1 21 13 10 2 4 0 11 3 23 22 12 11 3 0 1 0 1 14 13 12 11 1 10 22 21 11 1 0 2 1 25 1 0 3 4 11 10 1 23 0 1 2 0 
LOOPCALL[ ]	/* LoopAndCallFunction */
LOOPCALL[ ]	/* LoopAndCallFunction */
CALL[ ]	/* CallFunction */
RUTG[ ]	/* RoundUpToGrid */
MIAP[1]	/* MoveIndirectAbsPt */
ALIGNRP[ ]	/* AlignRelativePt */
RTG[ ]	/* RoundToGrid */
CALL[ ]	/* CallFunction */
CALL[ ]	/* CallFunction */
RUTG[ ]	/* RoundUpToGrid */
MIAP[1]	/* MoveIndirectAbsPt */
RTG[ ]	/* RoundToGrid */
SRP0[ ]	/* SetRefPoint0 */
MIRP[01101]	/* MoveIndirectRelPt */
IUP[1]	/* InterpolateUntPts */
IUP[0]	/* InterpolateUntPts */";
};
width = 618;
}
);
note = n;
unicode = 006E;
},
{
glyphname = eng;
lastChange = "2022-10-01 01:33:41 +0000";
layers = (
{
components = (
{
name = n;
}
);
layerId = m01;
paths = (
{
closed = 1;
nodes = (
"311 -218 LINE",
"320 -218 OFFCURVE",
"329 -218 OFFCURVE",
"338 -218 CURVE SMOOTH",
"455 -218 OFFCURVE",
"518 -163 OFFCURVE",
"518 -59 CURVE SMOOTH",
"518 0 LINE",
"435 0 LINE",
"435 -35 LINE SMOOTH",
"435 -111 OFFCURVE",
"410 -144 OFFCURVE",
"335 -144 CURVE SMOOTH",
"327 -144 OFFCURVE",
"319 -144 OFFCURVE",
"311 -144 CURVE"
);
}
);
userData = {
assembly = "NPUSHB[ ]	/* 64 values pushed */
12 22 25 3 22 35 35 3 25 1 29 21 16 9 4 19 17 3 1 30 8 1 0 4 17 3 3 0 18 17 1 0 20 19 1 14 9 8 11 1 29 17 16 11 1 18 21 20 25 1 18 3 4 30 29 1 1 0 1 19 18 1 3 0 
LOOPCALL[ ]	/* LoopAndCallFunction */
LOOPCALL[ ]	/* LoopAndCallFunction */
CALL[ ]	/* CallFunction */
RUTG[ ]	/* RoundUpToGrid */
MIAP[1]	/* MoveIndirectAbsPt */
ALIGNRP[ ]	/* AlignRelativePt */
RTG[ ]	/* RoundToGrid */
CALL[ ]	/* CallFunction */
SZP0[ ]	/* SetZonePointer0 */
CALL[ ]	/* CallFunction */
SZP0[ ]	/* SetZonePointer0 */
CALL[ ]	/* CallFunction */
RUTG[ ]	/* RoundUpToGrid */
MIAP[1]	/* MoveIndirectAbsPt */
RTG[ ]	/* RoundToGrid */
MIAP[1]	/* MoveIndirectAbsPt */
SRP0[ ]	/* SetRefPoint0 */
MIRP[01101]	/* MoveIndirectRelPt */
SRP0[ ]	/* SetRefPoint0 */
MIRP[01101]	/* MoveIndirectRelPt */
IUP[1]	/* InterpolateUntPts */
IUP[0]	/* InterpolateUntPts */";
};
width = 618;
},
{
components = (
{
name = n;
}
);
layerId = "2BD620B1-1E84-4C86-A446-E2CCA0F180F7";
paths = (
{
closed = 1;
nodes = (
"210 -217 LINE",
"220 -218 OFFCURVE",
"239 -218 OFFCURVE",
"248 -218 CURVE SMOOTH",
"365 -218 OFFCURVE",
"425 -168 OFFCURVE",
"449 -59 CURVE SMOOTH",
"462 0 LINE",
"379 0 LINE",
"371 -37 LINE SMOOTH",
"355 -110 OFFCURVE",
"327 -144 OFFCURVE",
"245 -144 CURVE SMOOTH",
"241 -144 OFFCURVE",
"228 -144 OFFCURVE",
"225 -144 CURVE"
);
}
);
userData = {
assembly = "NPUSHB[ ]	/* 64 values pushed */
12 22 25 3 22 35 35 3 25 1 29 21 16 9 4 19 17 3 1 30 8 1 0 4 17 3 3 0 18 17 1 0 20 19 1 14 9 8 11 1 29 17 16 11 1 18 21 20 25 1 18 3 4 30 29 1 1 0 1 19 18 1 3 0 
LOOPCALL[ ]	/* LoopAndCallFunction */
LOOPCALL[ ]	/* LoopAndCallFunction */
CALL[ ]	/* CallFunction */
RUTG[ ]	/* RoundUpToGrid */
MIAP[1]	/* MoveIndirectAbsPt */
ALIGNRP[ ]	/* AlignRelativePt */
RTG[ ]	/* RoundToGrid */
CALL[ ]	/* CallFunction */
SZP0[ ]	/* SetZonePointer0 */
CALL[ ]	/* CallFunction */
SZP0[ ]	/* SetZonePointer0 */
CALL[ ]	/* CallFunction */
RUTG[ ]	/* RoundUpToGrid */
MIAP[1]	/* MoveIndirectAbsPt */
RTG[ ]	/* RoundToGrid */
MIAP[1]	/* MoveIndirectAbsPt */
SRP0[ ]	/* SetRefPoint0 */
MIRP[01101]	/* MoveIndirectRelPt */
SRP0[ ]	/* SetRefPoint0 */
MIRP[01101]	/* MoveIndirectRelPt */
IUP[1]	/* InterpolateUntPts */
IUP[0]	/* InterpolateUntPts */";
};
width = 618;
}
);
note = eng;
unicode = 014B;
},
{
glyphname = o;
lastChange = "2022-10-01 01:33:41 +0000";
layers = (
{
anchors = (
{
name = bottom;
position = "{309, 0}";
},
{
name = center;
position = "{309, 262}";
},
{
name = ogonek;
position = "{405, 0}";
},
{
name = top;
position = "{309, 524}";
},
{
name = topright;
position = "{561, 524}";
}
);
layerId = m01;
paths = (
{
closed = 1;
nodes = (
"148 540 OFFCURVE",
"72 420 OFFCURVE",
"72 261 CURVE SMOOTH",
"72 102 OFFCURVE",
"148 -18 OFFCURVE",
"309 -18 CURVE SMOOTH",
"470 -18 OFFCURVE",
"546 102 OFFCURVE",
"546 261 CURVE SMOOTH",
"546 420 OFFCURVE",
"470 540 OFFCURVE",
"309 540 CURVE SMOOTH"
);
},
{
closed = 1;
nodes = (
"415 463 OFFCURVE",
"459 368 OFFCURVE",
"459 261 CURVE SMOOTH",
"459 154 OFFCURVE",
"415 59 OFFCURVE",
"309 59 CURVE SMOOTH",
"203 59 OFFCURVE",
"159 154 OFFCURVE",
"159 261 CURVE SMOOTH",
"159 368 OFFCURVE",
"203 463 OFFCURVE",
"309 463 CURVE SMOOTH"
);
}
);
userData = {
assembly = "NPUSHB[ ]	/* 19 values pushed */
25 13 8 16 13 0 8 2 0 1 14 30 19 4 20 19 12 12 4 
MDAP[1]	/* MoveDirectAbsPt */
MDAP[1]	/* MoveDirectAbsPt */
SRP0[ ]	/* SetRefPoint0 */
MIRP[01101]	/* MoveIndirectRelPt */
SRP0[ ]	/* SetRefPoint0 */
MIRP[01101]	/* MoveIndirectRelPt */
CALL[ ]	/* CallFunction */
RUTG[ ]	/* RoundUpToGrid */
MIAP[1]	/* MoveIndirectAbsPt */
RTG[ ]	/* RoundToGrid */
MIAP[1]	/* MoveIndirectAbsPt */
SRP0[ ]	/* SetRefPoint0 */
MIRP[01101]	/* MoveIndirectRelPt */
SRP0[ ]	/* SetRefPoint0 */
MIRP[01101]	/* MoveIndirectRelPt */
IUP[1]	/* InterpolateUntPts */
IUP[0]	/* InterpolateUntPts */";
};
width = 618;
},
{
anchors = (
{
name = bottom;
position = "{258, 0}";
},
{
name = center;
position = "{309, 262}";
},
{
name = ogonek;
position = "{350, 0}";
},
{
name = top;
position = "{355, 524}";
},
{
name = topright;
position = "{617, 524}";
}
);
layerId = "2BD620B1-1E84-4C86-A446-E2CCA0F180F7";
paths = (
{
closed = 1;
nodes = (
"473 540 OFFCURVE",
"341 540 CURVE SMOOTH",
"182 540 OFFCURVE",
"64 396 OFFCURVE",
"64 219 CURVE SMOOTH",
"64 68 OFFCURVE",
"147 -18 OFFCURVE",
"279 -18 CURVE SMOOTH",
"438 -18 OFFCURVE",
"556 126 OFFCURVE",
"556 303 CURVE SMOOTH",
"556 454 OFFCURVE"
);
},
{
closed = 1;
nodes = (
"471 415 OFFCURVE",
"471 309 CURVE SMOOTH",
"471 172 OFFCURVE",
"391 58 OFFCURVE",
"283 58 CURVE SMOOTH",
"206 58 OFFCURVE",
"149 107 OFFCURVE",
"149 213 CURVE SMOOTH",
"149 350 OFFCURVE",
"229 464 OFFCURVE",
"336 464 CURVE SMOOTH",
"414 464 OFFCURVE"
);
}
);
userData = {
assembly = "NPUSHB[ ]	/* 19 values pushed */
25 13 8 16 13 0 8 2 0 1 14 30 19 4 20 19 12 12 4 
MDAP[1]	/* MoveDirectAbsPt */
MDAP[1]	/* MoveDirectAbsPt */
SRP0[ ]	/* SetRefPoint0 */
MIRP[01101]	/* MoveIndirectRelPt */
SRP0[ ]	/* SetRefPoint0 */
MIRP[01101]	/* MoveIndirectRelPt */
CALL[ ]	/* CallFunction */
RUTG[ ]	/* RoundUpToGrid */
MIAP[1]	/* MoveIndirectAbsPt */
RTG[ ]	/* RoundToGrid */
MIAP[1]	/* MoveIndirectAbsPt */
SRP0[ ]	/* SetRefPoint0 */
MIRP[01101]	/* MoveIndirectRelPt */
SRP0[ ]	/* SetRefPoint0 */
MIRP[01101]	/* MoveIndirectRelPt */
IUP[1]	/* InterpolateUntPts */
IUP[0]	/* InterpolateUntPts */";
};
width = 618;
}
);
note = o;
unicode = 006F;
},
{
glyphname = oe;
lastChange = "2022-10-01 01:33:41 +0000";
layers = (
{
layerId = m01;
paths = (
{
closed = 1;
nodes = (
"76 540 OFFCURVE",
"11 444 OFFCURVE",
"11 261 CURVE SMOOTH",
"11 78 OFFCURVE",
"71 -18 OFFCURVE",
"175 -18 CURVE SMOOTH",
"246 -18 OFFCURVE",
"307 48 OFFCURVE",
"311 129 CURVE",
"303 129 LINE",
"308 47 OFFCURVE",
"372 -18 OFFCURVE",
"448 -18 CURVE SMOOTH",
"531 -18 OFFCURVE",
"592 40 OFFCURVE",
"603 152 CURVE",
"528 152 LINE",
"521 88 OFFCURVE",
"494 53 OFFCURVE",
"450 53 CURVE SMOOTH",
"378 53 OFFCURVE",
"342 135 OFFCURVE",
"350 272 CURVE",
"346 392 OFFCURVE",
"382 468 OFFCURVE",
"445 468 CURVE SMOOTH",
"499 468 OFFCURVE",
"530 408 OFFCURVE",
"531 307 CURVE",
"307 307 LINE",
"307 241 LINE",
"608 241 LINE",
"622 431 OFFCURVE",
"558 540 OFFCURVE",
"448 540 CURVE SMOOTH",
"371 540 OFFCURVE",
"311 477 OFFCURVE",
"305 392 CURVE",
"314 394 LINE",
"309 479 OFFCURVE",
"253 540 OFFCURVE",
"181 540 CURVE SMOOTH"
);
},
{
closed = 1;
nodes = (
"90 397 OFFCURVE",
"120 468 OFFCURVE",
"180 468 CURVE SMOOTH",
"240 468 OFFCURVE",
"270 397 OFFCURVE",
"270 261 CURVE SMOOTH",
"270 125 OFFCURVE",
"240 53 OFFCURVE",
"180 53 CURVE SMOOTH",
"120 53 OFFCURVE",
"90 125 OFFCURVE",
"90 261 CURVE SMOOTH"
);
}
);
userData = {
assembly = "NPUSHB[ ]	/* 61 values pushed */
59 13 16 44 13 2 35 13 10 26 13 33 33 2 16 1 10 1 2 2 1 12 1 55 2 0 1 0 28 2 2 0 22 21 9 1 55 1 4 63 55 1 29 28 1 2 0 14 39 19 6 63 55 49 29 28 22 21 12 6 0 
MDAP[0]	/* MoveDirectAbsPt */
MDAP[1]	/* MoveDirectAbsPt */
MDAP[0]	/* MoveDirectAbsPt */
MDAP[0]	/* MoveDirectAbsPt */
MDAP[0]	/* MoveDirectAbsPt */
MDAP[0]	/* MoveDirectAbsPt */
MDAP[0]	/* MoveDirectAbsPt */
MDAP[1]	/* MoveDirectAbsPt */
MDAP[0]	/* MoveDirectAbsPt */
MDAP[0]	/* MoveDirectAbsPt */
SRP0[ ]	/* SetRefPoint0 */
MIRP[01101]	/* MoveIndirectRelPt */
CALL[ ]	/* CallFunction */
LOOPCALL[ ]	/* LoopAndCallFunction */
LOOPCALL[ ]	/* LoopAndCallFunction */
SZP0[ ]	/* SetZonePointer0 */
CALL[ ]	/* CallFunction */
SZP0[ ]	/* SetZonePointer0 */
SZP1[ ]	/* SetZonePointer1 */
CALL[ ]	/* CallFunction */
SZP1[ ]	/* SetZonePointer1 */
MIAP[1]	/* MoveIndirectAbsPt */
RUTG[ ]	/* RoundUpToGrid */
MIAP[1]	/* MoveIndirectAbsPt */
MIAP[1]	/* MoveIndirectAbsPt */
RTG[ ]	/* RoundToGrid */
MIAP[1]	/* MoveIndirectAbsPt */
SRP0[ ]	/* SetRefPoint0 */
MIRP[01101]	/* MoveIndirectRelPt */
SRP0[ ]	/* SetRefPoint0 */
MIRP[01101]	/* MoveIndirectRelPt */
SRP0[ ]	/* SetRefPoint0 */
MIRP[01101]	/* MoveIndirectRelPt */
SRP0[ ]	/* SetRefPoint0 */
MIRP[01101]	/* MoveIndirectRelPt */
IUP[1]	/* InterpolateUntPts */
IUP[0]	/* InterpolateUntPts */";
};
width = 618;
},
{
layerId = "2BD620B1-1E84-4C86-A446-E2CCA0F180F7";
paths = (
{
closed = 1;
nodes = (
"115 540 OFFCURVE",
"50 444 OFFCURVE",
"17 291 CURVE SMOOTH",
"-28 78 OFFCURVE",
"27 -18 OFFCURVE",
"131 -18 CURVE SMOOTH",
"207 -18 OFFCURVE",
"266 24 OFFCURVE",
"296 129 CURVE",
"278 129 LINE",
"265 47 OFFCURVE",
"321 -18 OFFCURVE",
"403 -18 CURVE SMOOTH",
"476 -18 OFFCURVE",
"552 29 OFFCURVE",
"580 145 CURVE",
"505 145 LINE",
"488 77 OFFCURVE",
"456 53 OFFCURVE",
"412 53 CURVE SMOOTH",
"340 53 OFFCURVE",
"314 132 OFFCURVE",
"352 272 CURVE",
"374 392 OFFCURVE",
"424 468 OFFCURVE",
"487 468 CURVE SMOOTH",
"541 468 OFFCURVE",
"565 418 OFFCURVE",
"541 307 CURVE",
"317 307 LINE",
"303 241 LINE",
"602 241 LINE",
"652 431 OFFCURVE",
"610 540 OFFCURVE",
"498 540 CURVE SMOOTH",
"421 540 OFFCURVE",
"353 477 OFFCURVE",
"329 392 CURVE",
"342 394 LINE",
"351 477 OFFCURVE",
"302 540 OFFCURVE",
"228 540 CURVE SMOOTH"
);
},
{
closed = 1;
nodes = (
"123 416 OFFCURVE",
"161 468 OFFCURVE",
"223 468 CURVE SMOOTH",
"281 468 OFFCURVE",
"299 397 OFFCURVE",
"266 241 CURVE SMOOTH",
"237 106 OFFCURVE",
"198 53 OFFCURVE",
"138 53 CURVE SMOOTH",
"78 53 OFFCURVE",
"61 125 OFFCURVE",
"94 281 CURVE SMOOTH"
);
}
);
userData = {
assembly = "NPUSHB[ ]	/* 61 values pushed */
59 13 16 44 13 2 35 13 10 26 13 33 33 2 16 1 10 1 2 2 1 12 1 55 2 0 1 0 28 2 2 0 22 21 9 1 55 1 4 63 55 1 29 28 1 2 0 14 39 19 6 63 55 49 29 28 22 21 12 6 0 
MDAP[0]	/* MoveDirectAbsPt */
MDAP[1]	/* MoveDirectAbsPt */
MDAP[0]	/* MoveDirectAbsPt */
MDAP[0]	/* MoveDirectAbsPt */
MDAP[0]	/* MoveDirectAbsPt */
MDAP[0]	/* MoveDirectAbsPt */
MDAP[0]	/* MoveDirectAbsPt */
MDAP[1]	/* MoveDirectAbsPt */
MDAP[0]	/* MoveDirectAbsPt */
MDAP[0]	/* MoveDirectAbsPt */
SRP0[ ]	/* SetRefPoint0 */
MIRP[01101]	/* MoveIndirectRelPt */
CALL[ ]	/* CallFunction */
LOOPCALL[ ]	/* LoopAndCallFunction */
LOOPCALL[ ]	/* LoopAndCallFunction */
SZP0[ ]	/* SetZonePointer0 */
CALL[ ]	/* CallFunction */
SZP0[ ]	/* SetZonePointer0 */
SZP1[ ]	/* SetZonePointer1 */
CALL[ ]	/* CallFunction */
SZP1[ ]	/* SetZonePointer1 */
MIAP[1]	/* MoveIndirectAbsPt */
RUTG[ ]	/* RoundUpToGrid */
MIAP[1]	/* MoveIndirectAbsPt */
MIAP[1]	/* MoveIndirectAbsPt */
RTG[ ]	/* RoundToGrid */
MIAP[1]	/* MoveIndirectAbsPt */
SRP0[ ]	/* SetRefPoint0 */
MIRP[01101]	/* MoveIndirectRelPt */
SRP0[ ]	/* SetRefPoint0 */
MIRP[01101]	/* MoveIndirectRelPt */
SRP0[ ]	/* SetRefPoint0 */
MIRP[01101]	/* MoveIndirectRelPt */
SRP0[ ]	/* SetRefPoint0 */
MIRP[01101]	/* MoveIndirectRelPt */
IUP[1]	/* InterpolateUntPts */
IUP[0]	/* InterpolateUntPts */";
};
width = 618;
}
);
note = oe;
unicode = 0153;
},
{
glyphname = p;
lastChange = "2022-10-01 01:33:41 +0000";
layers = (
{
layerId = m01;
paths = (
{
closed = 1;
nodes = (
"171 60 LINE",
"215 5 OFFCURVE",
"264 -18 OFFCURVE",
"332 -18 CURVE SMOOTH",
"482 -18 OFFCURVE",
"556 106 OFFCURVE",
"556 256 CURVE SMOOTH",
"556 407 OFFCURVE",
"487 540 OFFCURVE",
"331 540 CURVE SMOOTH",
"258 540 OFFCURVE",
"203 509 OFFCURVE",
"164 446 CURVE",
"164 524 LINE",
"87 524 LINE",
"87 -218 LINE",
"171 -218 LINE"
);
},
{
closed = 1;
nodes = (
"423 462 OFFCURVE",
"469 364 OFFCURVE",
"469 258 CURVE SMOOTH",
"469 157 OFFCURVE",
"422 60 OFFCURVE",
"317 60 CURVE SMOOTH",
"213 60 OFFCURVE",
"171 159 OFFCURVE",
"171 261 CURVE SMOOTH",
"171 363 OFFCURVE",
"213 462 OFFCURVE",
"317 462 CURVE SMOOTH"
);
}
);
userData = {
assembly = "NPUSHB[ ]	/* 47 values pushed */
28 13 15 20 13 5 15 2 5 1 1 18 3 2 1 2 3 0 2 1 1 19 0 3 14 32 19 11 11 18 24 19 18 11 2 0 3 2 25 1 0 2 4 1 0 1 0 
CALL[ ]	/* CallFunction */
LOOPCALL[ ]	/* LoopAndCallFunction */
SRP0[ ]	/* SetRefPoint0 */
MDRP[00100]	/* MoveDirectRelPt */
SRP0[ ]	/* SetRefPoint0 */
MIRP[01101]	/* MoveIndirectRelPt */
CALL[ ]	/* CallFunction */
RUTG[ ]	/* RoundUpToGrid */
MIAP[1]	/* MoveIndirectAbsPt */
ALIGNRP[ ]	/* AlignRelativePt */
RTG[ ]	/* RoundToGrid */
MIAP[1]	/* MoveIndirectAbsPt */
ALIGNRP[ ]	/* AlignRelativePt */
SZP0[ ]	/* SetZonePointer0 */
CALL[ ]	/* CallFunction */
SZP0[ ]	/* SetZonePointer0 */
RUTG[ ]	/* RoundUpToGrid */
MIAP[1]	/* MoveIndirectAbsPt */
RTG[ ]	/* RoundToGrid */
MIAP[1]	/* MoveIndirectAbsPt */
SRP0[ ]	/* SetRefPoint0 */
MIRP[01101]	/* MoveIndirectRelPt */
SRP0[ ]	/* SetRefPoint0 */
MIRP[01101]	/* MoveIndirectRelPt */
IUP[1]	/* InterpolateUntPts */
IUP[0]	/* InterpolateUntPts */";
};
width = 618;
},
{
layerId = "2BD620B1-1E84-4C86-A446-E2CCA0F180F7";
paths = (
{
closed = 1;
nodes = (
"122 165 LINE",
"123 52 OFFCURVE",
"211 -18 OFFCURVE",
"311 -18 CURVE SMOOTH",
"455 -18 OFFCURVE",
"571 123 OFFCURVE",
"571 307 CURVE SMOOTH",
"571 453 OFFCURVE",
"496 540 OFFCURVE",
"372 540 CURVE SMOOTH",
"283 540 OFFCURVE",
"217 486 OFFCURVE",
"171 404 CURVE",
"193 402 LINE",
"220 524 LINE",
"143 524 LINE",
"-15 -218 LINE",
"69 -218 LINE",
"153 178 LINE"
);
},
{
closed = 1;
nodes = (
"435 464 OFFCURVE",
"486 412 OFFCURVE",
"486 310 CURVE SMOOTH",
"486 161 OFFCURVE",
"407 58 OFFCURVE",
"302 58 CURVE SMOOTH",
"224 58 OFFCURVE",
"166 107 OFFCURVE",
"166 214 CURVE SMOOTH",
"166 354 OFFCURVE",
"253 464 OFFCURVE",
"357 464 CURVE SMOOTH"
);
}
);
userData = {
assembly = "NPUSHB[ ]	/* 47 values pushed */
28 13 15 20 13 5 15 2 5 1 1 18 3 2 1 2 3 0 2 1 1 19 0 3 14 32 19 11 11 18 24 19 18 11 2 0 3 2 25 1 0 2 4 1 0 1 0 
CALL[ ]	/* CallFunction */
LOOPCALL[ ]	/* LoopAndCallFunction */
SRP0[ ]	/* SetRefPoint0 */
MDRP[00100]	/* MoveDirectRelPt */
SRP0[ ]	/* SetRefPoint0 */
MIRP[01101]	/* MoveIndirectRelPt */
CALL[ ]	/* CallFunction */
RUTG[ ]	/* RoundUpToGrid */
MIAP[1]	/* MoveIndirectAbsPt */
ALIGNRP[ ]	/* AlignRelativePt */
RTG[ ]	/* RoundToGrid */
MIAP[1]	/* MoveIndirectAbsPt */
ALIGNRP[ ]	/* AlignRelativePt */
SZP0[ ]	/* SetZonePointer0 */
CALL[ ]	/* CallFunction */
SZP0[ ]	/* SetZonePointer0 */
RUTG[ ]	/* RoundUpToGrid */
MIAP[1]	/* MoveIndirectAbsPt */
RTG[ ]	/* RoundToGrid */
MIAP[1]	/* MoveIndirectAbsPt */
SRP0[ ]	/* SetRefPoint0 */
MIRP[01101]	/* MoveIndirectRelPt */
SRP0[ ]	/* SetRefPoint0 */
MIRP[01101]	/* MoveIndirectRelPt */
IUP[1]	/* InterpolateUntPts */
IUP[0]	/* InterpolateUntPts */";
};
width = 618;
}
);
note = p;
unicode = 0070;
},
{
glyphname = thorn;
lastChange = "2022-10-01 01:33:41 +0000";
layers = (
{
layerId = m01;
paths = (
{
closed = 1;
nodes = (
"171 60 LINE",
"215 5 OFFCURVE",
"264 -18 OFFCURVE",
"332 -18 CURVE SMOOTH",
"482 -18 OFFCURVE",
"556 106 OFFCURVE",
"556 256 CURVE SMOOTH",
"556 407 OFFCURVE",
"487 540 OFFCURVE",
"331 540 CURVE SMOOTH",
"248 540 OFFCURVE",
"188 500 OFFCURVE",
"149 418 CURVE",
"170 404 LINE",
"170 729 LINE",
"87 729 LINE",
"87 -218 LINE",
"171 -218 LINE"
);
},
{
closed = 1;
nodes = (
"423 462 OFFCURVE",
"469 364 OFFCURVE",
"469 258 CURVE SMOOTH",
"469 157 OFFCURVE",
"422 60 OFFCURVE",
"317 60 CURVE SMOOTH",
"213 60 OFFCURVE",
"171 159 OFFCURVE",
"171 261 CURVE SMOOTH",
"171 363 OFFCURVE",
"213 462 OFFCURVE",
"317 462 CURVE SMOOTH"
);
}
);
userData = {
assembly = "NPUSHB[ ]	/* 47 values pushed */
29 13 16 21 13 6 16 2 6 1 1 1 19 3 2 1 2 3 0 0 2 1 1 0 20 0 3 14 33 19 12 12 2 25 20 19 3 2 11 4 0 1 4 1 0 1 0 
CALL[ ]	/* CallFunction */
LOOPCALL[ ]	/* LoopAndCallFunction */
SRP0[ ]	/* SetRefPoint0 */
MDRP[00100]	/* MoveDirectRelPt */
SRP0[ ]	/* SetRefPoint0 */
MIRP[01101]	/* MoveIndirectRelPt */
CALL[ ]	/* CallFunction */
RUTG[ ]	/* RoundUpToGrid */
MIAP[1]	/* MoveIndirectAbsPt */
ALIGNRP[ ]	/* AlignRelativePt */
RTG[ ]	/* RoundToGrid */
CALL[ ]	/* CallFunction */
SZP0[ ]	/* SetZonePointer0 */
SZP1[ ]	/* SetZonePointer1 */
CALL[ ]	/* CallFunction */
SZP0[ ]	/* SetZonePointer0 */
SZP1[ ]	/* SetZonePointer1 */
RUTG[ ]	/* RoundUpToGrid */
MIAP[1]	/* MoveIndirectAbsPt */
RTG[ ]	/* RoundToGrid */
MIAP[1]	/* MoveIndirectAbsPt */
SRP0[ ]	/* SetRefPoint0 */
MIRP[01101]	/* MoveIndirectRelPt */
SRP0[ ]	/* SetRefPoint0 */
MIRP[01101]	/* MoveIndirectRelPt */
IUP[1]	/* InterpolateUntPts */
IUP[0]	/* InterpolateUntPts */";
};
width = 618;
},
{
layerId = "2BD620B1-1E84-4C86-A446-E2CCA0F180F7";
paths = (
{
closed = 1;
nodes = (
"122 165 LINE",
"123 52 OFFCURVE",
"211 -18 OFFCURVE",
"311 -18 CURVE SMOOTH",
"455 -18 OFFCURVE",
"571 123 OFFCURVE",
"571 307 CURVE SMOOTH",
"571 453 OFFCURVE",
"496 540 OFFCURVE",
"372 540 CURVE SMOOTH",
"283 540 OFFCURVE",
"217 486 OFFCURVE",
"171 404 CURVE",
"199 402 LINE",
"269 729 LINE",
"187 729 LINE",
"-15 -218 LINE",
"69 -218 LINE",
"153 178 LINE"
);
},
{
closed = 1;
nodes = (
"435 464 OFFCURVE",
"486 412 OFFCURVE",
"486 310 CURVE SMOOTH",
"486 161 OFFCURVE",
"407 58 OFFCURVE",
"302 58 CURVE SMOOTH",
"224 58 OFFCURVE",
"166 107 OFFCURVE",
"166 214 CURVE SMOOTH",
"166 354 OFFCURVE",
"253 464 OFFCURVE",
"357 464 CURVE SMOOTH"
);
}
);
userData = {
assembly = "NPUSHB[ ]	/* 47 values pushed */
29 13 16 21 13 6 16 2 6 1 1 1 19 3 2 1 2 3 0 0 2 1 1 0 20 0 3 14 33 19 12 12 2 25 20 19 3 2 11 4 0 1 4 1 0 1 0 
CALL[ ]	/* CallFunction */
LOOPCALL[ ]	/* LoopAndCallFunction */
SRP0[ ]	/* SetRefPoint0 */
MDRP[00100]	/* MoveDirectRelPt */
SRP0[ ]	/* SetRefPoint0 */
MIRP[01101]	/* MoveIndirectRelPt */
CALL[ ]	/* CallFunction */
RUTG[ ]	/* RoundUpToGrid */
MIAP[1]	/* MoveIndirectAbsPt */
ALIGNRP[ ]	/* AlignRelativePt */
RTG[ ]	/* RoundToGrid */
CALL[ ]	/* CallFunction */
SZP0[ ]	/* SetZonePointer0 */
SZP1[ ]	/* SetZonePointer1 */
CALL[ ]	/* CallFunction */
SZP0[ ]	/* SetZonePointer0 */
SZP1[ ]	/* SetZonePointer1 */
RUTG[ ]	/* RoundUpToGrid */
MIAP[1]	/* MoveIndirectAbsPt */
RTG[ ]	/* RoundToGrid */
MIAP[1]	/* MoveIndirectAbsPt */
SRP0[ ]	/* SetRefPoint0 */
MIRP[01101]	/* MoveIndirectRelPt */
SRP0[ ]	/* SetRefPoint0 */
MIRP[01101]	/* MoveIndirectRelPt */
IUP[1]	/* InterpolateUntPts */
IUP[0]	/* InterpolateUntPts */";
};
width = 618;
}
);
note = thorn;
unicode = 00FE;
},
{
glyphname = q;
lastChange = "2022-10-01 01:33:41 +0000";
layers = (
{
layerId = m01;
paths = (
{
closed = 1;
nodes = (
"457 524 LINE",
"457 455 LINE",
"418 510 OFFCURVE",
"359 540 OFFCURVE",
"290 540 CURVE SMOOTH",
"139 540 OFFCURVE",
"62 414 OFFCURVE",
"62 255 CURVE SMOOTH",
"62 90 OFFCURVE",
"145 -18 OFFCURVE",
"286 -18 CURVE SMOOTH",
"358 -18 OFFCURVE",
"409 6 OFFCURVE",
"448 66 CURVE",
"448 -218 LINE",
"531 -218 LINE",
"531 524 LINE"
);
},
{
closed = 1;
nodes = (
"406 462 OFFCURVE",
"448 362 OFFCURVE",
"448 258 CURVE SMOOTH",
"448 161 OFFCURVE",
"407 60 OFFCURVE",
"302 60 CURVE SMOOTH",
"197 60 OFFCURVE",
"149 154 OFFCURVE",
"149 261 CURVE SMOOTH",
"149 374 OFFCURVE",
"203 462 OFFCURVE",
"302 462 CURVE SMOOTH"
);
}
);
userData = {
assembly = "NPUSHB[ ]	/* 46 values pushed */
32 13 6 23 13 17 17 1 6 2 1 20 2 2 21 2 3 0 22 21 1 1 0 3 14 27 19 12 12 1 36 2 1 11 2 0 1 4 22 0 1 21 20 1 2 0 
LOOPCALL[ ]	/* LoopAndCallFunction */
LOOPCALL[ ]	/* LoopAndCallFunction */
SRP0[ ]	/* SetRefPoint0 */
MDRP[00100]	/* MoveDirectRelPt */
SRP0[ ]	/* SetRefPoint0 */
MIRP[01101]	/* MoveIndirectRelPt */
CALL[ ]	/* CallFunction */
RUTG[ ]	/* RoundUpToGrid */
MIAP[1]	/* MoveIndirectAbsPt */
ALIGNRP[ ]	/* AlignRelativePt */
RTG[ ]	/* RoundToGrid */
MIAP[1]	/* MoveIndirectAbsPt */
ALIGNRP[ ]	/* AlignRelativePt */
SZP0[ ]	/* SetZonePointer0 */
CALL[ ]	/* CallFunction */
SZP0[ ]	/* SetZonePointer0 */
MIAP[1]	/* MoveIndirectAbsPt */
RUTG[ ]	/* RoundUpToGrid */
MIAP[1]	/* MoveIndirectAbsPt */
RTG[ ]	/* RoundToGrid */
SRP0[ ]	/* SetRefPoint0 */
MIRP[01101]	/* MoveIndirectRelPt */
SRP0[ ]	/* SetRefPoint0 */
MIRP[01101]	/* MoveIndirectRelPt */
IUP[1]	/* InterpolateUntPts */
IUP[0]	/* InterpolateUntPts */";
};
width = 618;
},
{
layerId = "2BD620B1-1E84-4C86-A446-E2CCA0F180F7";
paths = (
{
closed = 1;
nodes = (
"497 357 LINE",
"502 467 OFFCURVE",
"423 540 OFFCURVE",
"313 540 CURVE SMOOTH",
"169 540 OFFCURVE",
"47 405 OFFCURVE",
"47 221 CURVE SMOOTH",
"47 71 OFFCURVE",
"130 -18 OFFCURVE",
"250 -18 CURVE SMOOTH",
"332 -18 OFFCURVE",
"407 42 OFFCURVE",
"451 124 CURVE",
"415 109 LINE",
"346 -218 LINE",
"429 -218 LINE",
"587 524 LINE",
"513 524 LINE",
"476 350 LINE"
);
},
{
closed = 1;
nodes = (
"190 58 OFFCURVE",
"132 106 OFFCURVE",
"132 208 CURVE SMOOTH",
"132 357 OFFCURVE",
"210 464 OFFCURVE",
"315 464 CURVE SMOOTH",
"391 464 OFFCURVE",
"451 420 OFFCURVE",
"451 305 CURVE SMOOTH",
"451 171 OFFCURVE",
"375 58 OFFCURVE",
"269 58 CURVE SMOOTH"
);
}
);
userData = {
assembly = "NPUSHB[ ]	/* 46 values pushed */
32 13 6 23 13 17 17 1 6 2 1 20 2 2 21 2 3 0 22 21 1 1 0 3 14 27 19 12 12 1 36 2 1 11 2 0 1 4 22 0 1 21 20 1 2 0 
LOOPCALL[ ]	/* LoopAndCallFunction */
LOOPCALL[ ]	/* LoopAndCallFunction */
SRP0[ ]	/* SetRefPoint0 */
MDRP[00100]	/* MoveDirectRelPt */
SRP0[ ]	/* SetRefPoint0 */
MIRP[01101]	/* MoveIndirectRelPt */
CALL[ ]	/* CallFunction */
RUTG[ ]	/* RoundUpToGrid */
MIAP[1]	/* MoveIndirectAbsPt */
ALIGNRP[ ]	/* AlignRelativePt */
RTG[ ]	/* RoundToGrid */
MIAP[1]	/* MoveIndirectAbsPt */
ALIGNRP[ ]	/* AlignRelativePt */
SZP0[ ]	/* SetZonePointer0 */
CALL[ ]	/* CallFunction */
SZP0[ ]	/* SetZonePointer0 */
MIAP[1]	/* MoveIndirectAbsPt */
RUTG[ ]	/* RoundUpToGrid */
MIAP[1]	/* MoveIndirectAbsPt */
RTG[ ]	/* RoundToGrid */
SRP0[ ]	/* SetRefPoint0 */
MIRP[01101]	/* MoveIndirectRelPt */
SRP0[ ]	/* SetRefPoint0 */
MIRP[01101]	/* MoveIndirectRelPt */
IUP[1]	/* InterpolateUntPts */
IUP[0]	/* InterpolateUntPts */";
};
width = 618;
}
);
note = q;
unicode = 0071;
},
{
glyphname = r;
lastChange = "2022-10-01 01:33:41 +0000";
layers = (
{
anchors = (
{
name = bottom;
position = "{166, 0}";
},
{
name = top;
position = "{349, 524}";
}
);
layerId = m01;
paths = (
{
closed = 1;
nodes = (
"208 0 LINE",
"208 254 LINE SMOOTH",
"208 377 OFFCURVE",
"276 466 OFFCURVE",
"381 466 CURVE SMOOTH",
"452 466 OFFCURVE",
"486 432 OFFCURVE",
"498 369 CURVE",
"581 369 LINE",
"571 473 OFFCURVE",
"509 539 OFFCURVE",
"389 539 CURVE SMOOTH",
"303 539 OFFCURVE",
"236 486 OFFCURVE",
"201 411 CURVE",
"201 524 LINE",
"124 524 LINE",
"124 0 LINE"
);
}
);
userData = {
assembly = "NPUSHB[ ]	/* 39 values pushed */
4 1 11 7 2 3 0 12 3 6 0 13 12 1 0 1 0 1 14 12 11 11 1 0 2 1 25 1 0 2 4 7 6 1 13 0 1 2 0 
LOOPCALL[ ]	/* LoopAndCallFunction */
LOOPCALL[ ]	/* LoopAndCallFunction */
CALL[ ]	/* CallFunction */
RUTG[ ]	/* RoundUpToGrid */
MIAP[1]	/* MoveIndirectAbsPt */
ALIGNRP[ ]	/* AlignRelativePt */
RTG[ ]	/* RoundToGrid */
CALL[ ]	/* CallFunction */
SRP0[ ]	/* SetRefPoint0 */
MDRP[00000]	/* MoveDirectRelPt */
CALL[ ]	/* CallFunction */
RUTG[ ]	/* RoundUpToGrid */
MIAP[1]	/* MoveIndirectAbsPt */
RTG[ ]	/* RoundToGrid */
IUP[1]	/* InterpolateUntPts */
IUP[0]	/* InterpolateUntPts */";
};
width = 618;
},
{
anchors = (
{
name = bottom;
position = "{110, 0}";
},
{
name = top;
position = "{405, 524}";
}
);
layerId = "2BD620B1-1E84-4C86-A446-E2CCA0F180F7";
paths = (
{
closed = 1;
nodes = (
"152 0 LINE",
"204 244 LINE SMOOTH",
"234 386 OFFCURVE",
"327 466 OFFCURVE",
"420 466 CURVE SMOOTH",
"480 466 OFFCURVE",
"521 435 OFFCURVE",
"523 366 CURVE",
"606 366 LINE",
"610 467 OFFCURVE",
"551 539 OFFCURVE",
"440 539 CURVE SMOOTH",
"337 539 OFFCURVE",
"254 464 OFFCURVE",
"220 379 CURVE",
"224 367 LINE",
"257 524 LINE",
"180 524 LINE",
"68 0 LINE"
);
}
);
userData = {
assembly = "NPUSHB[ ]	/* 39 values pushed */
4 1 11 7 2 3 0 12 3 6 0 13 12 1 0 1 0 1 14 12 11 11 1 0 2 1 25 1 0 2 4 7 6 1 13 0 1 2 0 
LOOPCALL[ ]	/* LoopAndCallFunction */
LOOPCALL[ ]	/* LoopAndCallFunction */
CALL[ ]	/* CallFunction */
RUTG[ ]	/* RoundUpToGrid */
MIAP[1]	/* MoveIndirectAbsPt */
ALIGNRP[ ]	/* AlignRelativePt */
RTG[ ]	/* RoundToGrid */
CALL[ ]	/* CallFunction */
SRP0[ ]	/* SetRefPoint0 */
MDRP[00000]	/* MoveDirectRelPt */
CALL[ ]	/* CallFunction */
RUTG[ ]	/* RoundUpToGrid */
MIAP[1]	/* MoveIndirectAbsPt */
RTG[ ]	/* RoundToGrid */
IUP[1]	/* InterpolateUntPts */
IUP[0]	/* InterpolateUntPts */";
};
width = 618;
}
);
note = r;
unicode = 0072;
},
{
glyphname = s;
lastChange = "2022-10-01 01:33:41 +0000";
layers = (
{
anchors = (
{
name = bottom;
position = "{312, 0}";
},
{
name = top;
position = "{311, 524}";
}
);
layerId = m01;
paths = (
{
closed = 1;
nodes = (
"499 480 OFFCURVE",
"433 540 OFFCURVE",
"311 540 CURVE SMOOTH",
"188 540 OFFCURVE",
"110 480 OFFCURVE",
"110 385 CURVE SMOOTH",
"110 305 OFFCURVE",
"153 266 OFFCURVE",
"248 241 CURVE SMOOTH",
"358 212 LINE SMOOTH",
"415 197 OFFCURVE",
"437 178 OFFCURVE",
"437 133 CURVE SMOOTH",
"437 84 OFFCURVE",
"388 56 OFFCURVE",
"314 56 CURVE SMOOTH",
"236 56 OFFCURVE",
"193 88 OFFCURVE",
"185 159 CURVE",
"97 159 LINE",
"103 42 OFFCURVE",
"175 -18 OFFCURVE",
"312 -18 CURVE SMOOTH",
"442 -18 OFFCURVE",
"522 44 OFFCURVE",
"522 146 CURVE SMOOTH",
"522 220 OFFCURVE",
"477 263 OFFCURVE",
"389 286 CURVE SMOOTH",
"270 317 LINE SMOOTH",
"221 330 OFFCURVE",
"195 352 OFFCURVE",
"195 389 CURVE SMOOTH",
"195 436 OFFCURVE",
"241 466 OFFCURVE",
"309 466 CURVE SMOOTH",
"372 466 OFFCURVE",
"412 433 OFFCURVE",
"414 381 CURVE",
"501 381 LINE"
);
}
);
userData = {
assembly = "NPUSHB[ ]	/* 31 values pushed */
29 13 22 5 13 45 45 1 22 2 1 0 1 25 24 1 2 0 14 33 19 18 9 19 41 41 25 24 18 1 0 
MDAP[0]	/* MoveDirectAbsPt */
MDAP[0]	/* MoveDirectAbsPt */
MDAP[1]	/* MoveDirectAbsPt */
MDAP[0]	/* MoveDirectAbsPt */
MDAP[0]	/* MoveDirectAbsPt */
MDAP[1]	/* MoveDirectAbsPt */
SRP0[ ]	/* SetRefPoint0 */
MIRP[01101]	/* MoveIndirectRelPt */
SRP0[ ]	/* SetRefPoint0 */
MIRP[01101]	/* MoveIndirectRelPt */
CALL[ ]	/* CallFunction */
LOOPCALL[ ]	/* LoopAndCallFunction */
MIAP[1]	/* MoveIndirectAbsPt */
RUTG[ ]	/* RoundUpToGrid */
MIAP[1]	/* MoveIndirectAbsPt */
RTG[ ]	/* RoundToGrid */
SRP0[ ]	/* SetRefPoint0 */
MIRP[01101]	/* MoveIndirectRelPt */
SRP0[ ]	/* SetRefPoint0 */
MIRP[01101]	/* MoveIndirectRelPt */
IUP[1]	/* InterpolateUntPts */
IUP[0]	/* InterpolateUntPts */";
};
width = 618;
},
{
anchors = (
{
name = bottom;
position = "{281, 0}";
},
{
name = top;
position = "{346, 524}";
}
);
layerId = "2BD620B1-1E84-4C86-A446-E2CCA0F180F7";
paths = (
{
closed = 1;
nodes = (
"525 471 OFFCURVE",
"450 540 OFFCURVE",
"333 540 CURVE SMOOTH",
"214 540 OFFCURVE",
"136 478 OFFCURVE",
"136 382 CURVE SMOOTH",
"136 318 OFFCURVE",
"171 273 OFFCURVE",
"239 249 CURVE SMOOTH",
"337 214 LINE SMOOTH",
"391 195 OFFCURVE",
"414 179 OFFCURVE",
"414 141 CURVE SMOOTH",
"414 92 OFFCURVE",
"370 56 OFFCURVE",
"298 56 CURVE SMOOTH",
"204 56 OFFCURVE",
"156 99 OFFCURVE",
"151 179 CURVE",
"65 179 LINE",
"66 62 OFFCURVE",
"148 -18 OFFCURVE",
"290 -18 CURVE SMOOTH",
"413 -18 OFFCURVE",
"498 51 OFFCURVE",
"498 147 CURVE SMOOTH",
"498 212 OFFCURVE",
"466 253 OFFCURVE",
"395 279 CURVE SMOOTH",
"285 319 LINE SMOOTH",
"244 334 OFFCURVE",
"220 355 OFFCURVE",
"220 389 CURVE SMOOTH",
"220 434 OFFCURVE",
"255 466 OFFCURVE",
"326 466 CURVE SMOOTH",
"397 466 OFFCURVE",
"434 432 OFFCURVE",
"444 364 CURVE",
"530 364 LINE"
);
}
);
userData = {
assembly = "NPUSHB[ ]	/* 31 values pushed */
29 13 22 5 13 45 45 1 22 2 1 0 1 25 24 1 2 0 14 33 19 18 9 19 41 41 25 24 18 1 0 
MDAP[0]	/* MoveDirectAbsPt */
MDAP[0]	/* MoveDirectAbsPt */
MDAP[1]	/* MoveDirectAbsPt */
MDAP[0]	/* MoveDirectAbsPt */
MDAP[0]	/* MoveDirectAbsPt */
MDAP[1]	/* MoveDirectAbsPt */
SRP0[ ]	/* SetRefPoint0 */
MIRP[01101]	/* MoveIndirectRelPt */
SRP0[ ]	/* SetRefPoint0 */
MIRP[01101]	/* MoveIndirectRelPt */
CALL[ ]	/* CallFunction */
LOOPCALL[ ]	/* LoopAndCallFunction */
MIAP[1]	/* MoveIndirectAbsPt */
RUTG[ ]	/* RoundUpToGrid */
MIAP[1]	/* MoveIndirectAbsPt */
RTG[ ]	/* RoundToGrid */
SRP0[ ]	/* SetRefPoint0 */
MIRP[01101]	/* MoveIndirectRelPt */
SRP0[ ]	/* SetRefPoint0 */
MIRP[01101]	/* MoveIndirectRelPt */
IUP[1]	/* InterpolateUntPts */
IUP[0]	/* InterpolateUntPts */";
};
width = 618;
}
);
note = s;
unicode = 0073;
},
{
glyphname = germandbls;
lastChange = "2022-10-01 01:33:41 +0000";
layers = (
{
layerId = m01;
name = Regular;
paths = (
{
closed = 1;
nodes = (
"372 351 OFFCURVE",
"493 331 OFFCURVE",
"493 204 CURVE SMOOTH",
"493 113 OFFCURVE",
"440 65 OFFCURVE",
"322 65 CURVE SMOOTH",
"313 65 OFFCURVE",
"300 65 OFFCURVE",
"281 66 CURVE",
"281 -6 LINE",
"296 -9 OFFCURVE",
"312 -10 OFFCURVE",
"329 -10 CURVE SMOOTH",
"486 -10 OFFCURVE",
"577 61 OFFCURVE",
"577 204 CURVE SMOOTH",
"577 307 OFFCURVE",
"500 380 OFFCURVE",
"415 391 CURVE",
"478 401 OFFCURVE",
"543 453 OFFCURVE",
"543 545 CURVE SMOOTH",
"543 655 OFFCURVE",
"446 735 OFFCURVE",
"326 735 CURVE SMOOTH",
"216 735 OFFCURVE",
"92 686 OFFCURVE",
"92 508 CURVE SMOOTH",
"92 0 LINE",
"174 0 LINE",
"174 508 LINE SMOOTH",
"174 610 OFFCURVE",
"237 660 OFFCURVE",
"324 660 CURVE SMOOTH",
"405 660 OFFCURVE",
"459 608 OFFCURVE",
"459 544 CURVE SMOOTH",
"459 455 OFFCURVE",
"398 409 OFFCURVE",
"293 420 CURVE",
"293 342 LINE"
);
}
);
userData = {
assembly = "NPUSHB[ ]	/* 59 values pushed */
41 34 34 8 13 18 34 2 18 0 49 1 49 37 25 14 11 1 0 7 0 12 3 0 36 12 13 12 1 0 14 45 19 30 5 19 22 25 30 22 0 12 11 11 1 13 1 4 1 0 1 37 36 1 14 13 1 3 0 
LOOPCALL[ ]	/* LoopAndCallFunction */
LOOPCALL[ ]	/* LoopAndCallFunction */
SRP0[ ]	/* SetRefPoint0 */
MDRP[00100]	/* MoveDirectRelPt */
MDRP[00100]	/* MoveDirectRelPt */
MDRP[00000]	/* MoveDirectRelPt */
SRP0[ ]	/* SetRefPoint0 */
MIRP[01101]	/* MoveIndirectRelPt */
SRP0[ ]	/* SetRefPoint0 */
MIRP[01101]	/* MoveIndirectRelPt */
CALL[ ]	/* CallFunction */
CALL[ ]	/* CallFunction */
SRP0[ ]	/* SetRefPoint0 */
MDRP[00000]	/* MoveDirectRelPt */
SZP1[ ]	/* SetZonePointer1 */
CALL[ ]	/* CallFunction */
SZP1[ ]	/* SetZonePointer1 */
MDAP[1]	/* MoveDirectAbsPt */
RUTG[ ]	/* RoundUpToGrid */
MIAP[1]	/* MoveIndirectAbsPt */
RTG[ ]	/* RoundToGrid */
MIAP[1]	/* MoveIndirectAbsPt */
SRP0[ ]	/* SetRefPoint0 */
MIRP[01101]	/* MoveIndirectRelPt */
SRP0[ ]	/* SetRefPoint0 */
MIRP[01101]	/* MoveIndirectRelPt */
IUP[1]	/* InterpolateUntPts */
IUP[0]	/* InterpolateUntPts */";
};
width = 618;
},
{
layerId = "2BD620B1-1E84-4C86-A446-E2CCA0F180F7";
name = Regular;
paths = (
{
closed = 1;
nodes = (
"319 343 OFFCURVE",
"328 343 OFFCURVE",
"336 343 CURVE SMOOTH",
"431 343 OFFCURVE",
"489 292 OFFCURVE",
"489 218 CURVE SMOOTH",
"489 123 OFFCURVE",
"428 66 OFFCURVE",
"310 66 CURVE SMOOTH",
"288 66 OFFCURVE",
"264 68 OFFCURVE",
"238 73 CURVE",
"222 0 LINE",
"254 -7 OFFCURVE",
"284 -10 OFFCURVE",
"313 -10 CURVE SMOOTH",
"465 -10 OFFCURVE",
"567 79 OFFCURVE",
"567 217 CURVE SMOOTH",
"567 317 OFFCURVE",
"497 384 OFFCURVE",
"414 379 CURVE",
"417 368 LINE",
"528 378 OFFCURVE",
"594 447 OFFCURVE",
"594 562 CURVE SMOOTH",
"594 664 OFFCURVE",
"517 735 OFFCURVE",
"401 735 CURVE SMOOTH",
"293 735 OFFCURVE",
"182 686 OFFCURVE",
"150 537 CURVE SMOOTH",
"36 0 LINE",
"118 0 LINE",
"229 521 LINE SMOOTH",
"249 613 OFFCURVE",
"307 660 OFFCURVE",
"395 660 CURVE SMOOTH",
"468 660 OFFCURVE",
"515 618 OFFCURVE",
"515 552 CURVE SMOOTH",
"515 462 OFFCURVE",
"456 417 OFFCURVE",
"366 417 CURVE SMOOTH",
"354 417 OFFCURVE",
"341 418 OFFCURVE",
"327 420 CURVE",
"310 342 LINE"
);
}
);
userData = {
assembly = "NPUSHB[ ]	/* 59 values pushed */
41 34 34 8 13 18 34 2 18 0 49 1 49 37 25 14 11 1 0 7 0 12 3 0 36 12 13 12 1 0 14 45 19 30 5 19 22 25 30 22 0 12 11 11 1 13 1 4 1 0 1 37 36 1 14 13 1 3 0 
LOOPCALL[ ]	/* LoopAndCallFunction */
LOOPCALL[ ]	/* LoopAndCallFunction */
SRP0[ ]	/* SetRefPoint0 */
MDRP[00100]	/* MoveDirectRelPt */
MDRP[00100]	/* MoveDirectRelPt */
MDRP[00000]	/* MoveDirectRelPt */
SRP0[ ]	/* SetRefPoint0 */
MIRP[01101]	/* MoveIndirectRelPt */
SRP0[ ]	/* SetRefPoint0 */
MIRP[01101]	/* MoveIndirectRelPt */
CALL[ ]	/* CallFunction */
CALL[ ]	/* CallFunction */
SRP0[ ]	/* SetRefPoint0 */
MDRP[00000]	/* MoveDirectRelPt */
SZP1[ ]	/* SetZonePointer1 */
CALL[ ]	/* CallFunction */
SZP1[ ]	/* SetZonePointer1 */
MDAP[1]	/* MoveDirectAbsPt */
RUTG[ ]	/* RoundUpToGrid */
MIAP[1]	/* MoveIndirectAbsPt */
RTG[ ]	/* RoundToGrid */
MIAP[1]	/* MoveIndirectAbsPt */
SRP0[ ]	/* SetRefPoint0 */
MIRP[01101]	/* MoveIndirectRelPt */
SRP0[ ]	/* SetRefPoint0 */
MIRP[01101]	/* MoveIndirectRelPt */
IUP[1]	/* InterpolateUntPts */
IUP[0]	/* InterpolateUntPts */";
};
width = 618;
}
);
note = germandbls;
unicode = 00DF;
},
{
glyphname = t;
lastChange = "2022-10-01 01:33:41 +0000";
layers = (
{
anchors = (
{
name = bottom;
position = "{396, 0}";
},
{
name = center;
position = "{272, 262}";
},
{
name = top;
position = "{272, 524}";
},
{
name = topright;
position = "{417, 729}";
}
);
layerId = m01;
paths = (
{
closed = 1;
nodes = (
"313 668 LINE",
"230 668 LINE",
"230 524 LINE",
"79 524 LINE",
"79 456 LINE",
"230 456 LINE",
"230 149 LINE SMOOTH",
"230 35 OFFCURVE",
"298 -14 OFFCURVE",
"425 -14 CURVE SMOOTH",
"453 -14 OFFCURVE",
"486 -12 OFFCURVE",
"519 -2 CURVE",
"519 71 LINE",
"494 64 OFFCURVE",
"464 61 OFFCURVE",
"430 61 CURVE SMOOTH",
"354 61 OFFCURVE",
"313 87 OFFCURVE",
"313 164 CURVE SMOOTH",
"313 456 LINE",
"519 456 LINE",
"519 524 LINE",
"313 524 LINE"
);
}
);
userData = {
assembly = "NPUSHB[ ]	/* 62 values pushed */
6 22 11 11 2 1 14 8 3 3 1 2 3 0 1 9 2 0 16 15 2 1 9 3 0 1 4 20 19 1 0 21 18 17 0 1 3 14 21 20 3 2 11 3 14 1 4 9 8 1 0 3 19 18 15 14 3 17 16 1 3 0 
LOOPCALL[ ]	/* LoopAndCallFunction */
LOOPCALL[ ]	/* LoopAndCallFunction */
CALL[ ]	/* CallFunction */
RUTG[ ]	/* RoundUpToGrid */
SLOOP[ ]	/* SetLoopVariable */
MIAP[1]	/* MoveIndirectAbsPt */
ALIGNRP[ ]	/* AlignRelativePt */
RTG[ ]	/* RoundToGrid */
CALL[ ]	/* CallFunction */
LOOPCALL[ ]	/* LoopAndCallFunction */
SZP0[ ]	/* SetZonePointer0 */
SRP0[ ]	/* SetRefPoint0 */
MDRP[00000]	/* MoveDirectRelPt */
SZP0[ ]	/* SetZonePointer0 */
SZP0[ ]	/* SetZonePointer0 */
CALL[ ]	/* CallFunction */
SZP0[ ]	/* SetZonePointer0 */
MIAP[1]	/* MoveIndirectAbsPt */
SRP0[ ]	/* SetRefPoint0 */
MIRP[01101]	/* MoveIndirectRelPt */
IUP[1]	/* InterpolateUntPts */
IUP[0]	/* InterpolateUntPts */";
};
width = 618;
},
{
anchors = (
{
name = bottom;
position = "{358, 0}";
},
{
name = center;
position = "{277, 262}";
},
{
name = top;
position = "{333, 524}";
},
{
name = topright;
position = "{516, 729}";
}
);
layerId = "2BD620B1-1E84-4C86-A446-E2CCA0F180F7";
paths = (
{
closed = 1;
nodes = (
"405 668 LINE",
"322 668 LINE",
"292 524 LINE",
"135 524 LINE",
"120 456 LINE",
"277 456 LINE",
"218 179 LINE SMOOTH",
"192 59 OFFCURVE",
"258 -14 OFFCURVE",
"391 -14 CURVE SMOOTH",
"428 -14 OFFCURVE",
"458 -11 OFFCURVE",
"495 1 CURVE",
"466 -46 LINE",
"499 113 LINE",
"502 71 LINE",
"477 63 OFFCURVE",
"450 61 OFFCURVE",
"407 61 CURVE SMOOTH",
"317 61 OFFCURVE",
"284 99 OFFCURVE",
"300 174 CURVE SMOOTH",
"360 456 LINE",
"557 456 LINE",
"572 524 LINE",
"375 524 LINE"
);
}
);
userData = {
assembly = "NPUSHB[ ]	/* 62 values pushed */
6 22 11 11 2 1 14 8 3 3 1 2 3 0 1 9 2 0 16 15 2 1 9 3 0 1 4 20 19 1 0 21 18 17 0 1 3 14 21 20 3 2 11 3 14 1 4 9 8 1 0 3 19 18 15 14 3 17 16 1 3 0 
LOOPCALL[ ]	/* LoopAndCallFunction */
LOOPCALL[ ]	/* LoopAndCallFunction */
CALL[ ]	/* CallFunction */
RUTG[ ]	/* RoundUpToGrid */
SLOOP[ ]	/* SetLoopVariable */
MIAP[1]	/* MoveIndirectAbsPt */
ALIGNRP[ ]	/* AlignRelativePt */
RTG[ ]	/* RoundToGrid */
CALL[ ]	/* CallFunction */
LOOPCALL[ ]	/* LoopAndCallFunction */
SZP0[ ]	/* SetZonePointer0 */
SRP0[ ]	/* SetRefPoint0 */
MDRP[00000]	/* MoveDirectRelPt */
SZP0[ ]	/* SetZonePointer0 */
SZP0[ ]	/* SetZonePointer0 */
CALL[ ]	/* CallFunction */
SZP0[ ]	/* SetZonePointer0 */
MIAP[1]	/* MoveIndirectAbsPt */
SRP0[ ]	/* SetRefPoint0 */
MIRP[01101]	/* MoveIndirectRelPt */
IUP[1]	/* InterpolateUntPts */
IUP[0]	/* InterpolateUntPts */";
};
width = 618;
}
);
note = t;
unicode = 0074;
},
{
glyphname = u;
lastChange = "2022-10-01 01:33:41 +0000";
layers = (
{
anchors = (
{
name = bottom;
position = "{309, 0}";
},
{
name = ogonek;
position = "{518, 0}";
},
{
name = top;
position = "{309, 524}";
},
{
name = topright;
position = "{598, 524}";
}
);
layerId = m01;
paths = (
{
closed = 1;
nodes = (
"435 524 LINE",
"435 233 LINE SMOOTH",
"435 174 OFFCURVE",
"420 129 OFFCURVE",
"391 98 CURVE SMOOTH",
"364 69 OFFCURVE",
"331 55 OFFCURVE",
"292 55 CURVE SMOOTH",
"263 55 OFFCURVE",
"238 63 OFFCURVE",
"219 78 CURVE SMOOTH",
"196 96 OFFCURVE",
"184 123 OFFCURVE",
"184 158 CURVE SMOOTH",
"184 524 LINE",
"101 524 LINE",
"101 125 LINE SMOOTH",
"101 76 OFFCURVE",
"119 39 OFFCURVE",
"155 13 CURVE SMOOTH",
"185 -8 OFFCURVE",
"223 -18 OFFCURVE",
"268 -18 CURVE SMOOTH",
"345 -18 OFFCURVE",
"395 9 OFFCURVE",
"443 78 CURVE",
"443 0 LINE",
"518 0 LINE",
"518 524 LINE"
);
}
);
userData = {
assembly = "NPUSHB[ ]	/* 49 values pushed */
16 22 5 5 2 20 12 9 2 4 10 0 3 1 0 1 0 22 21 11 10 1 3 14 21 20 11 1 0 2 1 25 1 0 12 11 11 1 9 3 4 22 0 1 10 9 1 2 0 
LOOPCALL[ ]	/* LoopAndCallFunction */
LOOPCALL[ ]	/* LoopAndCallFunction */
CALL[ ]	/* CallFunction */
RUTG[ ]	/* RoundUpToGrid */
SLOOP[ ]	/* SetLoopVariable */
MIAP[1]	/* MoveIndirectAbsPt */
ALIGNRP[ ]	/* AlignRelativePt */
RTG[ ]	/* RoundToGrid */
CALL[ ]	/* CallFunction */
CALL[ ]	/* CallFunction */
MIAP[1]	/* MoveIndirectAbsPt */
SRP0[ ]	/* SetRefPoint0 */
MIRP[01101]	/* MoveIndirectRelPt */
IUP[1]	/* InterpolateUntPts */
IUP[0]	/* InterpolateUntPts */";
};
width = 618;
},
{
anchors = (
{
name = bottom;
position = "{253, 0}";
},
{
name = ogonek;
position = "{462, 0}";
},
{
name = top;
position = "{365, 524}";
},
{
name = topright;
position = "{654, 524}";
}
);
layerId = "2BD620B1-1E84-4C86-A446-E2CCA0F180F7";
paths = (
{
closed = 1;
nodes = (
"491 524 LINE",
"429 233 LINE SMOOTH",
"407 131 OFFCURVE",
"325 55 OFFCURVE",
"237 55 CURVE SMOOTH",
"178 55 OFFCURVE",
"147 87 OFFCURVE",
"164 168 CURVE SMOOTH",
"240 524 LINE",
"157 524 LINE",
"78 153 LINE SMOOTH",
"54 41 OFFCURVE",
"119 -18 OFFCURVE",
"209 -18 CURVE SMOOTH",
"291 -18 OFFCURVE",
"359 17 OFFCURVE",
"425 118 CURVE",
"414 122 LINE",
"387 0 LINE",
"462 0 LINE",
"574 524 LINE"
);
}
);
userData = {
assembly = "NPUSHB[ ]	/* 49 values pushed */
16 22 5 5 2 20 12 9 2 4 10 0 3 1 0 1 0 22 21 11 10 1 3 14 21 20 11 1 0 2 1 25 1 0 12 11 11 1 9 3 4 22 0 1 10 9 1 2 0 
LOOPCALL[ ]	/* LoopAndCallFunction */
LOOPCALL[ ]	/* LoopAndCallFunction */
CALL[ ]	/* CallFunction */
RUTG[ ]	/* RoundUpToGrid */
SLOOP[ ]	/* SetLoopVariable */
MIAP[1]	/* MoveIndirectAbsPt */
ALIGNRP[ ]	/* AlignRelativePt */
RTG[ ]	/* RoundToGrid */
CALL[ ]	/* CallFunction */
CALL[ ]	/* CallFunction */
MIAP[1]	/* MoveIndirectAbsPt */
SRP0[ ]	/* SetRefPoint0 */
MIRP[01101]	/* MoveIndirectRelPt */
IUP[1]	/* InterpolateUntPts */
IUP[0]	/* InterpolateUntPts */";
};
width = 618;
}
);
note = u;
unicode = 0075;
},
{
glyphname = v;
lastChange = "2022-10-01 01:33:41 +0000";
layers = (
{
layerId = m01;
paths = (
{
closed = 1;
nodes = (
"461 524 LINE",
"296 58 LINE",
"326 58 LINE",
"160 524 LINE",
"71 524 LINE",
"263 0 LINE",
"355 0 LINE",
"547 524 LINE"
);
}
);
userData = {
assembly = "NPUSHB[ ]	/* 22 values pushed */
4 2 0 2 1 0 1 0 6 5 3 2 1 3 14 6 5 4 3 2 1 0 
MDAP[0]	/* MoveDirectAbsPt */
MDAP[0]	/* MoveDirectAbsPt */
MDAP[0]	/* MoveDirectAbsPt */
MDAP[0]	/* MoveDirectAbsPt */
MDAP[0]	/* MoveDirectAbsPt */
MDAP[0]	/* MoveDirectAbsPt */
MDAP[0]	/* MoveDirectAbsPt */
CALL[ ]	/* CallFunction */
RUTG[ ]	/* RoundUpToGrid */
SLOOP[ ]	/* SetLoopVariable */
MIAP[1]	/* MoveIndirectAbsPt */
ALIGNRP[ ]	/* AlignRelativePt */
RTG[ ]	/* RoundToGrid */
CALL[ ]	/* CallFunction */
CALL[ ]	/* CallFunction */
IUP[1]	/* InterpolateUntPts */
IUP[0]	/* InterpolateUntPts */";
};
width = 618;
},
{
layerId = "2BD620B1-1E84-4C86-A446-E2CCA0F180F7";
paths = (
{
closed = 1;
nodes = (
"511 524 LINE",
"245 55 LINE",
"276 55 LINE",
"209 524 LINE",
"127 524 LINE",
"207 0 LINE",
"299 0 LINE",
"603 524 LINE"
);
}
);
userData = {
assembly = "NPUSHB[ ]	/* 22 values pushed */
4 2 0 2 1 0 1 0 6 5 3 2 1 3 14 6 5 4 3 2 1 0 
MDAP[0]	/* MoveDirectAbsPt */
MDAP[0]	/* MoveDirectAbsPt */
MDAP[0]	/* MoveDirectAbsPt */
MDAP[0]	/* MoveDirectAbsPt */
MDAP[0]	/* MoveDirectAbsPt */
MDAP[0]	/* MoveDirectAbsPt */
MDAP[0]	/* MoveDirectAbsPt */
CALL[ ]	/* CallFunction */
RUTG[ ]	/* RoundUpToGrid */
SLOOP[ ]	/* SetLoopVariable */
MIAP[1]	/* MoveIndirectAbsPt */
ALIGNRP[ ]	/* AlignRelativePt */
RTG[ ]	/* RoundToGrid */
CALL[ ]	/* CallFunction */
CALL[ ]	/* CallFunction */
IUP[1]	/* InterpolateUntPts */
IUP[0]	/* InterpolateUntPts */";
};
width = 618;
}
);
note = v;
unicode = 0076;
},
{
glyphname = w;
lastChange = "2022-10-01 01:33:41 +0000";
layers = (
{
layerId = m01;
paths = (
{
closed = 1;
nodes = (
"231 0 LINE",
"307 451 LINE",
"308 451 LINE",
"385 0 LINE",
"485 0 LINE",
"596 524 LINE",
"513 524 LINE",
"438 84 LINE",
"437 84 LINE",
"361 524 LINE",
"255 524 LINE",
"182 85 LINE",
"181 85 LINE",
"106 524 LINE",
"22 524 LINE",
"131 0 LINE"
);
}
);
userData = {
assembly = "NPUSHB[ ]	/* 35 values pushed */
10 7 2 3 5 0 3 4 3 1 0 3 0 12 11 9 8 6 5 1 5 14 12 11 10 9 8 7 6 5 4 3 2 1 0 
MDAP[0]	/* MoveDirectAbsPt */
MDAP[0]	/* MoveDirectAbsPt */
MDAP[0]	/* MoveDirectAbsPt */
MDAP[0]	/* MoveDirectAbsPt */
MDAP[0]	/* MoveDirectAbsPt */
MDAP[0]	/* MoveDirectAbsPt */
MDAP[0]	/* MoveDirectAbsPt */
MDAP[0]	/* MoveDirectAbsPt */
MDAP[0]	/* MoveDirectAbsPt */
MDAP[0]	/* MoveDirectAbsPt */
MDAP[0]	/* MoveDirectAbsPt */
MDAP[0]	/* MoveDirectAbsPt */
MDAP[0]	/* MoveDirectAbsPt */
CALL[ ]	/* CallFunction */
RUTG[ ]	/* RoundUpToGrid */
SLOOP[ ]	/* SetLoopVariable */
MIAP[1]	/* MoveIndirectAbsPt */
ALIGNRP[ ]	/* AlignRelativePt */
RTG[ ]	/* RoundToGrid */
CALL[ ]	/* CallFunction */
CALL[ ]	/* CallFunction */
IUP[1]	/* InterpolateUntPts */
IUP[0]	/* InterpolateUntPts */";
};
width = 618;
},
{
layerId = "2BD620B1-1E84-4C86-A446-E2CCA0F180F7";
paths = (
{
closed = 1;
nodes = (
"175 0 LINE",
"345 451 LINE",
"346 451 LINE",
"329 0 LINE",
"429 0 LINE",
"652 524 LINE",
"569 524 LINE",
"397 84 LINE",
"396 84 LINE",
"413 524 LINE",
"307 524 LINE",
"143 84 LINE",
"142 84 LINE",
"158 524 LINE",
"78 524 LINE",
"75 0 LINE"
);
}
);
userData = {
assembly = "NPUSHB[ ]	/* 35 values pushed */
10 7 2 3 5 0 3 4 3 1 0 3 0 12 11 9 8 6 5 1 5 14 12 11 10 9 8 7 6 5 4 3 2 1 0 
MDAP[0]	/* MoveDirectAbsPt */
MDAP[0]	/* MoveDirectAbsPt */
MDAP[0]	/* MoveDirectAbsPt */
MDAP[0]	/* MoveDirectAbsPt */
MDAP[0]	/* MoveDirectAbsPt */
MDAP[0]	/* MoveDirectAbsPt */
MDAP[0]	/* MoveDirectAbsPt */
MDAP[0]	/* MoveDirectAbsPt */
MDAP[0]	/* MoveDirectAbsPt */
MDAP[0]	/* MoveDirectAbsPt */
MDAP[0]	/* MoveDirectAbsPt */
MDAP[0]	/* MoveDirectAbsPt */
MDAP[0]	/* MoveDirectAbsPt */
CALL[ ]	/* CallFunction */
RUTG[ ]	/* RoundUpToGrid */
SLOOP[ ]	/* SetLoopVariable */
MIAP[1]	/* MoveIndirectAbsPt */
ALIGNRP[ ]	/* AlignRelativePt */
RTG[ ]	/* RoundToGrid */
CALL[ ]	/* CallFunction */
CALL[ ]	/* CallFunction */
IUP[1]	/* InterpolateUntPts */
IUP[0]	/* InterpolateUntPts */";
};
width = 618;
}
);
note = w;
unicode = 0077;
},
{
glyphname = x;
lastChange = "2022-10-01 01:33:41 +0000";
layers = (
{
layerId = m01;
paths = (
{
closed = 1;
nodes = (
"437 524 LINE",
"312 336 LINE",
"189 524 LINE",
"91 524 LINE",
"266 267 LINE",
"81 0 LINE",
"178 0 LINE",
"309 199 LINE",
"438 0 LINE",
"537 0 LINE",
"356 271 LINE",
"532 524 LINE"
);
}
);
userData = {
assembly = "NPUSHB[ ]	/* 33 values pushed */
9 6 3 0 4 7 1 3 5 4 2 1 3 0 11 10 8 7 1 3 14 11 10 9 8 7 6 5 4 3 2 1 0 
MDAP[0]	/* MoveDirectAbsPt */
MDAP[0]	/* MoveDirectAbsPt */
MDAP[0]	/* MoveDirectAbsPt */
MDAP[0]	/* MoveDirectAbsPt */
MDAP[0]	/* MoveDirectAbsPt */
MDAP[0]	/* MoveDirectAbsPt */
MDAP[0]	/* MoveDirectAbsPt */
MDAP[0]	/* MoveDirectAbsPt */
MDAP[0]	/* MoveDirectAbsPt */
MDAP[0]	/* MoveDirectAbsPt */
MDAP[0]	/* MoveDirectAbsPt */
MDAP[0]	/* MoveDirectAbsPt */
CALL[ ]	/* CallFunction */
RUTG[ ]	/* RoundUpToGrid */
SLOOP[ ]	/* SetLoopVariable */
MIAP[1]	/* MoveIndirectAbsPt */
ALIGNRP[ ]	/* AlignRelativePt */
RTG[ ]	/* RoundToGrid */
CALL[ ]	/* CallFunction */
CALL[ ]	/* CallFunction */
IUP[1]	/* InterpolateUntPts */
IUP[0]	/* InterpolateUntPts */";
};
width = 618;
},
{
layerId = "2BD620B1-1E84-4C86-A446-E2CCA0F180F7";
paths = (
{
closed = 1;
nodes = (
"282 293 LINE",
"25 0 LINE",
"128 0 LINE",
"317 219 LINE",
"293 219 LINE",
"394 0 LINE",
"481 0 LINE",
"350 277 LINE",
"344 242 LINE",
"588 524 LINE",
"487 524 LINE",
"309 319 LINE",
"327 322 LINE",
"233 524 LINE",
"147 524 LINE",
"275 258 LINE"
);
}
);
userData = {
assembly = "NPUSHB[ ]	/* 33 values pushed */
9 6 3 0 4 7 1 3 5 4 2 1 3 0 11 10 8 7 1 3 14 11 10 9 8 7 6 5 4 3 2 1 0 
MDAP[0]	/* MoveDirectAbsPt */
MDAP[0]	/* MoveDirectAbsPt */
MDAP[0]	/* MoveDirectAbsPt */
MDAP[0]	/* MoveDirectAbsPt */
MDAP[0]	/* MoveDirectAbsPt */
MDAP[0]	/* MoveDirectAbsPt */
MDAP[0]	/* MoveDirectAbsPt */
MDAP[0]	/* MoveDirectAbsPt */
MDAP[0]	/* MoveDirectAbsPt */
MDAP[0]	/* MoveDirectAbsPt */
MDAP[0]	/* MoveDirectAbsPt */
MDAP[0]	/* MoveDirectAbsPt */
CALL[ ]	/* CallFunction */
RUTG[ ]	/* RoundUpToGrid */
SLOOP[ ]	/* SetLoopVariable */
MIAP[1]	/* MoveIndirectAbsPt */
ALIGNRP[ ]	/* AlignRelativePt */
RTG[ ]	/* RoundToGrid */
CALL[ ]	/* CallFunction */
CALL[ ]	/* CallFunction */
IUP[1]	/* InterpolateUntPts */
IUP[0]	/* InterpolateUntPts */";
};
width = 618;
}
);
note = x;
unicode = 0078;
},
{
glyphname = y;
lastChange = "2022-10-01 01:33:41 +0000";
layers = (
{
anchors = (
{
name = bottom;
position = "{482, 0}";
},
{
name = top;
position = "{309, 524}";
}
);
layerId = m01;
paths = (
{
closed = 1;
nodes = (
"159 524 LINE",
"71 524 LINE",
"278 -44 LINE",
"285 41 LINE",
"233 -85 LINE SMOOTH",
"218 -122 OFFCURVE",
"197 -136 OFFCURVE",
"159 -136 CURVE SMOOTH",
"142 -136 OFFCURVE",
"124 -135 OFFCURVE",
"102 -130 CURVE",
"102 -208 LINE",
"123 -215 OFFCURVE",
"145 -218 OFFCURVE",
"170 -218 CURVE SMOOTH",
"235 -218 OFFCURVE",
"286 -182 OFFCURVE",
"313 -110 CURVE SMOOTH",
"549 524 LINE",
"463 524 LINE",
"303 74 LINE",
"321 73 LINE"
);
}
);
userData = {
assembly = "NPUSHB[ ]	/* 43 values pushed */
9 34 4 4 3 1 16 0 2 2 0 1 1 13 7 6 3 2 3 3 0 0 15 14 1 0 1 3 14 16 15 13 1 0 5 13 6 14 6 7 6 1 0 
CALL[ ]	/* CallFunction */
SRP0[ ]	/* SetRefPoint0 */
MDRP[00000]	/* MoveDirectRelPt */
SRP0[ ]	/* SetRefPoint0 */
LOOPCALL[ ]	/* LoopAndCallFunction */
CALL[ ]	/* CallFunction */
RUTG[ ]	/* RoundUpToGrid */
SLOOP[ ]	/* SetLoopVariable */
MIAP[1]	/* MoveIndirectAbsPt */
ALIGNRP[ ]	/* AlignRelativePt */
RTG[ ]	/* RoundToGrid */
SZP0[ ]	/* SetZonePointer0 */
SZP1[ ]	/* SetZonePointer1 */
CALL[ ]	/* CallFunction */
SZP0[ ]	/* SetZonePointer0 */
SZP1[ ]	/* SetZonePointer1 */
SZP0[ ]	/* SetZonePointer0 */
CALL[ ]	/* CallFunction */
SZP0[ ]	/* SetZonePointer0 */
MIAP[1]	/* MoveIndirectAbsPt */
SRP0[ ]	/* SetRefPoint0 */
MIRP[01101]	/* MoveIndirectRelPt */
IUP[1]	/* InterpolateUntPts */
IUP[0]	/* InterpolateUntPts */";
};
width = 618;
},
{
anchors = (
{
name = bottom;
position = "{426, 0}";
},
{
name = top;
position = "{365, 524}";
}
);
layerId = "2BD620B1-1E84-4C86-A446-E2CCA0F180F7";
paths = (
{
closed = 1;
nodes = (
"209 524 LINE",
"127 524 LINE",
"214 -44 LINE",
"238 41 LINE",
"159 -85 LINE SMOOTH",
"137 -120 OFFCURVE",
"110 -138 OFFCURVE",
"68 -138 CURVE SMOOTH",
"36 -138 OFFCURVE",
"15 -134 OFFCURVE",
"-24 -117 CURVE",
"18 -89 LINE",
"-25 -249 LINE",
"-31 -195 LINE",
"-3 -209 OFFCURVE",
"28 -218 OFFCURVE",
"65 -218 CURVE SMOOTH",
"142 -218 OFFCURVE",
"193 -180 OFFCURVE",
"234 -110 CURVE SMOOTH",
"604 524 LINE",
"512 524 LINE",
"258 75 LINE",
"274 74 LINE"
);
}
);
userData = {
assembly = "NPUSHB[ ]	/* 43 values pushed */
9 34 4 4 3 1 16 0 2 2 0 1 1 13 7 6 3 2 3 3 0 0 15 14 1 0 1 3 14 16 15 13 1 0 5 13 6 14 6 7 6 1 0 
CALL[ ]	/* CallFunction */
SRP0[ ]	/* SetRefPoint0 */
MDRP[00000]	/* MoveDirectRelPt */
SRP0[ ]	/* SetRefPoint0 */
LOOPCALL[ ]	/* LoopAndCallFunction */
CALL[ ]	/* CallFunction */
RUTG[ ]	/* RoundUpToGrid */
SLOOP[ ]	/* SetLoopVariable */
MIAP[1]	/* MoveIndirectAbsPt */
ALIGNRP[ ]	/* AlignRelativePt */
RTG[ ]	/* RoundToGrid */
SZP0[ ]	/* SetZonePointer0 */
SZP1[ ]	/* SetZonePointer1 */
CALL[ ]	/* CallFunction */
SZP0[ ]	/* SetZonePointer0 */
SZP1[ ]	/* SetZonePointer1 */
SZP0[ ]	/* SetZonePointer0 */
CALL[ ]	/* CallFunction */
SZP0[ ]	/* SetZonePointer0 */
MIAP[1]	/* MoveIndirectAbsPt */
SRP0[ ]	/* SetRefPoint0 */
MIRP[01101]	/* MoveIndirectRelPt */
IUP[1]	/* InterpolateUntPts */
IUP[0]	/* InterpolateUntPts */";
};
width = 618;
}
);
note = y;
unicode = 0079;
},
{
glyphname = z;
lastChange = "2022-10-01 01:33:41 +0000";
layers = (
{
anchors = (
{
name = bottom;
position = "{309, 0}";
},
{
name = center;
position = "{309, 262}";
},
{
name = top;
position = "{313, 524}";
}
);
layerId = m01;
paths = (
{
closed = 1;
nodes = (
"117 451 LINE",
"409 451 LINE",
"96 75 LINE",
"96 0 LINE",
"522 0 LINE",
"522 73 LINE",
"196 73 LINE",
"508 450 LINE",
"508 524 LINE",
"117 524 LINE"
);
}
);
userData = {
assembly = "NPUSHB[ ]	/* 46 values pushed */
6 1 2 7 2 3 8 7 15 1 0 3 2 15 1 4 2 4 5 4 1 0 9 0 1 14 7 2 2 0 8 3 4 3 1 1 0 1 9 8 1 6 5 1 4 0 
LOOPCALL[ ]	/* LoopAndCallFunction */
CALL[ ]	/* CallFunction */
CALL[ ]	/* CallFunction */
RUTG[ ]	/* RoundUpToGrid */
MIAP[1]	/* MoveIndirectAbsPt */
ALIGNRP[ ]	/* AlignRelativePt */
RTG[ ]	/* RoundToGrid */
CALL[ ]	/* CallFunction */
LOOPCALL[ ]	/* LoopAndCallFunction */
CALL[ ]	/* CallFunction */
IUP[1]	/* InterpolateUntPts */
IUP[0]	/* InterpolateUntPts */";
};
width = 618;
},
{
anchors = (
{
name = bottom;
position = "{253, 0}";
},
{
name = center;
position = "{309, 262}";
},
{
name = top;
position = "{355, 524}";
}
);
layerId = "2BD620B1-1E84-4C86-A446-E2CCA0F180F7";
paths = (
{
closed = 1;
nodes = (
"142 451 LINE",
"485 451 LINE",
"473 482 LINE",
"56 75 LINE",
"40 0 LINE",
"470 0 LINE",
"486 73 LINE",
"117 73 LINE",
"130 42 LINE",
"547 450 LINE",
"563 524 LINE",
"158 524 LINE"
);
}
);
userData = {
assembly = "NPUSHB[ ]	/* 46 values pushed */
6 1 2 7 2 3 8 7 15 1 0 3 2 15 1 4 2 4 5 4 1 0 9 0 1 14 7 2 2 0 8 3 4 3 1 1 0 1 9 8 1 6 5 1 4 0 
LOOPCALL[ ]	/* LoopAndCallFunction */
CALL[ ]	/* CallFunction */
CALL[ ]	/* CallFunction */
RUTG[ ]	/* RoundUpToGrid */
MIAP[1]	/* MoveIndirectAbsPt */
ALIGNRP[ ]	/* AlignRelativePt */
RTG[ ]	/* RoundToGrid */
CALL[ ]	/* CallFunction */
LOOPCALL[ ]	/* LoopAndCallFunction */
CALL[ ]	/* CallFunction */
IUP[1]	/* InterpolateUntPts */
IUP[0]	/* InterpolateUntPts */";
};
width = 618;
}
);
note = z;
unicode = 007A;
},
